<svg xmlns="http://www.w3.org/2000/svg" width="369.266" height="110.527" viewBox="160 0 223.266 182.527">
  <path id="Path_3538" data-name="Path 3538" d="M6.28-67.824l29.359,2.512c0-9.42,6.751-15.072,14.6-15.072s13.5,4.71,13.5,12.56c0,4.239-1.884,9.106-12.246,20.1L6.28,0H96.712V-27.632H64.37c19.468-12.4,29.83-27.789,29.83-41.6,0-22.765-17.741-38.779-45.059-38.779C20.724-108.016,6.28-86.978,6.28-67.824ZM157-108.016c-28.574,0-47.728,24.806-47.728,55.264S128.269,2.512,157,2.512c28.417,0,47.728-24.806,47.728-55.264S185.417-108.016,157-108.016Zm0,82.9c-9.577,0-17.584-12.4-17.584-27.632S147.423-80.384,157-80.384s17.584,12.4,17.584,27.632S166.577-25.12,157-25.12Zm60.288-42.7,29.359,2.512c0-9.42,6.751-15.072,14.6-15.072s13.5,4.71,13.5,12.56c0,4.239-1.884,9.106-12.246,20.1L217.288,0H307.72V-27.632H275.378c19.468-12.4,29.83-27.789,29.83-41.6,0-22.765-17.741-38.779-45.059-38.779C231.732-108.016,217.288-86.978,217.288-67.824Zm105.5-27.632v25.591l22.608-4.4V0h30.144V-108.016Z" transform="translate(-6.279 108.016)" fill="#ffeb00"/>
</svg>
