<svg xmlns="http://www.w3.org/2000/svg" xmlns:xlink="http://www.w3.org/1999/xlink" width="898" height="498" viewBox="0 0 898 498">
  <defs>
    <filter id="Rectangle_572" x="0" y="0" width="898" height="498" filterUnits="userSpaceOnUse">
      <feOffset dy="3" input="SourceAlpha"/>
      <feGaussianBlur stdDeviation="3" result="blur"/>
      <feFlood flood-opacity="0.161"/>
      <feComposite operator="in" in2="blur"/>
      <feComposite in="SourceGraphic"/>
    </filter>
  </defs>
  <g transform="matrix(1, 0, 0, 1, 0, 0)" filter="url(#Rectangle_572)">
    <rect id="Rectangle_572-2" data-name="Rectangle 572" width="880" height="480" transform="translate(9 6)" fill="#fff"/>
  </g>
  <path id="Path_3550" data-name="Path 3550" d="M16573,5885h644.645" transform="translate(-16460 -5562.896)" fill="none" stroke="#000" stroke-width="1" stroke-dasharray="6 2"/>
  <path id="Path_3551" data-name="Path 3551" d="M16573,5885h644.645" transform="translate(-16460 -5621.896)" fill="none" stroke="#000" stroke-width="1" stroke-dasharray="6 2"/>
  <path id="Path_3552" data-name="Path 3552" d="M16573,5885h644.645" transform="translate(-16460 -5680.896)" fill="none" stroke="#000" stroke-width="1" stroke-dasharray="6 2"/>
  <path id="Path_3553" data-name="Path 3553" d="M16573,5885h644.645" transform="translate(-16459.5 -5746.896)" fill="none" stroke="#000" stroke-width="1" stroke-dasharray="6 2"/>
  <path id="Path_3554" data-name="Path 3554" d="M16573,5885h644.645" transform="translate(-16459.5 -5813.223)" fill="none" stroke="#000" stroke-width="1" stroke-dasharray="6 2"/>
  <text id="_20_" data-name="20%" transform="translate(76 211.104)" font-size="18" font-family="SegoeUI-Bold, Segoe UI" font-weight="700"><tspan x="-18.158" y="0">20%</tspan></text>
  <text id="_10_" data-name="10%" transform="translate(76 270.104)" font-size="18" font-family="SegoeUI-Bold, Segoe UI" font-weight="700"><tspan x="-18.158" y="0">10%</tspan></text>
  <text id="_0_" data-name="0%" transform="translate(76 329.104)" font-size="18" font-family="SegoeUI-Bold, Segoe UI" font-weight="700"><tspan x="-12.981" y="0">0%</tspan></text>
  <text id="_30_" data-name="30%" transform="translate(76 145.104)" font-size="18" font-family="SegoeUI-Bold, Segoe UI" font-weight="700"><tspan x="-18.158" y="0">30%</tspan></text>
  <text id="_40_" data-name="40%" transform="translate(76 79.104)" font-size="18" font-family="SegoeUI-Bold, Segoe UI" font-weight="700"><tspan x="-18.158" y="0">40%</tspan></text>
  <rect id="Rectangle_570" data-name="Rectangle 570" width="50" height="109" transform="translate(215 225.104)" fill="#ffeb00"/>
  <rect id="Rectangle_571" data-name="Rectangle 571" width="50" height="221" transform="translate(265 113.104)"/>
  <g id="Group_388" data-name="Group 388" transform="translate(166 -118.896)">
    <rect id="Rectangle_570-2" data-name="Rectangle 570" width="50" height="227" transform="translate(189 226)" fill="#ffeb00"/>
    <rect id="Rectangle_571-2" data-name="Rectangle 571" width="50" height="227" transform="translate(239 226)"/>
  </g>
  <g id="Group_389" data-name="Group 389" transform="translate(312 -118.896)">
    <rect id="Rectangle_570-3" data-name="Rectangle 570" width="50" height="180" transform="translate(183 273)" fill="#ffeb00"/>
    <rect id="Rectangle_571-3" data-name="Rectangle 571" width="50" height="117" transform="translate(233 336)"/>
  </g>
  <g id="Group_390" data-name="Group 390" transform="translate(452 -118.896)">
    <rect id="Rectangle_570-4" data-name="Rectangle 570" width="50" height="140" transform="translate(183 313)" fill="#ffeb00"/>
    <rect id="Rectangle_571-4" data-name="Rectangle 571" width="50" height="101" transform="translate(233 352)"/>
  </g>
  <g id="Group_393" data-name="Group 393" transform="translate(75 -119.425)">
    <text id="CEO" transform="translate(195 540)" font-size="18" font-family="SegoeUI-Bold, Segoe UI" font-weight="700"><tspan x="-17.231" y="0">CEO</tspan></text>
  </g>
  <g id="Group_386" data-name="Group 386" transform="translate(-16461 -4936)">
    <text id="Product" transform="translate(16865 5357)" font-size="18" font-family="SegoeUI-Bold, Segoe UI" font-weight="700"><tspan x="-33.416" y="0">Product</tspan></text>
  </g>
  <g id="Group_391" data-name="Group 391" transform="translate(-16312 -4936)">
    <text id="Sales_or_Marketing" data-name="Sales or
Marketing" transform="translate(16865 5357)" font-size="18" font-family="SegoeUI-Bold, Segoe UI" font-weight="700"><tspan x="-32.84" y="0">Sales or</tspan><tspan x="-43.888" y="22">Marketing</tspan></text>
  </g>
  <text id="Other" transform="translate(693 421)" font-size="18" font-family="SegoeUI-Bold, Segoe UI" font-weight="700"><tspan x="-24.196" y="0">Other</tspan></text>
  <g id="Group_520" data-name="Group 520" transform="translate(341.166 89.445)">
    <path id="Path_3575" data-name="Path 3575" d="M-62.74,285.041c-.106-1.712.169-10.3-2.856-11.129-2.464-1.268-4.863-2.555-7.194-4.063.126-.8.15-1.628.234-2.409a3.037,3.037,0,0,0-1.449-3.162c-1.084-.84-2.523-2.143-3.956-2.14a2.482,2.482,0,0,0-2.178,1.04.256.256,0,0,0-.067.1,7.064,7.064,0,0,0-.353,1.527,10.64,10.64,0,0,0-3.075-1.208.247.247,0,0,0-.133-.043h-.045l-.026-.007a.246.246,0,0,0-.122.007c-3.547-.045-5.428,1.531-6.349,4.942-1.21,4.47-.833,9.42-1.173,13.995a.217.217,0,0,0,.111.264c.227.131.451.273.675.411.3,3.3-.076,6.644.1,9.954a.23.23,0,0,0,.012.086.2.2,0,0,0,.144.159c3.338,2.195,6.55,4.561,9.805,6.878,3.044,2.169,6.388,3.737,9.512,5.735a.3.3,0,0,0,.256.14.286.286,0,0,0,.342-.3c.79-1.109,1.887-2.827,3.78-1.268a.269.269,0,0,0,.376-.066c.636-1.059,1.329-2.9,3.393-.191a.273.273,0,0,0,.477-.151C-61.8,297.845-62.344,291.348-62.74,285.041ZM-78.782,262.9c1.617-.411,2.41.454,3.6,1.236a3.727,3.727,0,0,1,2.029,3.762c-.086.809.067,3.316-.944,3.617-.4.118-1.658.281-1.653-.459a8.281,8.281,0,0,1,.137-1.164q.115-.775.209-1.555v-.01c.034-.285.069-.57.094-.856.127-1.481-.691-1.768-1.8-2.406C-77.346,264.927-80.459,263.328-78.782,262.9Zm2.828,4.87c-.629-.415-1.259-.829-1.892-1.236a7.924,7.924,0,0,1,.08-1.206c.151.076.275.138.348.179A2.612,2.612,0,0,1-75.954,267.77Zm-4.263-.43a25.5,25.5,0,0,1,.348-3.3,7.615,7.615,0,0,0,1.645,1.058.265.265,0,0,0-.076.143,20.733,20.733,0,0,0-.166,2.524c-.014.265-.232,1.289-.192,1.293l-.845-.075-.847-.073C-80.512,268.9-80.23,267.458-80.217,267.34Zm-10.717,15.055h0c0-.015,0-.029,0-.043C-90.933,282.365-90.934,282.38-90.934,282.395Zm.871,10.575c-.015-.287-.024-.576-.031-.864a6.58,6.58,0,0,1,.036.867ZM-71.1,304.761c-.026-.3-.051-.593-.087-.89-.007-.068-.114-.05-.1.021.057.477.092.956.136,1.436-.078-.05-.157-.1-.237-.148a18.133,18.133,0,0,1-.35-2.7c0-.069-.108-.08-.108-.009a17.073,17.073,0,0,0,.339,2.634c-.092-.056-.182-.115-.274-.17-.134-.65-.261-1.3-.342-1.96-.007-.069-.114-.051-.106.018.076.629.2,1.248.323,1.868-.176-.106-.353-.209-.531-.313a9.632,9.632,0,0,1-.614-2.59c0-.07-.111-.078-.109-.01a9.266,9.266,0,0,0,.584,2.519c-.14-.082-.28-.166-.421-.246a9.782,9.782,0,0,1-.563-1.914c-.01-.069-.117-.051-.106.02a9.186,9.186,0,0,0,.526,1.814q-.411-.236-.825-.469c-.2-.5-.376-1-.534-1.514-.019-.065-.126-.047-.106.021.147.476.312.944.49,1.409l-.153-.087c-.1-.439-.234-.87-.375-1.3-.021-.066-.119-.018-.1.048.129.391.246.782.345,1.181l-.339-.191c-.2-.607-.61-1.414-.429-1.992.021-.065-.082-.1-.1-.037a3.54,3.54,0,0,0,.394,1.953l-.378-.213a5.748,5.748,0,0,1-.321-1.7c0-.07-.111-.05-.106.019a6.041,6.041,0,0,0,.282,1.6c-.123-.069-.246-.139-.368-.209a18.8,18.8,0,0,1-.3-1.98c0-.069-.111-.078-.106-.01a16.591,16.591,0,0,0,.287,1.922q-.346-.2-.691-.4a13.146,13.146,0,0,1-.379-2.2c0-.069-.109-.079-.107-.009a12.085,12.085,0,0,0,.361,2.141l-.283-.166c-.129-.606-.267-1.208-.394-1.814a.054.054,0,0,0-.106.019c.12.574.249,1.147.372,1.721-.113-.067-.226-.131-.338-.2a7.3,7.3,0,0,1-.364-1.972c0-.07-.106-.081-.108-.01a6.781,6.781,0,0,0,.34,1.9c-.053-.032-.106-.066-.159-.1A4.652,4.652,0,0,1-78,300.29c-.005-.07-.112-.049-.106.02a4.668,4.668,0,0,0,.232,1.11l-.2-.122a10.274,10.274,0,0,1-.4-1.864c-.007-.069-.114-.049-.1.02a10.352,10.352,0,0,0,.37,1.762c-.1-.061-.2-.12-.295-.182a8.749,8.749,0,0,1-.2-1.279c0-.07-.111-.05-.1.019a8.325,8.325,0,0,0,.18,1.183c-.079-.051-.158-.106-.237-.158-.073-.522-.153-1.045-.268-1.558-.016-.067-.122-.048-.106.02.109.482.185.97.254,1.458l-.066-.044c-.1-.411-.161-.826-.235-1.242a.054.054,0,0,0-.106.018c.067.381.125.762.21,1.138-.114-.076-.229-.15-.344-.228a8.012,8.012,0,0,1-.248-1.583c0-.069-.111-.05-.106.019a8.434,8.434,0,0,0,.221,1.476l-.06-.04-.1-.071a6.491,6.491,0,0,1-.322-1.809c0-.069-.107-.078-.106-.009a6.481,6.481,0,0,0,.283,1.714c-.092-.065-.184-.13-.276-.194a10.569,10.569,0,0,1-.268-1.219.053.053,0,0,0-.1.019,10.718,10.718,0,0,0,.232,1.1c-.14-.1-.279-.2-.419-.3a8.714,8.714,0,0,1-.335-1.42c-.01-.07-.116-.05-.106.018a8.785,8.785,0,0,0,.3,1.3l-.391-.276a13.764,13.764,0,0,1-.287-1.7c-.007-.068-.116-.05-.1.019A14.719,14.719,0,0,0-81.467,299c-.122-.086-.243-.17-.364-.257a8.463,8.463,0,0,1-.153-1.038c0-.07-.111-.05-.106.019a8.712,8.712,0,0,0,.131.929c-.14-.1-.282-.2-.423-.3-.048-.388-.078-.776-.1-1.167,0-.07-.109-.05-.106.019.019.356.045.71.086,1.063l-.295-.211c-.117-.51-.177-1.03-.306-1.537-.016-.067-.123-.048-.107.018.12.471.183.952.285,1.426l-.434-.311c-.136-.525-.229-1.054-.317-1.59-.009-.07-.117-.05-.1.02.078.5.169.989.29,1.477l-.554-.4c-.183-.665-.288-1.348-.507-2-.022-.066-.119-.019-.1.047.2.607.307,1.239.466,1.857l-.635-.455a8.932,8.932,0,0,0-.461-1.648c-.025-.065-.123-.018-.1.046a8.935,8.935,0,0,1,.427,1.508l-.452-.32c-.12-.486-.241-.971-.326-1.463a.054.054,0,0,0-.106.018c.078.455.188.9.3,1.35l-.216-.153a11.979,11.979,0,0,0-.106-1.295c-.009-.07-.114-.05-.1.019a11.717,11.717,0,0,1,.1,1.2l-.114-.081a5.749,5.749,0,0,0-.177-1.637c-.016-.066-.123-.049-.1.02a5.675,5.675,0,0,1,.173,1.541l-.133-.095a12.222,12.222,0,0,1-.359-2.032c0-.07-.1-.078-.108-.008a9.807,9.807,0,0,0,.339,1.951q-.174-.124-.348-.246c-.1-.523-.23-1.037-.372-1.551-.019-.065-.125-.045-.106.022.132.476.255.952.35,1.437-.135-.094-.268-.19-.4-.284a18.2,18.2,0,0,0-.328-1.827c-.014-.067-.122-.049-.1.02.133.568.232,1.143.312,1.722-.117-.082-.235-.162-.351-.243.024.01.051,0,.08-.034.045-.054-.045-.117-.088-.063.048-.059-.045-.445-.051-.523a2.894,2.894,0,0,0-.089-.631c-.022-.066-.126-.048-.106.02.034.109.084,1.151.252,1.23-.241-.167-.486-.328-.728-.493a.058.058,0,0,0,.047-.056c-.029-.626-.158-1.236-.246-1.854a.054.054,0,0,0-.106.018c.088.617.216,1.228.244,1.851-.159-.109-.319-.217-.48-.326,0,0,0-.007,0-.012a11.089,11.089,0,0,0-.314-1.86c-.017-.067-.125-.048-.1.021a11.142,11.142,0,0,1,.3,1.775c-.089-.061-.179-.122-.269-.183a.15.15,0,0,0,.07-.078c.033-.06-.055-.125-.088-.063.007-.012-.1-.442-.1-.5-.018-.172-.027-.344-.051-.515-.01-.07-.115-.05-.1.021a4.815,4.815,0,0,0,.186,1.077c-.081-.054-.16-.109-.24-.162-.026-.433-.055-.864-.08-1.3,0-.07-.111-.048-.106.021.023.4.05.8.075,1.2-.053-.034-.1-.07-.155-.1a6.131,6.131,0,0,0-.117-1.549.048.048,0,0,0-.039-.037c-.026-2.649.169-5.306-.026-7.947.232.149.46.308.69.463a.049.049,0,0,0,.058.038c.085.057.171.113.256.172v.007a.053.053,0,0,0,.082.048l.367.257v.02c.005.042.044.048.073.034.122.087.244.175.366.263l0,.067c0,.067.106.077.106.012.094.067.188.133.281.2v.023c0,.051.05.056.08.034,1.033.765,2.046,1.572,3.045,2.38,0,.007-.006.012-.007.02-.048.355-.089.711-.128,1.07a3.474,3.474,0,0,0-.058,1.506,3.309,3.309,0,0,0,.952.93,6.794,6.794,0,0,0,2,1.082.271.271,0,0,0,.364-.23,7.577,7.577,0,0,1,.054-.876c.031-.278.031-.563.038-.844,0-.014,0-.037,0-.063,2.893,2.283,5.84,4.361,8.858,6.43.007.029.012.061.021.089a.052.052,0,0,0,.1-.006c.443.3.883.606,1.329.91C-71.138,299.954-70.995,302.353-71.1,304.761Zm-10.967-14.1c-.012.284-.039.56-.056.839a8.32,8.32,0,0,1-1.367-.769c-.279-.184-.925-.617-.921-.968a15.177,15.177,0,0,1,.171-1.836c.735.6,1.461,1.19,2.18,1.766A6.916,6.916,0,0,0-82.063,290.662Zm10.863,4.264c-.016.655-.013,1.309,0,1.963l-.116-.079a15.325,15.325,0,0,1-.34-3.015c0-.07-.11-.078-.107-.01a16.108,16.108,0,0,0,.312,2.933l-.193-.131c-.224-.943-.371-1.9-.551-2.854a.054.054,0,0,0-.106.019c.172.917.315,1.836.524,2.744l-.351-.239a20.58,20.58,0,0,0-.531-2.715c-.022-.064-.12-.018-.1.048a17.9,17.9,0,0,1,.5,2.58l-.4-.269a6.113,6.113,0,0,0-.614-2.49c-.038-.057-.12.013-.083.07a5.669,5.669,0,0,1,.579,2.34l-.419-.284a7.9,7.9,0,0,1-.441-2.458c0-.069-.109-.079-.107-.01a7.926,7.926,0,0,0,.4,2.365c-.158-.108-.312-.216-.469-.324-.245-.752-.336-1.546-.544-2.311-.016-.067-.124-.049-.106.018.2.724.286,1.472.5,2.189-.216-.148-.43-.3-.645-.444-.208-.8-.287-1.62-.436-2.435a.054.054,0,0,0-.106.02c.142.775.216,1.557.4,2.318q-.267-.184-.535-.369c-.24-.732-.329-1.5-.551-2.241-.021-.067-.126-.049-.106.018.21.7.3,1.425.51,2.122l-.5-.346a16.26,16.26,0,0,0-.5-2.063c-.024-.065-.122-.019-.1.045a14.049,14.049,0,0,1,.465,1.923c-.194-.136-.385-.279-.578-.416a14.959,14.959,0,0,0-.4-1.606c-.024-.066-.122-.018-.1.048a11.817,11.817,0,0,1,.356,1.461l-.414-.3c-.117-.461-.225-.924-.369-1.377-.021-.066-.126-.048-.106.018.13.416.232.839.339,1.26-.162-.117-.326-.232-.486-.35a10.068,10.068,0,0,0-.334-1.265c-.029-.065-.124-.019-.1.047a7.592,7.592,0,0,1,.3,1.123c-.12-.088-.242-.171-.361-.26-.114-.42-.2-.846-.28-1.274a.053.053,0,0,0-.1.018c.073.386.151.772.248,1.153-.129-.1-.254-.2-.381-.295a8.379,8.379,0,0,1-.153-1.047c-.005-.07-.113-.05-.107.021a8.309,8.309,0,0,0,.131.925c-.068-.051-.136-.1-.2-.157-.07-.32-.139-.641-.213-.959-.016-.067-.123-.048-.106.02.065.279.125.558.186.837l-.158-.122c-.056-.392-.143-.778-.224-1.167a.054.054,0,0,0-.106.018c.073.352.15.7.207,1.054l-.194-.15a7.715,7.715,0,0,0-.122-.806.053.053,0,0,0-.1.021c.049.231.082.462.109.694l-.125-.1c-.074-.443-.153-.885-.225-1.328a.054.054,0,0,0-.106.019c.066.405.137.807.205,1.211l-.178-.138a7.933,7.933,0,0,1-.239-1.324c0-.07-.111-.048-.106.02a6.971,6.971,0,0,0,.213,1.2c-.064-.051-.129-.1-.193-.149a8.136,8.136,0,0,1-.129-.955c-.006-.069-.111-.048-.1.02.022.282.056.559.106.835l-.063-.048c-.118-.1-.238-.2-.356-.291a8.69,8.69,0,0,1-.24-1.522c0-.072-.11-.05-.106.018a8.333,8.333,0,0,0,.211,1.394l-.259-.212a7.129,7.129,0,0,1-.29-1.579c0-.07-.11-.049-.1.02a7.014,7.014,0,0,0,.253,1.445l-.263-.216a.052.052,0,0,0,.01-.037c-.065-.527-.164-1.05-.2-1.579,0-.069-.11-.049-.1.02.037.506.127,1.005.192,1.509l-.317-.26a.056.056,0,0,0,.053-.075,4.022,4.022,0,0,1-.2-1.483.054.054,0,0,0-.108-.009,4.132,4.132,0,0,0,.21,1.529l-.439-.361a3.58,3.58,0,0,1-.1-1.537c.014-.067-.094-.077-.108-.008a3.437,3.437,0,0,0,.073,1.43l-.1-.081a5.077,5.077,0,0,1-.076-1.291.054.054,0,0,0-.107-.009,5.1,5.1,0,0,0,.063,1.2c-.072-.059-.144-.117-.216-.177-.063-.559-.065-1.123-.16-1.678a.054.054,0,0,0-.106.021c.087.517.095,1.041.147,1.562-.079-.066-.16-.131-.241-.2a.049.049,0,0,0,.015-.044,4.687,4.687,0,0,1-.051-.939c0-.071-.106-.08-.109-.01a4.827,4.827,0,0,0,.048.915l-.254-.208q-.02-.67-.039-1.34c0-.068-.108-.078-.106-.01.01.421.023.84.034,1.26l-.09-.073q-.025-.538-.052-1.074c0-.07-.108-.05-.1.018.016.322.031.643.047.966l-.065-.053a13.418,13.418,0,0,1-.081-1.682.054.054,0,0,0-.108-.008,12.039,12.039,0,0,0,.077,1.6l-.212-.168c-.032-.467-.078-.933-.1-1.4,0-.07-.109-.051-.107.018.023.43.062.86.093,1.29-.071-.058-.144-.115-.216-.173a4.926,4.926,0,0,1-.07-1.556c.014-.068-.095-.077-.108-.01a4.54,4.54,0,0,0,.059,1.472l-.281-.224a9.715,9.715,0,0,1-.1-1.752.054.054,0,0,0-.108-.008,9.433,9.433,0,0,0,.09,1.665l-.248-.192a4.951,4.951,0,0,1,.012-1.689c.015-.07-.095-.078-.106-.01a4.914,4.914,0,0,0-.031,1.6c-.07-.055-.142-.108-.212-.162a12.12,12.12,0,0,1,.006-1.395.054.054,0,0,0-.107-.01,12.021,12.021,0,0,0-.008,1.32c-.141-.108-.282-.216-.423-.323-.022-.595-.005-1.188,0-1.782,0-.068-.108-.078-.108-.01,0,.57-.015,1.139,0,1.708l-.314-.232a6.7,6.7,0,0,1-.026-1.029.055.055,0,0,0-.109-.01,6.835,6.835,0,0,0,.021.958c-.12-.089-.242-.175-.364-.262a10.464,10.464,0,0,0-.042-1.286c-.009-.069-.113-.049-.106.02a9.625,9.625,0,0,1,.042,1.189c-.1-.074-.206-.151-.31-.224q-.018-.469-.034-.938c0-.069-.111-.08-.108-.01q.015.433.032.867l-.326-.224c.007-.379.038-.758.037-1.14,0-.07-.106-.081-.106-.01,0,.361-.026.721-.035,1.08-.1-.066-.192-.129-.288-.194A7.716,7.716,0,0,0-89,282.356c-.008-.07-.115-.051-.107.018a7.3,7.3,0,0,1,.015,1.18l-.213-.142c.013-.265.021-.53.011-.8,0-.069-.111-.077-.108-.009.009.247,0,.492-.008.736l-.093-.062a6.128,6.128,0,0,0-.076-1.315.053.053,0,0,0-.1.019,6.23,6.23,0,0,1,.076,1.224c-.092-.059-.184-.117-.276-.175A6.242,6.242,0,0,0-89.9,281.8c-.009-.07-.114-.051-.106.02a6.147,6.147,0,0,1,.021,1.149l-.218-.132a.185.185,0,0,0-.032-.043c-.01-.495.042-.986.04-1.481,0-.069-.109-.081-.109-.01,0,.477-.047.95-.042,1.424a.345.345,0,0,0-.048-.006l-.125-.076a13.257,13.257,0,0,0,.055-1.355c0-.068-.109-.078-.108-.01a12.635,12.635,0,0,1-.051,1.3c-.067-.04-.134-.083-.2-.122-.01-.423.033-.842.03-1.266a.052.052,0,0,0-.062-.051c.181-2.914.269-5.835.507-8.75.35-4.291,1.36-8.417,6.492-8.295a10.027,10.027,0,0,1,3.235,1.291,27.094,27.094,0,0,1-.282,2.871c-.188.96.331,1.173,1.136,1.244.829.072,1.328.311,1.664-.58a5.178,5.178,0,0,0,.252-1.749q.949.614,1.893,1.237c-.04.576-.155,1.184-.248,1.809-.112.765-.315,1.66.52,1.979.451.173,1.979.02,2.271-.463a4.617,4.617,0,0,0,.514-1.322c2.021,1.295,4.093,2.429,6.211,3.532-1.325.393-2.41,2.1-2.864,3.255-1.017,2.591-.895,5.293-.895,8.037C-70.45,288.484-71.118,291.684-71.2,294.927Zm4.582-9.766a2.3,2.3,0,0,1-.508-.952,4.364,4.364,0,0,1,.435.737c.026.071.055.141.083.211Zm-.174.128-.007.011-.225-.36C-66.944,285.055-66.865,285.17-66.791,285.289Zm-.023-.986c.029.059.059.12.092.177a.066.066,0,0,0-.018.022Zm3.806,19.077a2.433,2.433,0,0,0-1.969-.708,1.727,1.727,0,0,0-1.085.364c-.079.092-.144.159-.207.224.059-2.98-.392-5.938-.293-8.923a82.286,82.286,0,0,0,.3-8.367c.054.133.109.265.171.394a.053.053,0,0,0,.1-.045,7.1,7.1,0,0,1-.295-.728c-.007-.076-.008-.151-.015-.227a.221.221,0,0,0-.125-.187c-.032-.1-.066-.2-.1-.3.023.058.054.113.076.172s.122.018.1-.048c-.018-.05-.045-.1-.065-.146a.051.051,0,0,0,.008-.073c-.052-.069-.091-.143-.136-.215-.163-.35-.341-.694-.492-1.051a.052.052,0,0,0-.1,0c-.012-.026-.022-.054-.034-.081-.029-.062-.126-.015-.1.048.125.268.229.543.33.818a1.664,1.664,0,0,0-.359-.42c-.054-.043-.117.044-.061.087a1.446,1.446,0,0,1,.1.11,1.181,1.181,0,0,0,.056.3c-.057-.076-.112-.155-.177-.226a.052.052,0,0,0-.025-.012c-.009-.018-.021-.034-.029-.051a.054.054,0,0,0-.1.047,7.4,7.4,0,0,0,.5.8c-.037-.059-.133-.012-.1.048l.287.463a.09.09,0,0,0,0,.014c0,.033,0,.067.007.1-.194-.309-.39-.616-.577-.929-.036-.059-.135-.014-.1.048.059.1.122.2.183.294.173.331.336.669.521.994v.012a10.833,10.833,0,0,1-.7-1.084c-.032-.062-.131-.015-.1.046a10.427,10.427,0,0,0,.812,1.238c0,.053.009.106.012.158-.295-.4-.549-.823-.812-1.247-.036-.059-.133-.012-.1.048a14.9,14.9,0,0,0,.922,1.4c0,.055,0,.11.005.165-.227-.292-.417-.611-.627-.922-.039-.057-.12.012-.083.07a11.564,11.564,0,0,0,.714,1.033c0,.1.005.2.007.305a6.763,6.763,0,0,1-.846-1.279c-.027-.063-.126-.017-.1.048a7.8,7.8,0,0,0,.947,1.416c0,.08.006.16.006.241a6.62,6.62,0,0,1-1.136-1.593.054.054,0,0,0-.1.047,6.967,6.967,0,0,0,1.235,1.706c0,.113,0,.225-.005.337-.514-.566-.913-1.227-1.438-1.787-.048-.051-.132.017-.082.069.536.571.938,1.252,1.47,1.826a.046.046,0,0,0,.048.014c0,.216-.005.433-.013.65a5.6,5.6,0,0,1-1.172-1.44.054.054,0,0,0-.1.048,6.009,6.009,0,0,0,1.264,1.536c0,.1-.01.208-.015.311a9.687,9.687,0,0,1-.778-.875,1.242,1.242,0,0,0-.523-.446c-.067-.018-.106.084-.038.1.273.075.485.421.656.629a7.162,7.162,0,0,0,.64.7.045.045,0,0,0,.037.011c-.013.278-.028.555-.045.833-.422-.364-.8-.77-1.187-1.169-.05-.05-.132.019-.084.069a16.467,16.467,0,0,0,1.262,1.238c-.008.111-.015.224-.022.336-.216-.211-.434-.418-.633-.645a.053.053,0,0,0-.082.068c.221.255.464.486.706.719,0,.056-.008.113-.012.169a4.924,4.924,0,0,0-1.229-1.161c-.063-.032-.1.07-.038.1.515.246.843.79,1.257,1.2-.007.1-.015.2-.023.3a5.2,5.2,0,0,0-1.237-1.129c-.063-.03-.1.072-.038.1.516.244.845.781,1.265,1.166l-.013.177a5.97,5.97,0,0,0-1.224-1.167c-.059-.036-.122.051-.063.087a6.613,6.613,0,0,1,1.277,1.228l-.009.12a11.751,11.751,0,0,0-1.3-1.172c-.055-.041-.117.046-.063.087a12.456,12.456,0,0,1,1.349,1.224l-.023.319c-.221-.211-.43-.436-.669-.628-.054-.044-.116.045-.063.088.259.208.48.454.722.676-.012.173-.026.346-.038.518-.318-.334-1.037-1.1-1.21-.84-.038.059.051.12.088.063.063-.095.833.664,1.112.928l-.015.235a12.01,12.01,0,0,1-1.307-1.18c-.045-.051-.128.018-.081.07a12.839,12.839,0,0,0,1.381,1.244c-.01.147-.021.294-.029.441-.309-.293-.62-.581-.951-.852-.055-.045-.117.044-.064.087.348.285.674.586,1,.9l.008,0c-.007.115-.006.229-.01.344-.38-.326-.759-.654-1.17-.941a.054.054,0,0,0-.063.087c.432.3.829.65,1.23.992,0,.13-.008.26-.01.389l-.862-.824c-.05-.048-.135.021-.084.069l.941.9c0,.059,0,.118,0,.177a13.743,13.743,0,0,0-1.286-.985c-.056-.043-.119.047-.062.087a12.091,12.091,0,0,1,1.35,1.051c0,.162.007.324.01.487a7.867,7.867,0,0,1-.824-.693c-.051-.047-.134.022-.084.069a7.8,7.8,0,0,0,.91.76c0,.2.007.392.015.588a10.811,10.811,0,0,0-1.365-.995c-.06-.034-.124.053-.062.089A11.17,11.17,0,0,1-67.1,297q.012.277.028.554c-.335-.239-.684-.46-1.011-.71-.055-.043-.118.046-.063.088.351.268.724.5,1.081.759.008.146.015.293.025.439a3.889,3.889,0,0,0-1.361-.912c-.065-.023-.1.078-.039.1a3.956,3.956,0,0,1,1.41.97c.005.074.01.147.015.221-.333-.227-.669-.447-1.022-.642-.06-.034-.122.053-.062.089.379.209.738.446,1.094.689.008.122.015.243.024.365a7.335,7.335,0,0,0-1.366-.835c-.065-.029-.1.073-.038.1a7.627,7.627,0,0,1,1.414.873l.019.291c-.369-.2-.729-.42-1.1-.623-.062-.034-.125.054-.063.087.392.217.776.45,1.17.663.007.11.014.219.021.329a3.764,3.764,0,0,0-1.46-.708c-.07-.012-.079.1-.01.107a3.8,3.8,0,0,1,1.47.732h.009l.028.44a7.453,7.453,0,0,0-1.2-.573.054.054,0,0,0-.04.1,7.526,7.526,0,0,1,1.25.6c.005.1.01.205.015.309a13.272,13.272,0,0,0-1.4-.616c-.067-.022-.106.078-.04.1a13.462,13.462,0,0,1,1.442.637c.007.131.014.261.02.392a6.314,6.314,0,0,0-1-.482.054.054,0,0,0-.039.1,5.978,5.978,0,0,1,1.049.51c0,.106.005.213.008.319a5.9,5.9,0,0,0-1.406-.556c-.069-.011-.078.1-.01.106a6.236,6.236,0,0,1,1.419.57c0,.136.005.27.007.4a4.68,4.68,0,0,0-1.044-.5c-.067-.021-.1.081-.039.1a4.743,4.743,0,0,1,1.086.529c0,.1.006.2.006.3a6.431,6.431,0,0,0-1.29-.539c-.067-.019-.107.084-.038.1a6.569,6.569,0,0,1,1.325.557c0,.067,0,.133-.005.2a14.34,14.34,0,0,0-1.44-.6c-.068-.018-.106.084-.038.1.524.132.973.435,1.475.612,0,.106,0,.21-.008.315,0-.006,0-.012-.012-.016a6.5,6.5,0,0,0-1.452-.607c-.068-.02-.106.081-.038.1a6.71,6.71,0,0,1,.872.322,2.409,2.409,0,0,0-.273-.048c-1.332-.15-2.12.7-2.84,1.657.122-2.486.009-4.97-.059-7.454a.237.237,0,0,0,0-.169c-.02-.788-.036-1.577-.034-2.366.006-3.571.749-7.089.746-10.669a42.113,42.113,0,0,1,.167-4.44c.254-2.354,3.143-7.576,5.386-3.445.9,1.657.784,3.888.894,5.712.122,2,.259,3.992.375,5.99q.35,5.97.306,11.946C-62.79,300.5-63.059,303.337-63.008,303.379Z" fill="none" stroke="#000" stroke-width="1"/>
    <path id="Path_3576" data-name="Path 3576" d="M-58.474,299.483c.05.047.134-.022.084-.07l-.062-.059c.042.037.111-.023.073-.076-.259-.365-.57-.687-.862-1.025a.053.053,0,0,0-.081.069c.288.334.592.651.848,1.012a11.334,11.334,0,0,1-1.226-1.257c-.042-.056-.123.012-.083.068A13.266,13.266,0,0,0-58.474,299.483Z" transform="translate(-8.457 -9.582)" fill="none" stroke="#000" stroke-width="1"/>
    <path id="Path_3577" data-name="Path 3577" d="M-58.228,297.867c.044.053.128-.016.081-.069-.265-.318-.531-.636-.8-.952a.054.054,0,0,0-.081.07Q-58.63,297.392-58.228,297.867Z" transform="translate(-8.658 -9.255)" fill="none" stroke="#000" stroke-width="1"/>
    <path id="Path_3578" data-name="Path 3578" d="M-88.2,303.147c.016.161.093,1.7.443,1.42.053-.043-.016-.126-.071-.083a8.559,8.559,0,0,1-.265-1.356C-88.1,303.059-88.208,303.078-88.2,303.147Z" transform="translate(-0.879 -10.924)" fill="none" stroke="#000" stroke-width="1"/>
    <path id="Path_3579" data-name="Path 3579" d="M-87.087,304.156a7.58,7.58,0,0,0,.1,1.178c.007.069.114.048.106-.02a7.4,7.4,0,0,1-.1-1.15C-86.977,304.1-87.085,304.086-87.087,304.156Z" transform="translate(-1.175 -11.197)" fill="none" stroke="#000" stroke-width="1"/>
    <path id="Path_3580" data-name="Path 3580" d="M-71.167,314.911c.152.484.262.978.415,1.462.021.066.127.048.106-.018-.153-.484-.265-.978-.416-1.464C-71.083,314.827-71.189,314.845-71.167,314.911Z" transform="translate(-5.422 -14.063)" fill="none" stroke="#000" stroke-width="1"/>
  </g>
  <text id="Reporting_to" data-name="Reporting to" transform="translate(125 419.104)" font-size="18" font-family="SegoeUI-Bold, Segoe UI" font-weight="700"><tspan x="-53.974" y="0">Reporting to</tspan></text>
  <text id="_33_" data-name="33%" transform="translate(290 141.104)" fill="#ffeb00" font-size="18" font-family="SegoeUI, Segoe UI"><tspan x="-17.068" y="0">33%</tspan></text>
  <text id="_34_" data-name="34%" transform="translate(430 135.104)" fill="#ffeb00" font-size="18" font-family="SegoeUI, Segoe UI"><tspan x="-17.068" y="0">34%</tspan></text>
  <text id="_17_" data-name="17%" transform="translate(240 253.104)" font-size="18" font-family="SegoeUI, Segoe UI"><tspan x="-17.068" y="0">17%</tspan></text>
  <text id="_28_" data-name="28%" transform="translate(520 182.104)" font-size="18" font-family="SegoeUI, Segoe UI"><tspan x="-17.068" y="0">28%</tspan></text>
  <text id="_18_" data-name="18%" transform="translate(570 245.104)" fill="#ffeb00" font-size="18" font-family="SegoeUI, Segoe UI"><tspan x="-17.068" y="0">18%</tspan></text>
  <text id="_15_" data-name="15%" transform="translate(710 261.104)" fill="#ffeb00" font-size="18" font-family="SegoeUI, Segoe UI"><tspan x="-17.068" y="0">15%</tspan></text>
  <text id="_34_2" data-name="34%" transform="translate(380 135.104)" font-size="18" font-family="SegoeUI, Segoe UI"><tspan x="-17.068" y="0">34%</tspan></text>
  <text id="_21_" data-name="21%" transform="translate(660 222.104)" font-size="18" font-family="SegoeUI, Segoe UI"><tspan x="-17.068" y="0">21%</tspan></text>
  <text id="_2020" data-name="2020" transform="translate(842 105)" font-size="18" font-family="SegoeUI-Bold, Segoe UI" font-weight="700"><tspan x="-20.707" y="0">2020</tspan></text>
  <text id="_2021" data-name="2021" transform="translate(842 204)" font-size="18" font-family="SegoeUI-Bold, Segoe UI" font-weight="700"><tspan x="-20.707" y="0">2021</tspan></text>
  <rect id="Rectangle_568" data-name="Rectangle 568" width="44" height="50" transform="translate(820 31)" fill="#ffeb00"/>
  <rect id="Rectangle_569" data-name="Rectangle 569" width="44" height="50" transform="translate(820 130)"/>
  <g id="Group_535" data-name="Group 535" transform="translate(27.813 -11.612)">
    <path id="Path_3619" data-name="Path 3619" d="M375.592,381.429c-5.3,3.324-8.483,10.661-6.254,16.693a24.208,24.208,0,0,0,2.844,5.572,27.922,27.922,0,0,0,2.062,2.46,7.644,7.644,0,0,1,1.777,3.6,3.237,3.237,0,0,0,.612,1.32,1.556,1.556,0,0,0-.259,1.868c-.938,1.216-.521,1.957.485,2.409-1.552,2.323,1.705,2.808,4.679,2.827a4.188,4.188,0,0,0,.306,1.339c.3.6,1.1.661,1.69.652a4.759,4.759,0,0,0,2.188-.424,2.136,2.136,0,0,0,.728-1.737c1.708.04,4.3.17,5.159-.916a1.205,1.205,0,0,0-.206-1.752c.823-.445,1.145-1.141.471-2.221a1.552,1.552,0,0,0-.451-1.931,2.432,2.432,0,0,0,.324-.507c.385-.81.156-1.695.357-2.547.3-1.292,1.154-1.953,1.85-2.987a43.131,43.131,0,0,0,3.265-4.659c2.641-5.4,1.555-12.917-2.651-17.188C389.454,378.1,381.707,377.6,375.592,381.429Zm7.03,10.848a1.183,1.183,0,1,1,2.089.285,2.951,2.951,0,0,1-.958,2.18A3.182,3.182,0,0,1,382.622,392.277Zm1.043,3.869a7.984,7.984,0,0,0,2.53,1.415c-1.2,4.139-.919,9.146-.675,13.24-.518-.02-1.009-.041-1.422-.037-.655,0-1.342,0-2.034-.032-.043-1.777.124-8.618-.967-13.364A9.737,9.737,0,0,0,383.665,396.146Zm.433,16.063c1.741-.015,3.507-.1,5.241-.242a5.892,5.892,0,0,0,1.147-.174c1.06,1.075-2.037,1.3-2.785,1.331-1.18.047-2.362.021-3.541-.018-1.084-.036-2.171-.068-3.254-.135-.734-.046-4.587-.51-3.294-1.337.134.037.281.069.442.1A34.9,34.9,0,0,0,384.1,412.209Zm6.13,2.523-1.288.16c-.54.048-1.083.067-1.624.08-1.211.029-2.424-.013-3.634-.024-.978-.009-1.954-.024-2.931-.072-.276-.013-3.947-.126-3.518-1.221,1.568.745,4.44.44,5.8.492,2.307.088,5.312.525,7.584-.224Zm-5.3,4.157a4.568,4.568,0,0,1-1.39.191,1.48,1.48,0,0,1-.608-.047c-.158-.076-.035.025-.138-.151a2.083,2.083,0,0,1-.172-.722c1.241-.033,2.3-.121,2.748-.151C385.328,418.378,385.235,418.773,384.924,418.89Zm5.3-3.1a1.458,1.458,0,0,1-1.662.951l-1.673.1c-.948.054-1.9.112-2.844.154-.746.033-7.244.251-6.163-1.235a.584.584,0,0,0,.043-.074,29.022,29.022,0,0,0,5.757.349,29.73,29.73,0,0,0,6.5-.269C390.2,415.773,390.209,415.783,390.223,415.791Zm6.557-19.154a10.323,10.323,0,0,1-2.06,4.795c-1.013,1.33-2.047,2.69-2.959,4.09a7.178,7.178,0,0,0-1.052,2.223c-.276,1.132.163,2.182-1.37,2.777a7.847,7.847,0,0,1-2.734.31c-.243-4.139-.467-8.967.69-13.052,2.077.172,5.122-.743,4.589-3.2-.764-3.518-4.035-1.028-4.949.956-.139.3-.265.612-.384.928a6.865,6.865,0,0,1-1.152-.481,7.124,7.124,0,0,1-.839-.545c1.552-1.416,2.179-3.236.6-5.074-1.284-1.5-3.174-.48-3.583,1.382a4.194,4.194,0,0,0,1.323,3.684,7.25,7.25,0,0,1-2.067.924c-.815-2.79-2.179-4.523-4.469-3.367-1.331.672-1.165,2.531-.3,3.529a4.141,4.141,0,0,0,4.017,1.094,37.88,37.88,0,0,1,.509,5.92l.382,7.132a15.112,15.112,0,0,1-1.989-.291c-1.015-.226-1.223-.2-1.64-1.286a19.4,19.4,0,0,0-.6-2.2c-.88-1.7-2.681-2.928-3.739-4.551a18.932,18.932,0,0,1-2.767-6.04,12.993,12.993,0,0,1,2.165-9.582,14.306,14.306,0,0,1,11.37-6.359,12.448,12.448,0,0,1,11.062,5.533A14.115,14.115,0,0,1,396.78,396.637Zm-9.148.085c.021-.059.04-.121.061-.18a5.669,5.669,0,0,1,1.277-2.126q2.854-.985,1.078,1.805A2.857,2.857,0,0,1,387.632,396.722Zm-7.828-.166a4.9,4.9,0,0,1-.9.019c-.739-.058-3.177-.849-2.388-2.218,1.07-1.858,2.878.985,3.173,1.815C379.731,396.3,379.764,396.428,379.8,396.557Z" transform="translate(-6.536 -9.449)"/>
    <path id="Path_3620" data-name="Path 3620" d="M436.409,385.5a25.927,25.927,0,0,0-4.554,2.364c-.749.538-.028,1.792.729,1.248a25.953,25.953,0,0,1,4.554-2.365C437.985,386.367,437.251,385.121,436.409,385.5Z" transform="translate(-39.145 -12.823)"/>
    <path id="Path_3621" data-name="Path 3621" d="M418.61,372.687a33.649,33.649,0,0,0,2.74-4.378.723.723,0,0,0-1.248-.729,31.472,31.472,0,0,1-2.513,4.086C417.022,372.39,418.038,373.42,418.61,372.687Z" transform="translate(-31.829 -3.388)"/>
    <path id="Path_3622" data-name="Path 3622" d="M399.338,366.269q.169-2.439.156-4.883a.723.723,0,0,0-1.445,0q.013,2.445-.156,4.883C397.829,367.2,399.274,367.193,399.338,366.269Z" transform="translate(-21.707)"/>
    <path id="Path_3623" data-name="Path 3623" d="M376.654,372.321c.515.769,1.768.046,1.248-.729a23.388,23.388,0,0,1-2.707-4.553c-.326-.862-1.724-.488-1.394.384A24.774,24.774,0,0,0,376.654,372.321Z" transform="translate(-9.196 -3.038)"/>
    <path id="Path_3624" data-name="Path 3624" d="M361.482,387.415a20.675,20.675,0,0,0-4.609-2.541c-.863-.346-1.239,1.052-.384,1.394a19.275,19.275,0,0,1,4.265,2.4C361.5,389.214,362.224,387.961,361.482,387.415Z" transform="translate(0 -12.506)"/>
    <path id="Path_3625" data-name="Path 3625" d="M382.683,387.906a10.545,10.545,0,0,0-6.887,8.071c-.092.682.952.977,1.045.288a9.5,9.5,0,0,1,6.129-7.314A.543.543,0,0,0,382.683,387.906Z" transform="translate(-10.253 -14.093)"/>
    <path id="Path_3626" data-name="Path 3626" d="M388.531,391.789a4.3,4.3,0,0,0-2.633,1.675c-.422.545.34,1.318.766.766a3.442,3.442,0,0,1,2.154-1.4C389.507,392.738,389.214,391.693,388.531,391.789Z" transform="translate(-15.428 -16.115)"/>
  </g>
  <g id="Group_536" data-name="Group 536" transform="translate(45.08 -152.603)">
    <path id="Path_3627" data-name="Path 3627" d="M499.39,566.094c2.021.027,4.294.28,4.521-2.192.277-3.012.051-6.183.076-9.212.012-1.464.834-4.88-.995-5.573-1.041-.395-2.737-.2-3.859-.327a22.484,22.484,0,0,0-3.267-.1c-1.927.058-2.889.166-2.9,2.254-.013,2.948-.265,5.9-.238,8.845-.116,1.361-.341,4.09.421,5.249C494.291,566.771,497.763,566.072,499.39,566.094Zm-3.761-15.939a22.689,22.689,0,0,1,4.531.238c.641.062,1.975-.172,2.382.337.342.426-.009,2.74-.013,3.255q-.021,2.66-.047,5.321-.015,1.629-.025,3.258c-.012,1.806-.566,2.116-2.412,2.1-1.116-.01-3.432.4-4.77-.082a8.132,8.132,0,0,0,1.03-1.035c.447-.54-.325-1.321-.776-.776a7.588,7.588,0,0,1-1.131,1.1c-.012-.023-.028-.042-.039-.066a5.3,5.3,0,0,1-.257-1.743l1.823-1.578c.535-.463-.244-1.236-.776-.776l-1.016.88c.018-.3.039-.58.058-.8,0-.325.007-.649.014-.973.726-.693,1.48-1.354,2.268-1.977.553-.437-.227-1.209-.776-.776-.493.389-.97.8-1.438,1.213.021-.413.042-.827.067-1.241l2-1.637c.546-.448-.234-1.219-.776-.776l-1.141.935c.013-.245.028-.49.038-.736.008-.2.009-.392.007-.589l1.746-1.289c.562-.415.016-1.367-.553-.947l-1.21.893c0-.188.006-.375.02-.56C494.531,550.3,494.549,550.267,495.629,550.155Z" transform="translate(-4.451 -17.888)"/>
    <path id="Path_3628" data-name="Path 3628" d="M524.41,556.94c.719,1.653,2.984,1.276,4.423,1.239,1.493-.039,4.61.519,5.876-.453s.593-4.418.6-5.784q.024-4.9.046-9.8.012-2.386.024-4.772c0-.736.237-2.043-.208-2.718-.777-1.178-3.657-.781-4.858-.918-1.244-.141-4.278-.564-5.4.267-1.19.883-.525,4.105-.554,5.372-.08,3.407-.3,6.813-.258,10.222a32.574,32.574,0,0,0,.045,4.207A9.906,9.906,0,0,0,524.41,556.94Zm1.384-21.5c.681-1.011,4.5-.22,5.465-.111,1.09.123,2.251-.242,2.665.719.369.856-.016,2.9-.021,3.813q-.021,4.3-.041,8.609-.01,2.107-.02,4.213c0,.741.393,3.025-.037,3.649s-3.931.609-5.851.5l1.593-1.15c.567-.41.02-1.362-.554-.947l-2.6,1.879a1.133,1.133,0,0,1-.7-.846q1.585-1.2,3.1-2.488c.537-.46-.242-1.233-.776-.776-.781.669-1.583,1.313-2.395,1.943,0-.214,0-.432-.008-.651s-.023-.443-.034-.664a20.147,20.147,0,0,1,3.221-2.869c.57-.406.023-1.357-.554-.947a21.73,21.73,0,0,0-2.724,2.292q-.01-.573.006-1.15a24.948,24.948,0,0,1,2.749-2.558c.552-.44-.229-1.212-.776-.776a25.077,25.077,0,0,0-1.932,1.719q0-.869.014-1.737a14.8,14.8,0,0,1,2.584-2.152c.589-.384.04-1.334-.554-.947a16.221,16.221,0,0,0-1.993,1.54c.014-.453.03-.906.046-1.359a15.566,15.566,0,0,1,2.633-2.258c.582-.393.034-1.344-.553-.947a17.119,17.119,0,0,0-2.022,1.608c.008-.226.017-.451.025-.677.008-.241.015-.482.023-.723a11.784,11.784,0,0,1,2.394-2.24c.576-.4.028-1.351-.553-.947a13.143,13.143,0,0,0-1.791,1.5c.009-.353.013-.706.019-1.058a13.973,13.973,0,0,1,2.08-1.762c.578-.4.03-1.348-.553-.947a15.78,15.78,0,0,0-1.579,1.244A3.732,3.732,0,0,1,525.793,535.439Z" transform="translate(-20.567 -10.111)"/>
    <path id="Path_3629" data-name="Path 3629" d="M556.354,545.545c.094,1.177.235,1.9,1.409,2.355a12.21,12.21,0,0,0,3.9.325,10.646,10.646,0,0,0,4.6-.476c1.863-.829,1.1-3.942,1.111-5.692q.029-5.389.056-10.778.029-5.461.057-10.921c.008-1.545.8-5.38-1-6.062-1.251-.474-3.179-.292-4.539-.411a13.73,13.73,0,0,0-4.253.1c-1.943.532-1.18,3.321-1.191,4.92-.049,6.856-.387,13.721-.281,20.577A39.623,39.623,0,0,0,556.354,545.545Zm1.579-29.426c.277-1.154,2.354-.862,3.47-.811a16.484,16.484,0,0,1,4.024.354c.881.411.622,1.169.616,2.205q-.021,3.744-.039,7.488-.045,8.7-.09,17.407c0,.793.327,2.524,0,3.246-.535,1.168-3.208.786-4.244.755-.6-.018-1.3.042-1.95.006.224-.205.444-.414.65-.64.476-.52-.3-1.3-.776-.776a10.165,10.165,0,0,1-1.166,1.082,1.316,1.316,0,0,1-.3-.26c.517-.577,1.053-1.135,1.618-1.665.516-.484-.261-1.259-.776-.776-.432.406-.845.829-1.249,1.262q-.079-.5-.118-1.033l1.924-1.582c.546-.449-.235-1.221-.776-.776l-1.195.983c0-.223,0-.445.01-.667q1.457-1.082,2.869-2.225c.548-.445-.232-1.216-.776-.776-.667.541-1.346,1.067-2.031,1.586.022-.354.045-.7.07-1.03,0-.172,0-.346,0-.519a22.26,22.26,0,0,1,2.333-1.837c.58-.4.031-1.347-.554-.947-.618.422-1.208.881-1.784,1.357,0-.391-.006-.781,0-1.173.668-.508,1.336-1.016,1.989-1.545.548-.444-.232-1.216-.776-.776-.394.32-.8.623-1.2.935q.007-.655.018-1.31a19.266,19.266,0,0,1,2.314-1.887c.577-.4.029-1.349-.554-.947a21.347,21.347,0,0,0-1.738,1.354q.019-.966.042-1.931a19.656,19.656,0,0,1,1.638-1.379.566.566,0,0,0,.2-.751.552.552,0,0,0-.75-.2q-.537.4-1.051.831c.007-.3.012-.6.019-.906a24.683,24.683,0,0,1,2.582-1.722.549.549,0,0,0-.554-.947c-.689.4-1.353.836-2,1.3.009-.433.02-.867.027-1.3,0-.049,0-.1,0-.147l1.866-1.668c.528-.471-.251-1.245-.776-.776l-1.065.952q.014-.824.028-1.648a15.836,15.836,0,0,1,1.583-1.431.551.551,0,0,0,0-.776.562.562,0,0,0-.776,0c-.273.213-.533.441-.791.67q.009-.714.014-1.427c.713-.537,1.408-1.1,2.076-1.69.528-.469-.25-1.243-.776-.776-.431.383-.876.749-1.327,1.107A5.044,5.044,0,0,1,557.934,516.119Z" transform="translate(-37.023)"/>
    <path id="Path_3630" data-name="Path 3630" d="M531.215,550.27c-7.208.278-14.42.309-21.631.162-6.839-.14-13.682-.626-20.521-.507-.7.012-2.3.3-2.83-.034-.636-.4-.589-1.986-.619-2.6q-.113-2.295-.17-4.591c-.075-3.037-.071-6.074-.037-9.112.072-6.2.2-12.39.07-18.588a.732.732,0,0,0-1.463,0c.138,6.814-.04,13.621-.087,20.435-.022,3.241.008,6.482.13,9.72.074,1.948-.6,5.4,1.786,6.143a13.245,13.245,0,0,0,4.008.068c1.772-.035,3.527-.02,5.3.054,3.881.162,7.763.306,11.647.406,8.14.211,16.282.217,24.419-.1C532.153,551.7,532.157,550.233,531.215,550.27Z" transform="translate(0 -0.272)"/>
  </g>
  <g id="Group_534" data-name="Group 534" transform="matrix(0.788, 0.616, -0.616, 0.788, 1059.777, -190.061)">
    <path id="Path_3615" data-name="Path 3615" d="M76.873,655.3c-2.325-4.428-7.436-7.265-12.46-5.965-4.148.852-7.832,4.228-8.409,8.529a11.082,11.082,0,0,0,5.5,10.963,11.8,11.8,0,0,0,3.8,1.3,39.977,39.977,0,0,0,.414,4.26c-1.194.988-1.141,3.268-1.265,4.657a83.363,83.363,0,0,0,.08,9.157c.067,1.4-.043,3.572,1.249,4.5a5.5,5.5,0,0,0,4.642.159c1.493-.921,1.6-3.243,1.589-4.77a93.159,93.159,0,0,0-.485-9.4c-.174-1.567-.129-3.6-1.626-4.513-.131-1.367-.062-2.745-.167-4.113a11.876,11.876,0,0,0,5-2.193C78.849,664.731,79.181,659.691,76.873,655.3Zm-6.491,24.162a71.766,71.766,0,0,1,.406,9.406c-.064,1.183-.123,2.126-1.161,2.751a3.068,3.068,0,0,1-2.372.273c-.03-.008-.055-.019-.084-.028.123-.056.242-.12.369-.169a.47.47,0,0,0,.319-.562.46.46,0,0,0-.562-.319,9.083,9.083,0,0,0-1,.463,1.985,1.985,0,0,1-.283-.532q.874-.692,1.812-1.295c.493-.316.036-1.107-.461-.789-.533.342-1.046.712-1.549,1.094-.02-.216-.031-.436-.038-.656l1.841-1.268c.481-.331.025-1.123-.461-.788l-1.412.972c-.005-.216-.012-.433-.019-.649a14.343,14.343,0,0,1,1.792-1.454c.484-.328.027-1.119-.461-.788a15.856,15.856,0,0,0-1.375,1.049q-.022-.528-.043-1.057a17.327,17.327,0,0,1,1.821-1.23A.457.457,0,0,0,67,683.1c-.484.284-.946.6-1.4.924-.006-.2-.013-.393-.018-.59l1.757-1.206c.482-.33.026-1.122-.461-.789l-1.317.9c0-.2,0-.391,0-.586a.461.461,0,0,0,.117-.09,10.742,10.742,0,0,1,2-1.683c.491-.319.034-1.11-.461-.788a11.886,11.886,0,0,0-1.632,1.275c.009-.243.023-.485.038-.728A10.838,10.838,0,0,1,67.8,678.35c.529-.256.066-1.044-.461-.789a11.354,11.354,0,0,0-1.629.971c.017-.228.037-.462.061-.7a11.361,11.361,0,0,1,1.719-1c.532-.248.069-1.036-.461-.788a11.364,11.364,0,0,0-1.025.545,2.066,2.066,0,0,1,1.8-1.625C70.212,674.662,70.252,677.827,70.382,679.459Zm-1.732-5.693a4.78,4.78,0,0,0-1.789.082c-.187-1.18-.257-2.385-.331-3.579a12.772,12.772,0,0,0,2-.034C68.61,671.411,68.57,672.592,68.65,673.766Zm-.379-4.72a10.131,10.131,0,0,1-10.915-7.74,9.129,9.129,0,0,1,7.382-10.8c5.274-1.365,10.193,2.332,11.853,7.175C78.629,663.63,74.182,668.587,68.271,669.047Z"/>
    <path id="Path_3616" data-name="Path 3616" d="M69.819,654.538c-4.542.307-9.164,4.454-8.415,9.288.716,4.621,5.543,7.565,9.97,7.476,4.916-.1,8.2-3.432,7.513-8.454C78.266,658.314,74.5,654.4,69.819,654.538Zm7.252,13.368c-1.279,1.828-3.58,2.44-5.7,2.483-3.779.077-7.968-2.24-8.949-6.1-1.133-4.46,3.165-8.554,7.394-8.84,3.819-.11,6.919,2.737,7.921,6.342A7.551,7.551,0,0,1,77.071,667.906Z" transform="translate(-3.214 -3.28)"/>
    <path id="Path_3617" data-name="Path 3617" d="M68.9,661.409a6.683,6.683,0,0,0-3.58,5.424c0,.674.105,1.7.9,1.9a1.161,1.161,0,0,0,1.3-.877c.169-.509.107-1.071.256-1.59a5.149,5.149,0,0,1,1.14-1.938c.6-.674,1.6-1.033,2.124-1.718a1.125,1.125,0,0,0-.053-1.417C70.442,660.662,69.457,661.126,68.9,661.409Zm.308,1.4a7.316,7.316,0,0,0-1.826,2.094,5.393,5.393,0,0,0-.57,1.478,4.776,4.776,0,0,1-.078.5c-.149.444-.508,1.192-.5-.049a5.706,5.706,0,0,1,2.171-4.018c.2-.161,1.774-1.2,1.735-.65A6.723,6.723,0,0,1,69.205,662.812Z" transform="translate(-5.587 -7.092)"/>
    <path id="Path_3618" data-name="Path 3618" d="M81.95,659.025l-.019.01a.518.518,0,0,0-.09.037,1.323,1.323,0,0,0-.387,2.012,1.283,1.283,0,0,0,2.04-.16,1.359,1.359,0,0,0-.025-1.413A1.191,1.191,0,0,0,81.95,659.025Zm.7,1.483a.356.356,0,0,1-.373.084.4.4,0,0,1,0-.716c.165-.056.284-.065.378.052a.644.644,0,0,1,.112.429.1.1,0,0,1-.008.028A.632.632,0,0,1,82.653,660.508Zm.118-.167c0-.028,0-.021,0,0Z" transform="translate(-14.992 -5.89)"/>
  </g>
</svg>
