<svg xmlns="http://www.w3.org/2000/svg" width="448.84" height="259.884" viewBox="0 0 448.84 259.884">
  <g id="Group_479" data-name="Group 479" transform="translate(59.965 1.837)">
    <g id="Group_478" data-name="Group 478">
      <path id="Path_3567" data-name="Path 3567" d="M202.2,189.431,98.567,124.677C121.455,88.047,159,67.234,202.2,67.234Z" transform="translate(-98.567 -67.234)" fill="#fde900"/>
    </g>
  </g>
  <g id="Group_481" data-name="Group 481" transform="translate(42.188 70.183)">
    <g id="Group_480" data-name="Group 480">
      <path id="Path_3568" data-name="Path 3568" d="M210.53,172.25,90.577,195.567c-6.181-31.8-.844-60.6,16.323-88.071Z" transform="translate(-88.095 -107.496)" fill="#e6dbc3"/>
    </g>
  </g>
  <g id="Group_483" data-name="Group 483" transform="translate(48.065 137.663)">
    <g id="Group_482" data-name="Group 482">
      <path id="Path_3569" data-name="Path 3569" d="M211.51,147.248,234.827,267.2a122.2,122.2,0,0,1-143.27-96.636h0Z" transform="translate(-91.557 -147.248)" fill="#fff"/>
    </g>
  </g>
  <g id="Group_485" data-name="Group 485" transform="translate(166.681 4.921)">
    <g id="Group_484" data-name="Group 484">
      <path id="Path_3570" data-name="Path 3570" d="M161.432,191.25V69.051a122.2,122.2,0,0,1,122.2,122.2c0,59.388-40.585,108.62-98.883,119.953Z" transform="translate(-161.432 -69.051)" fill="#ec1e24"/>
    </g>
  </g>
  <g id="Group_495" data-name="Group 495" transform="translate(39.345 5.268)">
    <g id="Group_487" data-name="Group 487" transform="translate(0 61.556)">
      <g id="Group_486" data-name="Group 486">
        <path id="Path_3571" data-name="Path 3571" d="M208.855,170.271,88.9,193.588c-6.182-31.8-.844-60.6,16.322-88.071Z" transform="translate(-86.42 -105.517)" fill="none" stroke="#000" stroke-miterlimit="10" stroke-width="1"/>
      </g>
    </g>
    <g id="Group_494" data-name="Group 494" transform="translate(2.482)">
      <g id="Group_489" data-name="Group 489" transform="translate(15.295)">
        <g id="Group_488" data-name="Group 488">
          <path id="Path_3572" data-name="Path 3572" d="M200.521,191.452,96.892,126.7c22.888-36.629,60.437-57.443,103.629-57.443Z" transform="translate(-96.892 -69.255)" fill="none" stroke="#000" stroke-miterlimit="10" stroke-width="1"/>
        </g>
      </g>
      <g id="Group_491" data-name="Group 491" transform="translate(0 127.339)">
        <g id="Group_490" data-name="Group 490">
          <path id="Path_3573" data-name="Path 3573" d="M207.835,144.269,231.15,264.222A122.2,122.2,0,0,1,87.882,167.586h0Z" transform="translate(-87.882 -144.269)" fill="none" stroke="#000" stroke-miterlimit="10" stroke-width="1"/>
        </g>
      </g>
      <g id="Group_493" data-name="Group 493" transform="translate(122.009 3.084)">
        <g id="Group_492" data-name="Group 492">
          <path id="Path_3574" data-name="Path 3574" d="M159.756,193.271V71.072a122.2,122.2,0,0,1,122.2,122.2c0,59.388-40.583,108.62-98.881,119.953Z" transform="translate(-159.756 -71.072)" fill="none" stroke="#000" stroke-miterlimit="10" stroke-width="1"/>
        </g>
      </g>
    </g>
  </g>
  <g id="Group_229" data-name="Group 229" transform="translate(234.415 88.657)">
    <rect id="Rectangle_255-2" data-name="Rectangle 255-2" width="74.691" height="33.951" transform="translate(0 10.589) rotate(-8)"/>
    <g id="Group_496" data-name="Group 496" transform="translate(9.83)" style="isolation: isolate">
      <text id="_47_" data-name="47%" transform="translate(3.618 33.307) rotate(-8)" fill="#fff" font-size="26" font-family="SegoeUI, Segoe UI" letter-spacing="0.1em" style="isolation: isolate"><tspan x="0" y="0">47%</tspan></text>
    </g>
  </g>
  <g id="Group_229-2" data-name="Group 229" transform="translate(57.121 199.688)">
    <rect id="Rectangle_255-2-2" data-name="Rectangle 255-2" width="74.691" height="33.951" transform="translate(0 10.825) rotate(-8)"/>
    <g id="Group_497" data-name="Group 497" transform="translate(9.83)" style="isolation: isolate">
      <text id="_25_" data-name="25%" transform="translate(3.618 33.543) rotate(-8)" fill="#fff" font-size="26" font-family="SegoeUI, Segoe UI" letter-spacing="0.1em" style="isolation: isolate"><tspan x="0" y="0">25%</tspan></text>
    </g>
  </g>
  <g id="Group_229-3" data-name="Group 229" transform="translate(0 88.657)">
    <rect id="Rectangle_255-2-3" data-name="Rectangle 255-2" width="74.691" height="33.951" transform="translate(0 10.589) rotate(-8)"/>
    <g id="Group_498" data-name="Group 498" transform="translate(9.83)" style="isolation: isolate">
      <text id="_12_" data-name="12%" transform="translate(3.618 33.307) rotate(-8)" fill="#fff" font-size="26" font-family="SegoeUI, Segoe UI" letter-spacing="0.1em" style="isolation: isolate"><tspan x="0" y="0">12%</tspan></text>
    </g>
  </g>
  <g id="Group_229-4" data-name="Group 229" transform="translate(61.218 2.269)">
    <rect id="Rectangle_255-2-4" data-name="Rectangle 255-2" width="74.691" height="33.951" transform="translate(0 10.395) rotate(-8)"/>
    <g id="Group_499" data-name="Group 499" transform="translate(9.83 0.042)" style="isolation: isolate">
      <text id="_16_" data-name="16%" transform="translate(3.618 33.071) rotate(-8)" fill="#fff" font-size="26" font-family="SegoeUI, Segoe UI" letter-spacing="0.1em" style="isolation: isolate"><tspan x="0" y="0">16%</tspan></text>
    </g>
  </g>
  <g id="Group_501" data-name="Group 501" transform="translate(332 42.344)">
    <g id="_0-50" data-name=" 0-50" transform="translate(29.537)" style="isolation: isolate">
      <text id="Sales" transform="translate(0 30)" fill="#1a1717" font-size="23" font-family="SegoeUI-Bold, Segoe UI" font-weight="700" style="isolation: isolate"><tspan x="0" y="0">Sales</tspan></text>
    </g>
    <path id="Path_3472" data-name="Path 3472" d="M156.078,254.232c.188,0,1.7.188,1.884.188a9.142,9.142,0,0,0,2.638-.509,11.618,11.618,0,0,0,2.764-2c.188-.188.188-.509.251-.628.126-.509.188-1.068.314-1.382A6.577,6.577,0,0,0,165,247.391c0-.188.126-.377.126-.565a21.073,21.073,0,0,0-.565-4.334,7.239,7.239,0,0,0-1.124-1.947c-.754-1-1.884-2.135-2.7-3.14-.063,0-.126-.188-.314-.188s-.817.188-1.188.251l-2.524-.38c-.44.063-1.068.188-1.319.188a8.477,8.477,0,0,0-5.716,3.332c-.188.251-.509.509-.565.628-.44.816-.879,1.7-1.256,2.575a1.863,1.863,0,0,0-.126.817,10.291,10.291,0,0,1-.188,2.886,2.315,2.315,0,0,0,.314,1.068,6.214,6.214,0,0,1,.691.628c.314.565.314,1.188.565,1.57a7.206,7.206,0,0,0,1.319,1.445c.509.377,1.131.509,1.633.817.314.251.628.754.817.817a5.664,5.664,0,0,0,1.131.375Z" transform="translate(-147.536 -224.359)" fill="#ec1e24" stroke="#000" stroke-width="1"/>
    <g id="Group_301" data-name="Group 301" transform="translate(0 44.136)">
      <path id="Path_3473" data-name="Path 3473" d="M156.078,280.232c.188,0,1.7.188,1.884.188a9.14,9.14,0,0,0,2.638-.509,11.619,11.619,0,0,0,2.764-2c.188-.188.188-.509.251-.628.126-.509.188-1.068.314-1.382A6.577,6.577,0,0,0,165,273.391c0-.188.126-.377.126-.565a21.072,21.072,0,0,0-.565-4.334,7.24,7.24,0,0,0-1.124-1.947c-.754-1-1.884-2.135-2.7-3.14-.063,0-.126-.188-.314-.188s-.817.188-1.188.251l-2.524-.38c-.44.063-1.068.188-1.319.188a8.477,8.477,0,0,0-5.716,3.332c-.188.251-.509.509-.565.628-.44.816-.879,1.7-1.256,2.575a1.863,1.863,0,0,0-.126.816,10.291,10.291,0,0,1-.188,2.886,2.316,2.316,0,0,0,.314,1.068,6.217,6.217,0,0,1,.691.628c.314.565.314,1.188.565,1.57a7.206,7.206,0,0,0,1.319,1.445c.509.377,1.131.509,1.633.816.314.251.628.754.817.817a5.666,5.666,0,0,0,1.131.375Z" transform="translate(-147.536 -250.359)" fill="#fff" stroke="#000" stroke-width="1"/>
      <g id="_51-200" data-name=" 51-200" transform="translate(29.537)" style="isolation: isolate">
        <text id="Success" transform="translate(0 30)" fill="#1a1717" font-size="23" font-family="SegoeUI-Bold, Segoe UI" font-weight="700" style="isolation: isolate"><tspan x="0" y="0">Success</tspan></text>
      </g>
    </g>
    <g id="Group_300" data-name="Group 300" transform="translate(0 88.272)">
      <path id="Path_3474" data-name="Path 3474" d="M156.078,306.232c.188,0,1.7.188,1.884.188a9.139,9.139,0,0,0,2.638-.509,11.619,11.619,0,0,0,2.764-2c.188-.188.188-.509.251-.628.126-.509.188-1.068.314-1.382A6.577,6.577,0,0,0,165,299.391c0-.188.126-.377.126-.565a21.072,21.072,0,0,0-.565-4.334,7.241,7.241,0,0,0-1.124-1.947c-.754-1-1.884-2.135-2.7-3.14-.063,0-.126-.188-.314-.188s-.817.188-1.188.251l-2.524-.38c-.44.063-1.068.188-1.319.188a8.477,8.477,0,0,0-5.716,3.332c-.188.251-.509.509-.565.628-.44.817-.879,1.7-1.256,2.575a1.863,1.863,0,0,0-.126.816,10.291,10.291,0,0,1-.188,2.886,2.316,2.316,0,0,0,.314,1.068,6.218,6.218,0,0,1,.691.628c.314.565.314,1.188.565,1.57a7.207,7.207,0,0,0,1.319,1.445c.509.377,1.131.509,1.633.816.314.251.628.754.817.817a5.665,5.665,0,0,0,1.131.375Z" transform="translate(-147.536 -276.359)" fill="#e6dbc3" stroke="#000" stroke-width="1"/>
      <g id="_201-1000" data-name=" 201-1000" transform="translate(27.84)" style="isolation: isolate">
        <text id="Support" transform="translate(0 30)" fill="#1a1717" font-size="23" font-family="SegoeUI-Bold, Segoe UI" font-weight="700" style="isolation: isolate"><tspan x="0" y="0">Support</tspan></text>
      </g>
    </g>
    <g id="Group_299" data-name="Group 299" transform="translate(0 132.408)">
      <path id="Path_3476" data-name="Path 3476" d="M156.078,332.232c.188,0,1.7.188,1.884.188a9.139,9.139,0,0,0,2.638-.509,11.618,11.618,0,0,0,2.764-2c.188-.188.188-.509.251-.628.126-.509.188-1.068.314-1.382A6.577,6.577,0,0,0,165,325.391c0-.188.126-.377.126-.565a21.072,21.072,0,0,0-.565-4.334,7.239,7.239,0,0,0-1.124-1.947c-.754-1-1.884-2.135-2.7-3.14-.063,0-.126-.188-.314-.188s-.817.188-1.188.251l-2.524-.38c-.44.063-1.068.188-1.319.188a8.477,8.477,0,0,0-5.716,3.332c-.188.251-.509.509-.565.628-.44.816-.879,1.7-1.256,2.575a1.863,1.863,0,0,0-.126.817,10.291,10.291,0,0,1-.188,2.886,2.316,2.316,0,0,0,.314,1.068,6.223,6.223,0,0,1,.691.628c.314.565.314,1.188.565,1.57a7.205,7.205,0,0,0,1.319,1.445c.509.377,1.131.509,1.633.817.314.251.628.754.817.817a5.668,5.668,0,0,0,1.131.375Z" transform="translate(-147.536 -302.359)" fill="#fde900" stroke="#000" stroke-width="1"/>
      <g id="Group_500" data-name="Group 500" transform="translate(27.84)" style="isolation: isolate">
        <text id="Other" transform="translate(0 30)" fill="#1a1717" font-size="23" font-family="SegoeUI-Bold, Segoe UI" font-weight="700" style="isolation: isolate"><tspan x="0" y="0">Other</tspan></text>
      </g>
    </g>
  </g>
</svg>
