<svg xmlns="http://www.w3.org/2000/svg" width="415.948" height="477.602" viewBox="0 0 415.948 477.602">
  <g id="Group_347" data-name="Group 347" transform="translate(24.779 4)">
    <g id="Group_346" data-name="Group 346">
      <path id="Path_3539" data-name="Path 3539" d="M1703.973,1082.377l102.175,152.013c-83.66,56.628-197.226,34.475-253.656-49.479s-34.355-197.919,49.306-254.546c31.038-21.009,64.736-31.348,102.174-31.348Z" transform="translate(-1521.235 -899.017)" fill="#ffeb00"/>
    </g>
  </g>
  <g id="Group_349" data-name="Group 349" transform="translate(207.158 4)">
    <g id="Group_348" data-name="Group 348">
      <path id="Path_3540" data-name="Path 3540" d="M1704.614,1082.377V899.017a183.361,183.361,0,0,1,183.361,183.36c0,63.6-28.1,116.45-80.827,152.013Z" transform="translate(-1704.614 -899.017)" fill="#f60600"/>
    </g>
  </g>
  <g id="Group_359" data-name="Group 359" transform="translate(-925.221 -8632)">
    <g id="Group_268" data-name="Group 268" transform="translate(1025.377 9026.973)">
      <text id="Dev-Focused" transform="translate(30.536 31)" fill="#1a1818" font-size="24" font-family="SegoeUI-Bold, Segoe UI" font-weight="700"><tspan x="0" y="0">Dev-Focused</tspan></text>
      <path id="Path_3472" data-name="Path 3472" d="M10.866,8.329c.195,0,1.753.195,1.948.195A9.525,9.525,0,0,0,15.541,8,12.047,12.047,0,0,0,18.4,5.926c.195-.195.195-.519.26-.649.13-.519.195-1.1.325-1.429a6.8,6.8,0,0,0,1.1-2.6c0-.195.13-.39.13-.584a21.851,21.851,0,0,0-.584-4.48,7.466,7.466,0,0,0-1.169-2.013c-.779-1.039-1.948-2.208-2.792-3.247-.065,0-.13-.195-.325-.195s-.844.195-1.234.26l-2.6-.39c-.455.065-1.1.195-1.364.195A8.76,8.76,0,0,0,4.243-5.762c-.195.26-.519.519-.584.649-.455.844-.909,1.753-1.3,2.662a1.918,1.918,0,0,0-.13.844C2.49-.567,2.035.667,2.035,1.381a2.393,2.393,0,0,0,.325,1.1,6.466,6.466,0,0,1,.714.649c.325.584.325,1.234.584,1.623A7.465,7.465,0,0,0,5.022,6.251c.519.39,1.169.519,1.688.844.325.26.649.779.844.844a5.865,5.865,0,0,0,1.169.39Z" transform="translate(-2.035 22.56)" fill="#ffeb00" stroke="#000" stroke-width="1"/>
    </g>
    <g id="Group_267" data-name="Group 267" transform="translate(1025.377 9072.602)">
      <path id="Path_3473" data-name="Path 3473" d="M10.866,8.329c.195,0,1.753.195,1.948.195A9.525,9.525,0,0,0,15.541,8,12.047,12.047,0,0,0,18.4,5.926c.195-.195.195-.519.26-.649.13-.519.195-1.1.325-1.429a6.8,6.8,0,0,0,1.1-2.6c0-.195.13-.39.13-.584a21.851,21.851,0,0,0-.584-4.48,7.466,7.466,0,0,0-1.169-2.013c-.779-1.039-1.948-2.208-2.792-3.247-.065,0-.13-.195-.325-.195s-.844.195-1.234.26l-2.6-.39c-.455.065-1.1.195-1.364.195A8.76,8.76,0,0,0,4.243-5.762c-.195.26-.519.519-.584.649-.455.844-.909,1.753-1.3,2.662a1.918,1.918,0,0,0-.13.844C2.49-.567,2.035.667,2.035,1.381a2.393,2.393,0,0,0,.325,1.1,6.466,6.466,0,0,1,.714.649c.325.584.325,1.234.584,1.623A7.465,7.465,0,0,0,5.022,6.251c.519.39,1.169.519,1.688.844.325.26.649.779.844.844a5.865,5.865,0,0,0,1.169.39Z" transform="translate(-2.035 22.56)" fill="red" stroke="#000" stroke-width="1"/>
      <text id="SaaS" transform="translate(30.536 31)" fill="#1a1818" font-size="24" font-family="SegoeUI-Bold, Segoe UI" font-weight="700"><tspan x="0" y="0">SaaS</tspan></text>
    </g>
  </g>
  <g id="Group_360" data-name="Group 360" transform="translate(-927.221 -8633)">
    <g id="Group_356" data-name="Group 356" transform="translate(948 8634)">
      <g id="Group_346-2" data-name="Group 346">
        <path id="Path_3539-2" data-name="Path 3539" d="M1703.973,1082.377l102.175,152.013c-83.66,56.628-197.226,34.475-253.656-49.479s-34.355-197.919,49.306-254.546c31.038-21.009,64.736-31.348,102.174-31.348Z" transform="translate(-1521.235 -899.017)" fill="none" stroke="#000" stroke-width="2"/>
      </g>
    </g>
    <g id="Group_357" data-name="Group 357" transform="translate(1130.379 8634)">
      <g id="Group_348-2" data-name="Group 348">
        <path id="Path_3540-2" data-name="Path 3540" d="M1704.614,1082.377V899.017a183.361,183.361,0,0,1,183.361,183.36c0,63.6-28.1,116.45-80.827,152.013Z" transform="translate(-1704.614 -899.017)" fill="none" stroke="#000" stroke-width="2"/>
      </g>
    </g>
  </g>
  <g id="Group_358" data-name="Group 358" transform="translate(-3.233 202.389) rotate(-8)">
    <rect id="Rectangle_255" data-name="Rectangle 255" width="122" height="49" transform="translate(4.53 -9)"/>
    <text id="_67_" data-name="67%" transform="translate(10.53 27)" fill="#fff" font-size="48" font-family="SegoeUI, Segoe UI" letter-spacing="0.1em"><tspan x="0" y="0">67%</tspan></text>
  </g>
  <g id="Group_361" data-name="Group 361" transform="translate(285.083 145.52) rotate(-8)">
    <rect id="Rectangle_255-2" data-name="Rectangle 255" width="122" height="49" transform="translate(4.53 -9)"/>
    <text id="_46_" data-name="46%" transform="translate(10.53 27)" fill="#fff" font-size="48" font-family="SegoeUI, Segoe UI" letter-spacing="0.1em"><tspan x="0" y="0">46%</tspan></text>
  </g>
</svg>
