<svg id="Group_525" data-name="Group 525" xmlns="http://www.w3.org/2000/svg" width="26.152" height="26.152" viewBox="0 0 26.152 26.152">
  <g id="Group_524" data-name="Group 524" transform="translate(6.842 6.842)">
    <path id="Path_3612" data-name="Path 3612" d="M94.5,79.469a1.308,1.308,0,0,1-1.385,1.386,1.332,1.332,0,0,1-1.386-1.316,1.4,1.4,0,0,1,1.386-1.455A1.347,1.347,0,0,1,94.5,79.469Z" transform="translate(-91.73 -78.084)"/>
    <rect id="Rectangle_597" data-name="Rectangle 597" width="2.771" height="9.005" transform="translate(0 3.463)"/>
    <path id="Path_3613" data-name="Path 3613" d="M108.26,87.952a3.034,3.034,0,0,0-2.632,1.385h-.069l-.138-1.177h-2.494c0,.762.069,1.663.069,2.7v5.957h2.77V91.9a2.134,2.134,0,0,1,.069-.693,1.49,1.49,0,0,1,1.316-1.108c.97,0,1.385.831,1.385,1.939v4.779h2.771V91.692C111.308,89.129,109.992,87.952,108.26,87.952Z" transform="translate(-98.84 -84.35)"/>
  </g>
  <path id="Path_3614" data-name="Path 3614" d="M93.8,85.491H78.319a5.34,5.34,0,0,1-5.334-5.333V64.673a5.34,5.34,0,0,1,5.334-5.334H93.8a5.34,5.34,0,0,1,5.334,5.334V80.157A5.34,5.34,0,0,1,93.8,85.491ZM78.319,60.8a3.878,3.878,0,0,0-3.874,3.874V80.157a3.878,3.878,0,0,0,3.874,3.873H93.8a3.878,3.878,0,0,0,3.874-3.873V64.673A3.878,3.878,0,0,0,93.8,60.8Z" transform="translate(-72.985 -59.339)"/>
</svg>
