<svg xmlns="http://www.w3.org/2000/svg" width="94.916" height="132.429" viewBox="0 0 94.916 132.429">
  <g id="Group_158" data-name="Group 158">
    <path id="Path_2792" data-name="Path 2792" d="M834.966,654.825c.424-.045.7.06.649.487a.6.6,0,0,1-.812,0A.765.765,0,0,0,834.966,654.825Z" transform="translate(-741.349 -654.816)" fill="red" fill-rule="evenodd"/>
    <path id="Path_2793" data-name="Path 2793" d="M798.241,667.549a.587.587,0,0,1,.488.975C798,668.746,797.939,667.87,798.241,667.549Z" transform="translate(-729.489 -658.927)" fill="red" fill-rule="evenodd"/>
    <path id="Path_2794" data-name="Path 2794" d="M769.043,670.9c.339-.068.43.112.649.162.05.375-.469.181-.488.488C768.985,671.5,769.071,671.147,769.043,670.9Z" transform="translate(-720.117 -660.005)" fill="red" fill-rule="evenodd"/>
    <path id="Path_2795" data-name="Path 2795" d="M754.286,671.63c.322.112.433.434.488.813C754.026,672.487,753.833,671.971,754.286,671.63Z" transform="translate(-715.273 -660.245)" fill="red" fill-rule="evenodd"/>
    <path id="Path_2796" data-name="Path 2796" d="M805.924,673.55h.325c-.03.139.064.153.163.163v.326c-.139-.03-.154.063-.163.163h-.325c.03-.139-.064-.154-.162-.163v-.326C805.9,673.743,805.915,673.649,805.924,673.55Z" transform="translate(-731.973 -660.865)" fill="red" fill-rule="evenodd"/>
    <path id="Path_2797" data-name="Path 2797" d="M756.666,680.771c-.258.014-.62-.078-.651.162C755.448,680.607,756.8,679.811,756.666,680.771Z" transform="translate(-715.865 -663.048)" fill="red" fill-rule="evenodd"/>
    <path id="Path_2798" data-name="Path 2798" d="M806.482,681.926c1.291-.37.391,1.45,1.463,1.3a1.38,1.38,0,0,1-.163.975C807.091,683.7,806.9,682.7,806.482,681.926Z" transform="translate(-732.205 -663.553)" fill="red" fill-rule="evenodd"/>
    <path id="Path_2799" data-name="Path 2799" d="M782.976,682.837v.488a.8.8,0,0,1-.975,0A.586.586,0,0,1,782.976,682.837Z" transform="translate(-724.3 -663.814)" fill="red" fill-rule="evenodd"/>
    <path id="Path_2800" data-name="Path 2800" d="M762.8,683.15h1.3c-.083.513-.742.45-1.138.65A.9.9,0,0,1,762.8,683.15Z" transform="translate(-718.101 -663.964)" fill="red" fill-rule="evenodd"/>
    <path id="Path_2801" data-name="Path 2801" d="M718.594,684.372c-.19-.026-.29.036-.326.162C717.48,684.207,718.6,683.412,718.594,684.372Z" transform="translate(-703.631 -664.211)" fill="red" fill-rule="evenodd"/>
    <path id="Path_2802" data-name="Path 2802" d="M738.653,684.516a.758.758,0,0,0-.163.487c-.425.046-.7-.059-.651-.487A.605.605,0,0,1,738.653,684.516Z" transform="translate(-710.039 -664.355)" fill="red" fill-rule="evenodd"/>
    <path id="Path_2803" data-name="Path 2803" d="M781.829,684.83c.375.221.907.285.813.976-.432,0-.928.06-1.138-.163C781.365,685.125,781.646,685.026,781.829,684.83Z" transform="translate(-724.128 -664.507)" fill="red" fill-rule="evenodd"/>
    <path id="Path_2804" data-name="Path 2804" d="M759.594,685.309c.047.806-.794.723-1.138,1.138C758.214,686,758.842,685.274,759.594,685.309Z" transform="translate(-716.681 -664.661)" fill="red" fill-rule="evenodd"/>
    <path id="Path_2805" data-name="Path 2805" d="M812.482,685.7c.19-.435.863-.014.65.488C812.5,686.448,812.8,685.77,812.482,685.7Z" transform="translate(-734.142 -664.73)" fill="red" fill-rule="evenodd"/>
    <path id="Path_2806" data-name="Path 2806" d="M753.683,686.03h.65v.65A.609.609,0,0,1,753.683,686.03Z" transform="translate(-715.157 -664.894)" fill="red" fill-rule="evenodd"/>
    <path id="Path_2807" data-name="Path 2807" d="M775.28,686.75c.678-.018.886.318.65.813C775.473,687.532,775.238,687.279,775.28,686.75Z" transform="translate(-722.129 -665.126)" fill="red" fill-rule="evenodd"/>
    <path id="Path_2808" data-name="Path 2808" d="M778.772,687.22c.443-.118.326.323.649.325-.144.505-.167,1.133-.812,1.138C778.707,687.881,778.3,687.581,778.772,687.22Z" transform="translate(-723.182 -665.272)" fill="red" fill-rule="evenodd"/>
    <path id="Path_2809" data-name="Path 2809" d="M775.437,688.19c.781.367.095,1.882-.325,2.113-.555.122-.206-.66-.812-.487-.211-.4.362-.789,0-.813C774.558,688.611,775.737,689.14,775.437,688.19Z" transform="translate(-721.798 -665.592)" fill="red" fill-rule="evenodd"/>
    <path id="Path_2810" data-name="Path 2810" d="M784.658,689.519a1.381,1.381,0,0,1-.975-.163C783.724,688.551,784.8,688.583,784.658,689.519Z" transform="translate(-724.844 -665.783)" fill="red" fill-rule="evenodd"/>
    <path id="Path_2811" data-name="Path 2811" d="M779.842,689.132c.777-.236.4.679.488,1.138C779.8,690.257,779.984,689.533,779.842,689.132Z" transform="translate(-723.603 -665.884)" fill="red" fill-rule="evenodd"/>
    <path id="Path_2812" data-name="Path 2812" d="M760.728,689.622a1.059,1.059,0,0,1,.812.162.735.735,0,0,0-.162.975,3.627,3.627,0,0,1-.975.325A2.6,2.6,0,0,0,760.728,689.622Z" transform="translate(-717.326 -666.049)" fill="red" fill-rule="evenodd"/>
    <path id="Path_2813" data-name="Path 2813" d="M782.2,690.044c0,.758-.2,1.32-.976,1.3C780.842,690.829,781.5,689.473,782.2,690.044Z" transform="translate(-724.014 -666.146)" fill="red" fill-rule="evenodd"/>
    <path id="Path_2814" data-name="Path 2814" d="M790.577,690.519c-.439.4-1.224.419-1.138-.488C789.838,689.681,790.641,689.91,790.577,690.519Z" transform="translate(-726.7 -666.133)" fill="red" fill-rule="evenodd"/>
    <path id="Path_2815" data-name="Path 2815" d="M827.643,689.857c.307.6.09,1.3-.649,1.3A.742.742,0,0,1,827.643,689.857Z" transform="translate(-738.741 -666.121)" fill="red" fill-rule="evenodd"/>
    <path id="Path_2816" data-name="Path 2816" d="M756.71,690.1c.5-.117.477.28.974.163-.238.465-.8.609-.974,1.137C756.374,691.26,756.538,690.269,756.71,690.1Z" transform="translate(-716.071 -666.201)" fill="red" fill-rule="evenodd"/>
    <path id="Path_2817" data-name="Path 2817" d="M807.437,690.107c.428-.049.534.225.487.65C807.5,690.807,807.392,690.532,807.437,690.107Z" transform="translate(-732.51 -666.209)" fill="red" fill-rule="evenodd"/>
    <path id="Path_2818" data-name="Path 2818" d="M771.442,690.511c.238-.434.892.067.813.487C771.917,690.9,771.73,690.657,771.442,690.511Z" transform="translate(-720.891 -666.287)" fill="red" fill-rule="evenodd"/>
    <path id="Path_2819" data-name="Path 2819" d="M773.517,690.351c.458-.011.3.834-.163.812A1.053,1.053,0,0,1,773.517,690.351Z" transform="translate(-721.503 -666.289)" fill="red" fill-rule="evenodd"/>
    <path id="Path_2820" data-name="Path 2820" d="M762.8,690.83c.284.149.564.3.487.813-.362.07-.881.374-.975-.163C762.17,690.958,762.848,691.258,762.8,690.83Z" transform="translate(-717.937 -666.444)" fill="red" fill-rule="evenodd"/>
    <path id="Path_2821" data-name="Path 2821" d="M745.049,691.056c.244.838-1.165,1.2-.975.162C744.457,691.222,744.552,690.939,745.049,691.056Z" transform="translate(-712.048 -666.508)" fill="red" fill-rule="evenodd"/>
    <path id="Path_2822" data-name="Path 2822" d="M753.837,691.069v.487c-.288-.037-.813.164-.65-.325A.914.914,0,0,1,753.837,691.069Z" transform="translate(-714.987 -666.521)" fill="red" fill-rule="evenodd"/>
    <path id="Path_2823" data-name="Path 2823" d="M777.68,691.07c.7.184.9.716,1.462.65-.089.506-.942.249-1.3.487C777.618,692,777.681,691.5,777.68,691.07Z" transform="translate(-722.903 -666.522)" fill="red" fill-rule="evenodd"/>
    <path id="Path_2824" data-name="Path 2824" d="M824.653,691.068a.9.9,0,0,0-.162.65c-.263.046-.28-.153-.488-.163v-.325C824.294,691.252,824.345,691.032,824.653,691.068Z" transform="translate(-737.862 -666.52)" fill="red" fill-rule="evenodd"/>
    <path id="Path_2825" data-name="Path 2825" d="M755.2,692.27c-.452.763.123,1.214.162,1.949-.689-.177-1.112-.621-.975-1.625C754.7,692.525,754.8,692.245,755.2,692.27Z" transform="translate(-715.377 -666.909)" fill="red" fill-rule="evenodd"/>
    <path id="Path_2826" data-name="Path 2826" d="M750.183,692.511c1.346.219,1.2,1.226,1.3,2.437a2.532,2.532,0,0,1-1.3-.974c-.647,0-.469.831-1.3.649.169-.914,1.215-.951,2.112-1.138-.173-.643-.493.041-.975,0A.734.734,0,0,1,750.183,692.511Z" transform="translate(-713.607 -666.987)" fill="red" fill-rule="evenodd"/>
    <path id="Path_2827" data-name="Path 2827" d="M801.907,692.511h1.138c.14.518-.255.5-.324.812.394.7,1.27.416,1.949.163.112.653-.156.928-.162,1.463-.76-.448-1.112.225-1.949.163C803.239,694.125,801.635,694.008,801.907,692.511Z" transform="translate(-730.718 -666.987)" fill="red" fill-rule="evenodd"/>
    <path id="Path_2828" data-name="Path 2828" d="M747.355,692.75c.4.192,1.02.173.813.975a.936.936,0,0,0-1.138.487c-.5-.13-1.037-.794-.812-1.138.523-.143.223.536.65.488C747.188,693.45,747.3,693.129,747.355,692.75Z" transform="translate(-712.729 -667.064)" fill="red" fill-rule="evenodd"/>
    <path id="Path_2829" data-name="Path 2829" d="M779.307,692.99c.686.02.515.894,1.138.976-.3.24-.244.84-.813.812C779.606,694.134,778.927,693.529,779.307,692.99Z" transform="translate(-723.393 -667.142)" fill="red" fill-rule="evenodd"/>
    <path id="Path_2830" data-name="Path 2830" d="M828.385,692.99c.221.05.135.407.163.65h-.488C827.875,693.129,828.316,693.245,828.385,692.99Z" transform="translate(-739.158 -667.142)" fill="red" fill-rule="evenodd"/>
    <path id="Path_2831" data-name="Path 2831" d="M742.658,693.81c.114.7-.846.529-.975.162C741.667,693.374,742.5,693.412,742.658,693.81Z" transform="translate(-711.282 -667.312)" fill="red" fill-rule="evenodd"/>
    <path id="Path_2832" data-name="Path 2832" d="M724.051,693.948c-.134.459.229.421.163.813a1.058,1.058,0,0,1-.813.163C723.206,694.467,723.308,693.887,724.051,693.948Z" transform="translate(-705.351 -667.449)" fill="red" fill-rule="evenodd"/>
    <path id="Path_2833" data-name="Path 2833" d="M745.475,694.879a.7.7,0,0,0,.65,1.138c-.456.362-2.406-.069-2.763-.488C744.556,695.8,744.189,694.515,745.475,694.879Z" transform="translate(-711.824 -667.73)" fill="red" fill-rule="evenodd"/>
    <path id="Path_2834" data-name="Path 2834" d="M794.963,694.91c.3.634,1.11-.253,1.138.65C795.5,695.564,794.981,695.488,794.963,694.91Z" transform="translate(-728.486 -667.762)" fill="red" fill-rule="evenodd"/>
    <path id="Path_2835" data-name="Path 2835" d="M807.287,695.623c.339-.069.431.112.65.163-.081.427-.527.916-.974.488C806.964,695.95,807.406,696.066,807.287,695.623Z" transform="translate(-732.36 -667.987)" fill="red" fill-rule="evenodd"/>
    <path id="Path_2836" data-name="Path 2836" d="M750.9,696.11a5.268,5.268,0,0,0,.488,1.788c-1.073.548-.471-1.592-1.788-1.3A3.542,3.542,0,0,1,750.9,696.11Z" transform="translate(-713.839 -668.149)" fill="red" fill-rule="evenodd"/>
    <path id="Path_2837" data-name="Path 2837" d="M748.5,697.252c-.519.14-.5-.255-.813-.325C747.8,696.325,748.56,696.731,748.5,697.252Z" transform="translate(-713.22 -668.316)" fill="red" fill-rule="evenodd"/>
    <path id="Path_2838" data-name="Path 2838" d="M802.247,697.07c.356.024.349.41.326.813a.611.611,0,0,1-.651-.651C802.111,697.259,802.212,697.2,802.247,697.07Z" transform="translate(-730.733 -668.459)" fill="red" fill-rule="evenodd"/>
    <path id="Path_2839" data-name="Path 2839" d="M742.9,697.79c-.2.4-.33.862-.975.813C741.973,698.057,742.466,697.955,742.9,697.79Z" transform="translate(-711.359 -668.691)" fill="red" fill-rule="evenodd"/>
    <path id="Path_2840" data-name="Path 2840" d="M723.683,698.03h.65c-.022.292.2.343.163.65C723.965,698.723,723.713,698.487,723.683,698.03Z" transform="translate(-705.47 -668.769)" fill="red" fill-rule="evenodd"/>
    <path id="Path_2841" data-name="Path 2841" d="M819.937,698.382c0,.445-.767.385-.974.162C819.126,698.008,819.619,697.991,819.937,698.382Z" transform="translate(-736.235 -668.795)" fill="red" fill-rule="evenodd"/>
    <path id="Path_2842" data-name="Path 2842" d="M799.542,698.5a1.21,1.21,0,0,1-1.463.974C798.009,698.595,798.65,698.422,799.542,698.5Z" transform="translate(-729.49 -668.916)" fill="red" fill-rule="evenodd"/>
    <path id="Path_2843" data-name="Path 2843" d="M803.291,698.75c.286.039.37.28.325.65-.382,0-.478.28-.974.162C802.6,699.032,803.272,699.218,803.291,698.75Z" transform="translate(-730.965 -669.001)" fill="red" fill-rule="evenodd"/>
    <path id="Path_2844" data-name="Path 2844" d="M804.98,699.47c.275.327-.655,1.243-1.138.813C804.262,700.052,804.536,699.676,804.98,699.47Z" transform="translate(-731.353 -669.234)" fill="red" fill-rule="evenodd"/>
    <path id="Path_2845" data-name="Path 2845" d="M832.82,699.462c.23.825-.361.83-.65,1.138-.448.07-.152-.606-.487-.65C831.976,699.7,832.181,699.363,832.82,699.462Z" transform="translate(-740.342 -669.226)" fill="red" fill-rule="evenodd"/>
    <path id="Path_2846" data-name="Path 2846" d="M710,699.71c.415.019.836.03.813.488C710.346,700.23,709.924,700.218,710,699.71Z" transform="translate(-701.049 -669.312)" fill="red" fill-rule="evenodd"/>
    <path id="Path_2847" data-name="Path 2847" d="M809.385,701.63a.916.916,0,0,0-.162.651,1.609,1.609,0,0,0-1.3.162C807.926,701.688,808.848,701.851,809.385,701.63Z" transform="translate(-732.67 -669.931)" fill="red" fill-rule="evenodd"/>
    <path id="Path_2848" data-name="Path 2848" d="M806.9,702.268c-.119.368-.62.355-.65.812-.321-.112-.433-.433-.487-.812A1.015,1.015,0,0,1,806.9,702.268Z" transform="translate(-731.973 -670.081)" fill="red" fill-rule="evenodd"/>
    <path id="Path_2849" data-name="Path 2849" d="M728.477,702.351h.488c.07.34-.111.429-.162.649C728.516,702.962,728.432,702.721,728.477,702.351Z" transform="translate(-707.015 -670.164)" fill="red" fill-rule="evenodd"/>
    <path id="Path_2850" data-name="Path 2850" d="M810.8,703.063c.309.305.293-.1.812,0,.314.4.7.9.163,1.3A1.281,1.281,0,0,1,810.8,703.063Z" transform="translate(-733.6 -670.389)" fill="red" fill-rule="evenodd"/>
    <path id="Path_2851" data-name="Path 2851" d="M721.149,703.31c.278.208.64.337.65.813C721.18,704.651,720.464,703.693,721.149,703.31Z" transform="translate(-704.562 -670.474)" fill="red" fill-rule="evenodd"/>
    <path id="Path_2852" data-name="Path 2852" d="M726.91,703.31c.018,1.3-.9.672-1.787.975C725.734,703.976,726.1,703.416,726.91,703.31Z" transform="translate(-705.935 -670.474)" fill="red" fill-rule="evenodd"/>
    <path id="Path_2853" data-name="Path 2853" d="M733.3,703.8c-.161.6-1.521.3-1.463-.325C732.349,703.054,732.855,703.668,733.3,703.8Z" transform="translate(-708.104 -670.481)" fill="red" fill-rule="evenodd"/>
    <path id="Path_2854" data-name="Path 2854" d="M729.908,704.025a1.38,1.38,0,0,1,.975.163C730.88,704.436,729.679,704.544,729.908,704.025Z" transform="translate(-707.471 -670.702)" fill="red" fill-rule="evenodd"/>
    <path id="Path_2855" data-name="Path 2855" d="M814.255,705.607c-.392.066-.354-.3-.813-.162C813.567,704.671,814.85,704.68,814.255,705.607Z" transform="translate(-734.452 -670.983)" fill="red" fill-rule="evenodd"/>
    <path id="Path_2856" data-name="Path 2856" d="M806.645,704.99h.487v.65h-.65C806.46,705.349,806.68,705.3,806.645,704.99Z" transform="translate(-732.204 -671.016)" fill="red" fill-rule="evenodd"/>
    <path id="Path_2857" data-name="Path 2857" d="M730.54,706.154c.024.781-.945.57-1.137,1.137-.788-.354-1.638-.938-2.6-.65.249-.454,1.106-.3,1.137-.975q.764-.113.65.651C729.445,706.28,730.13,704.773,730.54,706.154Z" transform="translate(-706.478 -671.204)" fill="red" fill-rule="evenodd"/>
    <path id="Path_2858" data-name="Path 2858" d="M719.048,706.91a3.028,3.028,0,0,0,1.3.162c.087.737-.92.38-1.3.65A.6.6,0,0,1,719.048,706.91Z" transform="translate(-703.923 -671.636)" fill="red" fill-rule="evenodd"/>
    <path id="Path_2859" data-name="Path 2859" d="M815.052,707.385v.651c-.443.117-.327-.323-.65-.326C814.441,707.424,814.682,707.339,815.052,707.385Z" transform="translate(-734.762 -671.786)" fill="red" fill-rule="evenodd"/>
    <path id="Path_2860" data-name="Path 2860" d="M812.963,709.063c.5-.121.2.56.812.325-.192.242-.14.726-.65.651C813.243,709.541,812.959,709.446,812.963,709.063Z" transform="translate(-734.298 -672.327)" fill="red" fill-rule="evenodd"/>
    <path id="Path_2861" data-name="Path 2861" d="M716.174,709.789c-.369-.119-1.268.293-1.138-.325C715.294,709.226,716.326,709.129,716.174,709.789Z" transform="translate(-702.674 -672.403)" fill="red" fill-rule="evenodd"/>
    <path id="Path_2862" data-name="Path 2862" d="M718.765,709.309c.014.257-.078.62.163.651a9.446,9.446,0,0,1-1.787.812c.163.324.718.257.65.813a1.712,1.712,0,0,1-1.788-.326c.239-.682.993-.848,1.138-1.625C717.961,709.806,718.069,709.263,718.765,709.309Z" transform="translate(-702.99 -672.41)" fill="red" fill-rule="evenodd"/>
    <path id="Path_2863" data-name="Path 2863" d="M818.641,709.79a1.349,1.349,0,0,1,.812.813c-.422-.437-.49.2-.975.162A1.38,1.38,0,0,1,818.641,709.79Z" transform="translate(-736.075 -672.566)" fill="red" fill-rule="evenodd"/>
    <path id="Path_2864" data-name="Path 2864" d="M814.643,710.028c.736-.087.379.921.649,1.3C814.728,711.243,814.868,710.453,814.643,710.028Z" transform="translate(-734.84 -672.641)" fill="red" fill-rule="evenodd"/>
    <path id="Path_2865" data-name="Path 2865" d="M721.043,710.511c.513.028.969.114.974.649C721.5,711.132,721.048,711.047,721.043,710.511Z" transform="translate(-704.618 -672.799)" fill="red" fill-rule="evenodd"/>
    <path id="Path_2866" data-name="Path 2866" d="M817.22,711.363c-.219.222-1.134.31-1.138-.163C816.236,710.5,817.353,710.333,817.22,711.363Z" transform="translate(-735.305 -672.839)" fill="red" fill-rule="evenodd"/>
    <path id="Path_2867" data-name="Path 2867" d="M713.547,711.969a4.078,4.078,0,0,1-1.625-.163v-.65C712.649,710.675,713.349,711.4,713.547,711.969Z" transform="translate(-701.673 -672.957)" fill="red" fill-rule="evenodd"/>
    <path id="Path_2868" data-name="Path 2868" d="M825.125,713.627c.263-.046.28.153.487.163-.141.238-.129.63-.649.488A.917.917,0,0,0,825.125,713.627Z" transform="translate(-738.172 -673.803)" fill="red" fill-rule="evenodd"/>
    <path id="Path_2869" data-name="Path 2869" d="M719.625,713.87c.017.459.613.691.162,1.138-.812-.305-.632-.964-1.625-.812C718.484,713.92,719.176,714.018,719.625,713.87Z" transform="translate(-703.688 -673.884)" fill="red" fill-rule="evenodd"/>
    <path id="Path_2870" data-name="Path 2870" d="M715.149,715.062a1.055,1.055,0,0,1,.813.162,1.224,1.224,0,0,1-.974.975C714.61,715.825,715.288,715.676,715.149,715.062Z" transform="translate(-702.625 -674.263)" fill="red" fill-rule="evenodd"/>
    <path id="Path_2871" data-name="Path 2871" d="M717.188,715.31c.532.009.621.462,1.3.325C718.433,716.428,716.933,716.217,717.188,715.31Z" transform="translate(-703.364 -674.348)" fill="red" fill-rule="evenodd"/>
    <path id="Path_2872" data-name="Path 2872" d="M701.931,717.174c-.465.032-.886.02-.812-.488A.489.489,0,0,1,701.931,717.174Z" transform="translate(-698.182 -674.75)" fill="red" fill-rule="evenodd"/>
    <path id="Path_2873" data-name="Path 2873" d="M696.8,718.431h.649c.118.443-.323.326-.325.649C696.836,719.042,696.751,718.8,696.8,718.431Z" transform="translate(-696.786 -675.356)" fill="red" fill-rule="evenodd"/>
    <path id="Path_2874" data-name="Path 2874" d="M820.178,719.15c.091.675-.631,1.075-.976.813C819.24,719.4,819.686,719.255,820.178,719.15Z" transform="translate(-736.312 -675.588)" fill="red" fill-rule="evenodd"/>
    <path id="Path_2875" data-name="Path 2875" d="M822.366,719.63a1.775,1.775,0,0,0,1.95.325c.326.345-.23.725-.324,1.138a.585.585,0,0,1-.488-.812c-.457-.024-.468.4-.487.812-.383,0-.478-.28-.975-.163C821.753,720.382,822.26,720.206,822.366,719.63Z" transform="translate(-737.201 -675.743)" fill="red" fill-rule="evenodd"/>
    <path id="Path_2876" data-name="Path 2876" d="M819.846,721.326h-.65A.347.347,0,1,1,819.846,721.326Z" transform="translate(-736.306 -676.139)" fill="red" fill-rule="evenodd"/>
    <path id="Path_2877" data-name="Path 2877" d="M714.5,721.479c.1.641-.364.72-.813.813.06-.276-.127-.306-.325-.324C713.294,721.218,714,721.241,714.5,721.479Z" transform="translate(-702.136 -676.293)" fill="red" fill-rule="evenodd"/>
    <path id="Path_2878" data-name="Path 2878" d="M711.55,723.167c-.586-.263-.787.028-1.3-.163a.585.585,0,0,0-.488-.812C710.019,721.707,711.533,722.373,711.55,723.167Z" transform="translate(-700.975 -676.518)" fill="red" fill-rule="evenodd"/>
    <path id="Path_2879" data-name="Path 2879" d="M825.428,722.03h.813c-.008.752-.91.607-1.3.975C824.664,722.242,825.7,722.793,825.428,722.03Z" transform="translate(-738.15 -676.518)" fill="red" fill-rule="evenodd"/>
    <path id="Path_2880" data-name="Path 2880" d="M821.245,722.271c.365.375-.512.887-1.137.812.2.611.72.9.974,1.463-.68.152-.643.109-.974-.325a.929.929,0,0,0-.488.976c-.834-.194-.62-1.439-1.138-1.951C819.387,722.572,820.2,722.807,821.245,722.271Z" transform="translate(-736.08 -676.596)" fill="red" fill-rule="evenodd"/>
    <path id="Path_2881" data-name="Path 2881" d="M825.057,725.316c.172.605-.342.525-.487.813C823.806,725.955,824.587,724.739,825.057,725.316Z" transform="translate(-737.942 -677.53)" fill="red" fill-rule="evenodd"/>
    <path id="Path_2882" data-name="Path 2882" d="M825.922,726.587c.512-.079.368.5.975.324v.976C826.623,727.4,826.013,727.254,825.922,726.587Z" transform="translate(-738.482 -677.987)" fill="red" fill-rule="evenodd"/>
    <path id="Path_2883" data-name="Path 2883" d="M822.4,728.75c.286.039.37.28.326.65h-.651C821.955,728.957,822.4,729.074,822.4,728.75Z" transform="translate(-737.233 -678.688)" fill="red" fill-rule="evenodd"/>
    <path id="Path_2884" data-name="Path 2884" d="M706.658,729.466v.488h-.975C705.965,729.748,706.108,729.4,706.658,729.466Z" transform="translate(-699.658 -678.917)" fill="red" fill-rule="evenodd"/>
    <path id="Path_2885" data-name="Path 2885" d="M821.469,729.465c.042.53-.192.783-.649.813C820.463,729.9,820.867,729.371,821.469,729.465Z" transform="translate(-736.791 -678.915)" fill="red" fill-rule="evenodd"/>
    <path id="Path_2886" data-name="Path 2886" d="M822.733,731.385v.651c-.241-.085-.41-.241-.651-.326C822.122,731.424,822.362,731.339,822.733,731.385Z" transform="translate(-737.242 -679.535)" fill="red" fill-rule="evenodd"/>
    <path id="Path_2887" data-name="Path 2887" d="M826.162,731.39h.488c-.069.311-.06.7-.488.651Z" transform="translate(-738.559 -679.54)" fill="red" fill-rule="evenodd"/>
    <path id="Path_2888" data-name="Path 2888" d="M833.58,732.1a1.059,1.059,0,0,1,.813.163C834.441,732.687,833.294,732.83,833.58,732.1Z" transform="translate(-740.94 -679.765)" fill="red" fill-rule="evenodd"/>
    <path id="Path_2889" data-name="Path 2889" d="M833.137,733.053v.813h-.975C832.414,733.523,832.347,732.86,833.137,733.053Z" transform="translate(-740.497 -680.066)" fill="red" fill-rule="evenodd"/>
    <path id="Path_2890" data-name="Path 2890" d="M824.64,733.309c-.015.231-.027.46.162.488-.127.373-1.005.158-.812-.325A.916.916,0,0,1,824.64,733.309Z" transform="translate(-737.849 -680.16)" fill="red" fill-rule="evenodd"/>
    <path id="Path_2891" data-name="Path 2891" d="M826.579,735.479c-.594-.086-.73.714-1.138.325C825.374,735.2,826.517,734.508,826.579,735.479Z" transform="translate(-738.326 -680.705)" fill="red" fill-rule="evenodd"/>
    <path id="Path_2892" data-name="Path 2892" d="M711.13,736.189v.65c-.311-.068-.7-.059-.65-.487A.91.91,0,0,1,711.13,736.189Z" transform="translate(-701.206 -681.09)" fill="red" fill-rule="evenodd"/>
    <path id="Path_2893" data-name="Path 2893" d="M708.028,739.55c.091.775.832.9,1.463,1.138-.031.62-.232,1.07-.813,1.138.148-.689-.265-.818-.649-.975-.954.409.188,1.914-.976,2.113-.443-.441.42-.4.325-.976-.016-.634-.656-.643-.975-.975C707.084,740.665,707.41,739.962,708.028,739.55Z" transform="translate(-699.891 -682.175)" fill="red" fill-rule="evenodd"/>
    <path id="Path_2894" data-name="Path 2894" d="M824.094,742.437a1.061,1.061,0,0,1-.813-.163C823.3,741.79,824.251,741.839,824.094,742.437Z" transform="translate(-737.629 -682.949)" fill="red" fill-rule="evenodd"/>
    <path id="Path_2895" data-name="Path 2895" d="M828.265,742.431c.578.288,1.358.375,1.626.974C829.291,744.324,827.7,743.182,828.265,742.431Z" transform="translate(-739.2 -683.105)" fill="red" fill-rule="evenodd"/>
    <path id="Path_2896" data-name="Path 2896" d="M708.8,744.5c-.028-.353.576-.074.812-.163.216.342-.08.48.162.974C709.378,745.118,709.343,744.558,708.8,744.5Z" transform="translate(-700.665 -683.715)" fill="red" fill-rule="evenodd"/>
    <path id="Path_2897" data-name="Path 2897" d="M830.718,744.83h1.137A.593.593,0,1,1,830.718,744.83Z" transform="translate(-740.027 -683.88)" fill="red" fill-rule="evenodd"/>
    <path id="Path_2898" data-name="Path 2898" d="M704.181,745.059c0,.743-.534,1.127-1.138.813C703.258,745.437,703.392,744.92,704.181,745.059Z" transform="translate(-698.806 -683.947)" fill="red" fill-rule="evenodd"/>
    <path id="Path_2899" data-name="Path 2899" d="M707.06,746.976c.217.343-.08.481.162.976-.585.057-.783.248-1.3,0C706.137,747.463,706.182,746.8,707.06,746.976Z" transform="translate(-699.736 -684.564)" fill="red" fill-rule="evenodd"/>
    <path id="Path_2900" data-name="Path 2900" d="M833.357,748.663a1.058,1.058,0,0,1,.813.162c.05.375-.469.181-.488.488C833.4,749.273,833.311,749.034,833.357,748.663Z" transform="translate(-740.879 -685.112)" fill="red" fill-rule="evenodd"/>
    <path id="Path_2901" data-name="Path 2901" d="M835.955,753.9c-.385.578-1.207,1.446-2.113.975C834.553,754.62,835.038,753.415,835.955,753.9Z" transform="translate(-741.039 -686.771)" fill="red" fill-rule="evenodd"/>
    <path id="Path_2902" data-name="Path 2902" d="M833.622,760.827c-.817-.113-1.132.276-1.949.162C831.408,759.71,833.578,760.093,833.622,760.827Z" transform="translate(-740.331 -688.827)" fill="red" fill-rule="evenodd"/>
    <path id="Path_2903" data-name="Path 2903" d="M706.488,764.511h.649c-.169.427-.645.546-.813.974C705.8,765.2,706.747,765.06,706.488,764.511Z" transform="translate(-699.813 -690.235)" fill="red" fill-rule="evenodd"/>
    <path id="Path_2904" data-name="Path 2904" d="M833.28,764.511c1.221-.03,1.526.857,1.95,1.624-.923,0-1.205-.636-2.112-.65A1.378,1.378,0,0,1,833.28,764.511Z" transform="translate(-740.802 -690.234)" fill="red" fill-rule="evenodd"/>
    <path id="Path_2905" data-name="Path 2905" d="M831.679,766.19h.487c-.045.37.039.611.326.65-.05.221-.408.135-.651.162C831.976,766.543,831.612,766.582,831.679,766.19Z" transform="translate(-740.338 -690.777)" fill="red" fill-rule="evenodd"/>
    <path id="Path_2906" data-name="Path 2906" d="M709.94,772.807c-.394.313-1.066-.138-1.137-.65A.859.859,0,0,1,709.94,772.807Z" transform="translate(-700.666 -692.681)" fill="red" fill-rule="evenodd"/>
    <path id="Path_2907" data-name="Path 2907" d="M711.607,774.591c.509.112.211.433.162.812C711.355,775.387,711.385,774.8,711.607,774.591Z" transform="translate(-701.519 -693.49)" fill="red" fill-rule="evenodd"/>
    <path id="Path_2908" data-name="Path 2908" d="M832.329,776.137c.1.583-.189.785-.325,1.137a1.435,1.435,0,0,1-1.3-.325C830.426,775.654,831.711,775.69,832.329,776.137Z" transform="translate(-740.014 -693.898)" fill="red" fill-rule="evenodd"/>
    <path id="Path_2909" data-name="Path 2909" d="M710.963,789.23a1.547,1.547,0,0,1,1.138,1.463c-.432,0-.929.062-1.138-.163Z" transform="translate(-701.363 -698.216)" fill="red" fill-rule="evenodd"/>
    <path id="Path_2910" data-name="Path 2910" d="M824.512,794.686a1.015,1.015,0,0,1-.487,1.3,2.517,2.517,0,0,1-1.463-.976A2.08,2.08,0,0,1,824.512,794.686Z" transform="translate(-737.397 -699.935)" fill="red" fill-rule="evenodd"/>
    <path id="Path_2911" data-name="Path 2911" d="M823.63,803.188c-.115.59-1.184.225-1.788.325A1.008,1.008,0,0,1,823.63,803.188Z" transform="translate(-737.165 -702.586)" fill="red" fill-rule="evenodd"/>
    <path id="Path_2912" data-name="Path 2912" d="M721.768,804.354c-.335-.1-1.129.262-.974-.326C721.041,803.779,721.907,803.74,721.768,804.354Z" transform="translate(-704.531 -702.94)" fill="red" fill-rule="evenodd"/>
    <path id="Path_2913" data-name="Path 2913" d="M827.1,804.583a1.056,1.056,0,0,1,.812.162C827.961,805.167,826.814,805.31,827.1,804.583Z" transform="translate(-738.848 -703.168)" fill="red" fill-rule="evenodd"/>
    <path id="Path_2914" data-name="Path 2914" d="M718.883,804.83h.812c.1.442.786.793.325,1.3C719.194,806.144,718.909,805.616,718.883,804.83Z" transform="translate(-703.92 -703.253)" fill="red" fill-rule="evenodd"/>
    <path id="Path_2915" data-name="Path 2915" d="M819.7,805.708c0,.446-.766.386-.974.163C818.726,805.425,819.489,805.485,819.7,805.708Z" transform="translate(-736.157 -703.482)" fill="red" fill-rule="evenodd"/>
    <path id="Path_2916" data-name="Path 2916" d="M821.361,809.863c-.079.893-1.442,1.115-1.95.65C818.944,809.162,821.119,809.036,821.361,809.863Z" transform="translate(-736.358 -704.711)" fill="red" fill-rule="evenodd"/>
    <path id="Path_2917" data-name="Path 2917" d="M726,810.83c.492.1.938.254.975.813-.584.011-.45.741-1.138.65C726.067,811.684,725.658,811.384,726,810.83Z" transform="translate(-706.167 -705.191)" fill="red" fill-rule="evenodd"/>
    <path id="Path_2918" data-name="Path 2918" d="M810.578,812.274c-.383,0-.479.28-.976.162v-.487C809.85,811.7,810.716,811.66,810.578,812.274Z" transform="translate(-733.212 -705.497)" fill="red" fill-rule="evenodd"/>
    <path id="Path_2919" data-name="Path 2919" d="M732.817,813.4c-.393.666.163.916.163,1.625-.542,0-.555-.529-1.138-.488.54-.521-.083-.71.163-1.138A.606.606,0,0,1,732.817,813.4Z" transform="translate(-708.105 -705.968)" fill="red" fill-rule="evenodd"/>
    <path id="Path_2920" data-name="Path 2920" d="M730.093,814.672a.929.929,0,0,1-.976.488,1.056,1.056,0,0,1-.162-.812A.729.729,0,0,1,730.093,814.672Z" transform="translate(-707.167 -706.27)" fill="red" fill-rule="evenodd"/>
    <path id="Path_2921" data-name="Path 2921" d="M724.665,814.91c-.535-.007-.808-.274-1.463-.163C723.425,814.452,724.744,814.087,724.665,814.91Z" transform="translate(-705.315 -706.345)" fill="red" fill-rule="evenodd"/>
    <path id="Path_2922" data-name="Path 2922" d="M815.93,815.23a1.27,1.27,0,0,1-1.3.325C814.4,814.6,815.71,814.855,815.93,815.23Z" transform="translate(-734.827 -706.503)" fill="red" fill-rule="evenodd"/>
    <path id="Path_2923" data-name="Path 2923" d="M740.4,815.63h.65c-.066.409-.556.747-.813.488A.77.77,0,0,0,740.4,815.63Z" transform="translate(-710.817 -706.74)" fill="red" fill-rule="evenodd"/>
    <path id="Path_2924" data-name="Path 2924" d="M741.606,816.351c.473.141.183.243.162.649h-.812C740.836,816.447,741.555,816.733,741.606,816.351Z" transform="translate(-711.043 -706.973)" fill="red" fill-rule="evenodd"/>
    <path id="Path_2925" data-name="Path 2925" d="M737.377,816.759c0,.445-.766.386-.975.162C736.5,816.385,737.016,816.688,737.377,816.759Z" transform="translate(-709.577 -707.057)" fill="red" fill-rule="evenodd"/>
    <path id="Path_2926" data-name="Path 2926" d="M736.27,818.756c.374.049.18-.469.487-.487.781-.077.416.992,1.3.812.5-.1.462-.729,1.3-.487-.118.5.28.478.162.975a45.573,45.573,0,0,0-5.038-.65C734.694,818.133,735.933,818.16,736.27,818.756Z" transform="translate(-708.957 -707.591)" fill="red" fill-rule="evenodd"/>
    <path id="Path_2927" data-name="Path 2927" d="M786.894,819.164c-.141.238-.243.515-.65.488a.766.766,0,0,1-.163-.488C786.391,818.859,786.49,819.146,786.894,819.164Z" transform="translate(-725.618 -707.836)" fill="red" fill-rule="evenodd"/>
    <path id="Path_2928" data-name="Path 2928" d="M775.7,819.861a1.211,1.211,0,0,1-1.463.975,1.385,1.385,0,0,1-.163-.975A1.865,1.865,0,0,1,775.7,819.861Z" transform="translate(-721.739 -708.047)" fill="red" fill-rule="evenodd"/>
    <path id="Path_2929" data-name="Path 2929" d="M740.482,820.827c.561-.5,1.314.2,1.626.488.02.292-.2.343-.163.651h-.976C740.59,821.8,740.773,821.079,740.482,820.827Z" transform="translate(-710.895 -708.362)" fill="red" fill-rule="evenodd"/>
    <path id="Path_2930" data-name="Path 2930" d="M772.107,820.91a1.633,1.633,0,0,1,1.3,1.463H771.62C771.422,821.691,771.35,821.012,772.107,820.91Z" transform="translate(-720.906 -708.445)" fill="red" fill-rule="evenodd"/>
    <path id="Path_2931" data-name="Path 2931" d="M797.842,821.1c.4-.433,1.313.646.975.976C798.269,821.975,798.418,821.176,797.842,821.1Z" transform="translate(-729.415 -708.475)" fill="red" fill-rule="evenodd"/>
    <path id="Path_2932" data-name="Path 2932" d="M805.615,820.905c-.056.574-.426.42-.812.325C804.827,820.876,805.212,820.882,805.615,820.905Z" transform="translate(-731.663 -708.441)" fill="red" fill-rule="evenodd"/>
    <path id="Path_2933" data-name="Path 2933" d="M766.757,821.15c-.2.341-.45.634-.649.976-.582-.32-.867.075-1.626,0C765,821.253,765.738,821.562,766.757,821.15Z" transform="translate(-718.644 -708.523)" fill="red" fill-rule="evenodd"/>
    <path id="Path_2934" data-name="Path 2934" d="M808.81,821.15a.612.612,0,0,1,.487.976A.586.586,0,0,1,808.81,821.15Z" transform="translate(-732.907 -708.522)" fill="red" fill-rule="evenodd"/>
    <path id="Path_2935" data-name="Path 2935" d="M812.017,821.617c-.223.515-.035.544,0,1.138a1.375,1.375,0,0,1-.974.163c.492-.421.166-.6,0-1.138C811.425,821.783,811.521,821.5,812.017,821.617Z" transform="translate(-733.678 -708.664)" fill="red" fill-rule="evenodd"/>
    <path id="Path_2936" data-name="Path 2936" d="M769.375,822.106c.018.4.3.5,0,.813-.386-.1-.757-.219-.812-.649C769.021,822.4,768.983,822.04,769.375,822.106Z" transform="translate(-719.961 -708.829)" fill="red" fill-rule="evenodd"/>
    <path id="Path_2937" data-name="Path 2937" d="M760.638,822.574c.526-.2.124.525.649.324-.276.158-.417.449-.325.976-.379-.054-.7-.167-.813-.488C759.977,822.781,760.76,823.129,760.638,822.574Z" transform="translate(-717.237 -708.971)" fill="red" fill-rule="evenodd"/>
    <path id="Path_2938" data-name="Path 2938" d="M737.361,823.305a1.383,1.383,0,0,1,.976.163c-.112.321-.434.433-.813.488A.915.915,0,0,1,737.361,823.305Z" transform="translate(-709.886 -709.215)" fill="red" fill-rule="evenodd"/>
    <path id="Path_2939" data-name="Path 2939" d="M774.486,823.55c.414.017.384.605.163.813C774.235,824.346,774.265,823.757,774.486,823.55Z" transform="translate(-721.823 -709.298)" fill="red" fill-rule="evenodd"/>
    <path id="Path_2940" data-name="Path 2940" d="M769.941,824.194c-.057.213-.286.255-.325.487C768.937,824.572,769.54,823.673,769.941,824.194Z" transform="translate(-720.203 -709.454)" fill="red" fill-rule="evenodd"/>
    <path id="Path_2941" data-name="Path 2941" d="M762.8,825.23c.476.012.915.059.812.65C763.219,825.789,762.779,825.741,762.8,825.23Z" transform="translate(-718.101 -709.84)" fill="red" fill-rule="evenodd"/>
    <path id="Path_2942" data-name="Path 2942" d="M784.4,825.465c.513-.079.574.293,1.138.162-.294.249-.5.586-1.138.488Z" transform="translate(-725.076 -709.912)" fill="red" fill-rule="evenodd"/>
    <path id="Path_2943" data-name="Path 2943" d="M779.526,827.094a.347.347,0,1,1-.649,0C779.2,826.824,779.083,827.109,779.526,827.094Z" transform="translate(-723.288 -710.404)" fill="red" fill-rule="evenodd"/>
    <path id="Path_2944" data-name="Path 2944" d="M762.98,827.515c-.07.364-.8.066-1.138.162C762.019,827.058,762.506,827.271,762.98,827.515Z" transform="translate(-717.791 -710.5)" fill="red" fill-rule="evenodd"/>
    <path id="Path_2945" data-name="Path 2945" d="M770.242,828.591h.65c-.092.4-.139.836-.65.812Z" transform="translate(-720.504 -710.925)" fill="red" fill-rule="evenodd"/>
    <path id="Path_2946" data-name="Path 2946" d="M790.32,828.591c.067.555-.049.926-.65.812C789.548,828.794,789.853,828.611,790.32,828.591Z" transform="translate(-726.768 -710.925)" fill="red" fill-rule="evenodd"/>
    <path id="Path_2947" data-name="Path 2947" d="M821.455,849.807c-.129.57-.568.188-.812,0C820.771,849.237,821.211,849.619,821.455,849.807Z" transform="translate(-736.777 -717.679)" fill="red" fill-rule="evenodd"/>
    <path id="Path_2948" data-name="Path 2948" d="M769.82,689.631c-.173-.607.4-.462.325-.974.459-.135.42.229.813.162.018.938-.858.984-1.463,1.3C769.162,689.594,770.418,689.89,769.82,689.631Z" transform="translate(-720.244 -665.733)" fill="red" fill-rule="evenodd"/>
    <path id="Path_2949" data-name="Path 2949" d="M759.628,692.123c.011-.553-.835-.249-.813-.813a3.032,3.032,0,0,0,1.3.163c-.1.339-.341.525-.487.813-.1.489.685.922.974.488.179.366.664.913.326,1.3.785-.135.4-1.436,1.462-1.3.368.391.5,1.017,1.463.813.049.427-.63.127-.487.649-.288-.415-1.044-.364-1.463-.649-.251.615-.808.925-.974,1.624-.63.088-.669-.414-1.138-.487-.352-.028-.073.576-.162.812.284.257.865.218,1.3.325a1.513,1.513,0,0,0,1.138,1.463c.461.028-.2-1.063.487-.813-.146-.546-.364-.019-.65-.324.458-.447,1.013.386,1.626.324.452-.359-.108-1.073-.813-.812.174-.436.375-1.318-.487-1.138.947-.192,1.846-.479,2.274.326a1.157,1.157,0,0,1,1.626.162c.088.739-.083,1.217-.488,1.463-.562,0-1.226-1-1.625-.162.183.359.831.253.976.65,0,.493-.818.157-.813.651.008,1.111,1.012,1.326,1.788.812a6.379,6.379,0,0,0,.65,2.113c-.513.08-.573-.292-1.138-.162.091-.331.489-.318.162-.65-.783.381-1.569-.106-1.788.65.046.341.435-.236.65.162a.915.915,0,0,0-.163.65,4.6,4.6,0,0,0,3.251.65c.264.711.97.979,1.624,1.3.186.511-.255.395-.324.65.152.635.82.138,1.3.162-.085.425.943.553.324.975.2.235.62.247.813.488.048-.5.444-.869.163-1.463-.427-.048-.129.631-.65.488.027-.407-.251-.509-.488-.65.356-.133.8-.013.974-.65a15.551,15.551,0,0,0-1.625.325c-.156-.589.7-.165.813-.487.14-.737-.179-1.013-.65-1.138.911.128,1.551-.57,2.438-.324a3.345,3.345,0,0,1-.487.974c.459.183,1.9-.047,1.949-.812.821.208.664,1.394,1.788,1.3.443-.4-.585-.706-.488-1.3.9-.14.718.8,1.463.812-.1.334-.312.677-.649.326.437.915.834,1.872,1.949,2.112-.618.932.6.738.651,1.463-.553.011-1.135.051-1.3-.325a1.464,1.464,0,0,0-.651.65c.138.477.409-.211.813,0,.191.292-.281,1.236.65,1.138-.456.355-.967.968-.65,1.625.511.081.636-.354.976,0a5.541,5.541,0,0,1-1.138,1.138c.437.375,1.014-.495,1.462-.65.378.245.248.4.162.813h.65c.066-.391-.3-.353-.162-.813-1.173-.043-.454-1.623-1.3-1.3.065-.477.533-.55.65-.975.391.368,1.136.38.976,1.3.9.068-.079-1.271.974-1.3-.175.825.3,1,.651,1.3-.339.855-1.639,1.609-1.625,2.275-.353.072-1.564-.448-1.788.487,1.315-.507,1.324.632,2.275.488-.084-1.509,1.695-1.405,1.138-2.926.562-.128.686.181.974.326-.045.334-.605.152-.65.487a7.167,7.167,0,0,0,.813.65c.1.864-1.209,1.661-.326,2.275a5.054,5.054,0,0,0-.974,1.463c.228.4.559.287.974.162a1.381,1.381,0,0,1-.162.975c.537.422,1.444-.4,1.463.651-.817.429-1.878-.135-2.6-.326-.522.267-.394,1.507.326,1.463.22-.05.135-.406.163-.65.966-.208.75.766,1.462.813-.084.4-.4.579-.65.813.174.319.964-.107,1.138-.325.459.137.448.744.975.813.121.5-.446.312-.324.813.043.383.719.1.649-.162.569.372-.508.452-.487.813.231.418.38.919.974.974.743-.073-.247-.7.163-.812.874.334.427,2.626,2.112,2.6.445-.148-.289-.57.162-.813.563.033,1.057.136.975.813-.631.506-2.3-.024-2.6.812-.048.427.63.128.488.651a5.9,5.9,0,0,0,1.95-.488c.326.324-.051.774-.162,1.138-.508-.25-1.5-.022-1.788-.488a3.76,3.76,0,0,0-1.625.813,1.578,1.578,0,0,1,.163,1.463c1.27-.412,1.446-1.012,3.088-1.137-.026.188.035.288.163.324.12.554-.6.268-.651.65a1.225,1.225,0,0,0,.975.975c-.148.394-.653.431-1.138.488-.076.509.408.458.651.65-.066.476-.953.131-1.138.488.617.268,1.557-.479,2.113.325.806-.495,1.76-.84,2.6-1.3.127,1.155-1.529.529-1.138,1.949-.547.1-.833.467-1.625.325.584.789-.122.569-.325,1.3.363.508.751-.32,1.138-.325.6.265,1.045.688,1.626.976-.076.7-1.445.237-1.463-.162-1.213,1.255,1.425,1.215,2.113,1.625-.352.515-1.232.5-.976,1.624a11.206,11.206,0,0,1-3.9-.487c.214,1.031,1.647.844,2.763.974.339.636,1.059.891,1.138,1.788a4.074,4.074,0,0,1-1.624-.163c-.591.005-.714.478-.651,1.138.2.448.83.47,1.138.813-.519.5,1.2,1.184,1.138,2.276-.647.215-1.807-.229-2.438.324.144.289.454.414.325.976.4.745,1.612-.32,1.951.487-.084.62-1.01.4-.813,1.3a3.174,3.174,0,0,1,1.951,1.95c-.946.3-2.152.34-2.438,1.3.09.831.626,1.215.812,1.951.826-.122,1.247.161,1.463.649.077.347-.232.309-.487.325-.053.287.91.29.65-.163.453.941,1.349.469,1.463,1.788a3.56,3.56,0,0,1-2.438.487c.354-1.519-1.746-.267-1.95.488.195,1.3,2.05,0,2.6.813-1.083.857.256,2.173-1.138,2.6-.295-.355-.266-1.033-.974-.975-.046.784-.555,1.209-.163,2.438-.407.406-1.242.384-1.138,1.3.04.177.323.11.324.325,1.113-.1,1.714-.516,2.6-.162-.632.939-2.358,1.453-3.087.975-.024-.015.225-.3.163-.324-1.223-.521-2.468-1.917-3.576.163-.523.035-.688-.288-1.3-.163-.146.741.534.657.975.812-.494,1.15.629,1.781,1.463,2.113.165.76-.651.54-.487,1.3.115.426.927.155.974.649-.272,1.062-1.94-.135-2.763.487.052-.381.5-.364.651-.65-.987-.771-1.9.758-2.925.65,1.769,2.8-2.853,2.989-3.251,5.2.115.589,1.185.224,1.788.326.209-.807-.394-.8-.326-1.463,1.152-.45,1.727.8,2.763.975-.82.751-2.861.28-2.763,1.951-.391-.067-.353.3-.812.162.618-1.666-1.226-1.387-2.438-1.3.017-.982-1.82-1.035-2.113-.324.188.624,1.425.2,2.113.324.111.869-.913.6-.813,1.463.7.38,2.194-.027,1.951,1.3-.775.6-.986-.031-1.788-.162.043.552.732.459.975.812-.541.542-.775,1.392-1.949,1.3a1.248,1.248,0,0,1,.162-1.463c-.209-.6-1.022-.6-.975-1.463.5.119.479-.28.975-.162-.574-.834-1.8-1.016-2.275-1.949-.321.112-.433.433-.487.812.02.359.689.069.974.163-.271.469-1.185.476-.65,1.3-.288.144-.413.454-.975.325.053,1.327,2.186-.158,2.438,1.138-.414.416-.788-.037-.975-.325-1.77-.145-2.059,1.191-3.9.975.347.543.14.8.326,1.3.88-.1,1.231-.719,1.624-1.3.608.1,1.77-.361,1.463.65-.364-.111-.814-.488-1.138-.162-.18.939.661.855,1.138,1.138-.63.446-1.136,1.839-2.113.976.017-.417.606-.262.813-.488-.433-.37-1.727-.216-1.788.326-.777-.037-.871-.754-1.951-.488-.4.144-.176.907-.812.812-.592.1-.2-.774-.651-.812-.417.682-.525,1.924-.812,2.275-.72.07-.353-.947-.976-.975-.291-.02-.343.2-.65.162.018.4.3.5,0,.813-.727-.213-1.221-.554-1.463.325-.615-.669-1.505-.1-2.274-.649.108-.488.945-.246,1.137-.651.1-.519-.305-.5,0-.812,1.131.071,2.11-.71,3.413-.163.138-.679-.439-.643-.649-.975-.576-.088-.4.576-.976.488-.4.025-.5-.255-.813-.325v-.975c-1.523-.043-1.263.876-2.274,1.138-.076.509.408.458.649.65-.036.506-.808.275-1.3.326-.187-.512.255-.4.324-.651-.08-.276-.849.11-.65.651.02.358.69.068.976.162-.135.46.228.421.162.813-.674-.043-.634.213-1.138,0,.3-.286-.07-.475-.162-.813-.717-.243-1.119.167-1.626-.162-.059-.689.7-.143.975-.162.171-.5-.037-1.035.488-1.463-.048-.332-.44-.319-.488-.651-.592.49-1.1.341-1.788.488.017.417.606.261.813.487a2.827,2.827,0,0,0-.812,1.788.914.914,0,0,0-.65-.162c.2-.74-.445-.638-.325-1.3-.383,0-.478.28-.975.162-.122-.935.972-.653,1.3-1.138a2,2,0,0,1-1.625-.488c.045.2.3,1.292-.488,1.463-.691-.13-1.054-.536-1.624,0-.122.5.446.312.324.813-.97-.669-.955.855-1.787.324-.049-.427.63-.127.487-.65-.594-.528-.642.374-.975.326-.3-.31.1-.295,0-.813-.291-.02-.343.2-.649.162-.021.292.2.343.162.651a5.473,5.473,0,0,0-3.087-.163c-.118-.5.166-.593.163-.975a3.046,3.046,0,0,0-.976.488c-.641-.945-1.591-.195-2.438,0-.356.339.143.525-.162.813-.318-.279-.909-.283-1.3-.488-.4.311.558.623.487,1.138-.286.148-.3.57-.487.813a2.828,2.828,0,0,1-1.625-.65.611.611,0,0,1,.65-.65c-.167-1.161-.824-.094-1.463-.487-.267.491-.8.714-1.138,1.138-.269-.164-.176-.69-.325-.974.825.525,1.57-.493.813-.976-.3.024-.1.551-.324.65a2.773,2.773,0,0,1-1.626-1.625,1.237,1.237,0,0,1-1.625-.162c-.626.089.125.628-.325.975a2.312,2.312,0,0,1-1.138-.487c.115-.643.251-1.266.813-1.463.139-.614-.727-.575-.976-.325a1.738,1.738,0,0,1-.975,2.275c-.085-.4-.085-1.007-.812-1.138.051-.381.257-.61.162-1.137a4.66,4.66,0,0,0-3.738-.487c.578-.539-.353-1.148-.812-.651-.076.509.409.458.65.651a.877.877,0,0,1-.975.812c.239-.943-.618-.79-1.138-.974.233-.727.244-1.471-.65-1.463.037-.452.515-.46.65-.813-.039-.286-.279-.371-.65-.324-.352-.028-.073.576-.162.812-.448.095-.679.4-1.138.488-.28-.954.114-1.017.325-1.788.021-.292-.2-.343-.162-.65-.943.231-1.55-.191-2.113.325.528.339.363,1.371,1.138,1.463-.192.566-.091,1.426-.974,1.3.349-.873-.464-1.6-.651-2.437a6.245,6.245,0,0,0-3.738-.163c-.107.6.352.624.326,1.138a1.809,1.809,0,0,1-1.3.325v-1.463c.775.18.984-.208,1.3-.487-.131-.574-.992-.417-.976-1.138.69-.177.7-1.037,1.626-.975.076-.509-.409-.458-.65-.65.813-.957,1.549.636,2.6.488-.589-.991-1.981-2.137-3.413-1.3a3.831,3.831,0,0,0-1.624-1.138c.093-.394,1.051.077.974-.488-.263-.928-1.253-1.129-2.275-1.3a11.22,11.22,0,0,0,.976-2.925,2.01,2.01,0,0,0,2.112-.812c-.9-.643-2.058.6-3.412-.162a.609.609,0,0,1,.65-.649c-.084-1-.415-1.752-1.626-1.626-.1-.809.451-.957.65-1.463-1.028-1.142-2.982-2.221-.974-3.413-.143-.453-.653-.539-1.138-.65.561-.554.086-1.025-.488-1.3.722-2.945-2.854-.514-4.225-1.463,0-.322.444-.206.326-.65,1.211.125,1.782-.073,2.6.325.745-.447,1.311-1.073,2.113-1.463.514-.026.543.432,1.138.325.375.05.181-.469.488-.488-.031-.131-.163-.162-.163-.324a5.167,5.167,0,0,0-2.6-.813v-.649c.683.086.909-.284,1.463-.326v.488c.476.042.5-.368.975-.326-.974-.318-2.9-3.036-3.575-.65a6.778,6.778,0,0,0-.65-.975,4.117,4.117,0,0,1,1.3-1.625c-.452,1.737,1.625,1.115,1.95.487-.718-.148-.9-.833-1.788-.812.143-.507.766-.534.976-.975.045-.262-.154-.279-.162-.488-.987-.066-1.164.678-1.3,1.463-.382.052-.611.257-1.138.163-.06-.493.529-.338.812-.487.1-.572-.769-.534-.325-.976h.813c.074-.941-.221-1.512-.976-1.624.32-.206,1.846.356,1.788-.651.517.372-.21.861-.163,1.3.031.132.163.162.163.325,1.486-.464,2.163-1.737,3.088-2.763-1.483-.181-2.922,1.087-4.876.975-.582-1.529,2.559-.672,3.088-1.625-.269-.759-1.718-.341-1.624-1.463.563-.13.624.242,1.137.163.582-.123.11-1.3.813-1.3-.057-.539-.936-.255-1.463-.324.278.729-.714.845-.487,1.462a3.7,3.7,0,0,1-2.6-.812c1.583-1.07,1.89-2.69,3.413-3.574-.094-.34-.4-.464-.326-.976a3.727,3.727,0,0,1,2.275-.975c-.134-.624-1.436-.08-1.625-.649.009-.533.462-.622.325-1.3-.018-.415-.544-.323-.975-.326a1.23,1.23,0,0,0,.326-1.137c.452-.36,1.851.227,1.624-.813.521-.03.018.8.976.65.537-.244-.338-.4-.163-.813a1.756,1.756,0,0,1,.975.813c-.3.6-.207.585-.162,1.463a6.679,6.679,0,0,0,1.3-.813,4.342,4.342,0,0,0-2.113-2.438c-.594,0-.73.462-1.137.651-.629.087-.794-.29-1.463-.162.066-.529.772-.42,1.137-.651-.121-.376-.647-.757.163-.813-.232-.653-.943-.677-.488-1.625-.164-.27-.69-.176-.975-.325.148-.59.48-.1.975-.162.2-.309.4-1.04.163-1.3-.563-.13-.624.242-1.138.162.131-.791-.288-.914-.812-.649.693-1.372,1.953.249,2.763.649.435-.215.584-.716.976-.975.07-.612-.344-.74-.651-.974a.793.793,0,0,0-.325.812c-.629.07-.578.179-.975-.162a2.62,2.62,0,0,0,.163-1.788,1.345,1.345,0,0,0,.975-2.113,2.607,2.607,0,0,1,1.463.325c.509-.112.211-.433.162-.812a2.319,2.319,0,0,1,1.138-.488c-.179,1.084.834.773,1.3.488-.329-.484-1.15-.475-1.3-1.138-.682.022-.881.527-1.3.813a.807.807,0,0,1,.162-1.138c-.38-.3-1.033-.33-.649-.975a.61.61,0,0,1,.649.651h1.463c-.025-.842-.927-.806-.974-1.626-.5.156-.654.647-1.463.488.269-.811-.79-.3-.974-.651.606-.481-.389-1.236,0-1.463.979,1.443,3.064,1.118,4.55,1.788-.127.36-1.006-.031-.813.65.236.482.634-.214,1.138,0-.118.5.167.592.162.976h.65c-.076-.682-.155-1.362-.813-1.463-.116-.406.716-.668.162-.976.1-.495.874-.318.975-.812.046-.262-.154-.28-.162-.488-.7,0-.643.767-1.138.976-.519-.078-.358-.834-.975-.813-.591-.158-.075.792-.812.488.066-.576.711-.321.325-.974.587-.01.787-.406,1.3-.488a.446.446,0,0,0,.325.488c.4-.142.364-.72.976-.651.1-1.563-1.917-1.009-2.276-2.112.695-.626,1.484,1.171,1.626.163.29-.021.342.2.65.162.068.34-.112.431-.163.65.07.364.8.066,1.138.162.176-.5-.269-.509.162-1.137-.069-.255-.511-.139-.324-.651-.432,0-.928.062-1.138-.162.1-1.035,1-.473,1.625-.325.6-.4-.45-1.008,0-1.3.821.1.871.971,1.95.813.06.655-.94.251-.812.975-.091.795,1.02.389,1.626.488-.177-.425-.7-1.234.324-1.137.079-.512-.5-.368-.324-.976a1.207,1.207,0,0,1,1.624.488,9.428,9.428,0,0,0,2.275-3.25c.8.79,3.083.893,3.25-.65.028-.352-.576-.074-.812-.163.609-.256.712-1.021,1.3-1.3-.062-.594-1.286-.873-.651-1.625-.9-.344-.885-1.607-1.949-1.787a3.244,3.244,0,0,1,.812-1.138c.764.194-.376.557.162.976.919-.376,1.045-.508,1.788.162-.935,1.871,2.475,3.041.326,4.225.188.571,1.018.5,1.787.488v-.488c-.02-.359-.689-.069-.974-.162.076-.573.7-.6,1.137-.812-.421-.761.446-1.017.65-1.625,1.545.435,1.9-.276,3.088-.812a.93.93,0,0,1,.488.975c.769-.456,1.134.2,1.463.651.718-.206,1.6-1.23,2.274-.488.4-.085.58-.4.813-.65-.452.208-1.551-.515-1.949-.324-.276.321-.115,1.077-.976.812.49-.8,1.093-1.239.976-2.275.542,0,.43.653.812.813.5.009.39-.585.975-.487.166.213.16.6.325.812.766-1.094,1.928-.788,2.763-1.788.437-.112.315.336.487.488.571.029.535-.548.975-.65.161-.609-.8-.354-.325-.813.811.641,1.7.32,2.925.651-.351-.836.278-.678.162-1.625,2.665,1.052-1.225,2.494-2.112,3.412-.559-.09-.095-.628,0-.975a6.711,6.711,0,0,1-2.438,1.463c.052.382.5.364.65.65.624-.832,1.157-.015,1.95-.324.045.261-.153.279-.162.487.7-.212.638.337.812.65,1.279-.225.526-1.249,1.138-1.95-.459-.134-.42.229-.812.162-.067-.391.3-.353.163-.812.617.072,1.156-.421,1.624,0a2.808,2.808,0,0,0,.976-2.6c.5,1.218,1.74.248,2.6,0,.04.642.569.795,1.138.487-.36,1.059-1.419.932-2.437.65.12.713.643.3,1.137.813-.2.253-.519.633-.163.975.394-.094.362-.614.488-.975.7.514.989,1.241,1.787.975-.02-.6-.236-.408-.65-.324-.066-.392.3-.354.163-.813.583.067,1.259.041,1.463.488-.266.655-.979.864-.976,1.788a1.189,1.189,0,0,0,1.138-.976c.421.209.511.336.324.813h.487c.319-.224.088-1,.326-1.3.443-.119.326.322.649.324.132-.031.162-.163.325-.162-.747-1.045.377-1.47,0-2.438.555-.068.926.049.813.65C759.318,693.222,758.86,692.06,759.628,692.123Zm.649,2.6c.131-.3.211-.657.488-.813-.127-.036-.19-.136-.163-.324-1.137-.508-1.917.349-2.437-.488-.588.43-.25,1.433.162,1.788-.719-.125-.751.439-1.3.487.005.591.478.714,1.138.651.3-.35.194-1.106.974-.976.174-.607-.4-.463-.325-.975A3.867,3.867,0,0,1,760.277,694.723ZM773.928,704.8c.93-.064.4,1.333,1.138,1.463.037-.288-.163-.814.325-.649-.133.62.346.628.65.812.007-.7.718-.691.813-1.3-.51-.27-.664.6-.813.162.374-.579.293-.982.162-1.788A2.115,2.115,0,0,0,773.928,704.8Zm-61.915,25.676c.632-.1,1.387.7,1.624,0-.255-.015-.563.022-.487-.324.53.042.783-.193.813-.651-.41-.24-.528-.773-1.3-.65C713.42,729.74,712.286,729.757,712.013,730.474Zm37.376-35.1c-.383,0-.478-.28-.975-.162a2.32,2.32,0,0,0-.488,1.138c.894-.087,2.009-.709,2.275.325.74-.724.205-1.08-.162-1.787.153-.334.837-.138.812-.651a.763.763,0,0,1-.488-.162C749.93,694.4,749.932,695.157,749.389,695.373Zm-21.125.162c.422.15,1.18.1,1.3-.487C729.017,695.1,728.155,694.831,728.264,695.535Zm23.239.325h1.462c.064,1.294,1.878,2.018,2.438.975a2.385,2.385,0,0,1-1.951-1.463,4.124,4.124,0,0,1-1.949-.325Zm6.825,2.6c.693-.431.606.337,1.138.488a.907.907,0,0,1,.163-.651c-.617-.087-.775-.634-.975-1.138.322-.271.206.015.65,0,.011-.553-.479-.605-.813-.812C758.311,696.948,757.817,697.444,758.327,698.46Zm-1.95-.974a3.012,3.012,0,0,0-.487-.976C755.454,696.807,755.587,697.563,756.377,697.486Zm-13.488,1.137c.169-.677.217-1.575-.487-1.788C741.677,697.284,742.261,698.521,742.889,698.623Zm-8.938-.163c.2-.28.1-1.3-.324-1.463C733.165,697.3,733.236,698.43,733.951,698.46Zm10.726.326c1.112-1.121,2.747.568,3.9-.326-.928-.272-.39-.485-.326-1.3C746.989,698.366,744.726,696.051,744.677,698.786Zm-8.776-1.3a1.056,1.056,0,0,0-.812-.163C734.994,697.982,735.757,697.839,735.9,697.486Zm.488,1.624c1.108-.262.238-.878.163-1.624-.192.025-.462-.028-.488.162C736.538,697.994,735.9,698.359,736.389,699.11Zm23.888-.975c.024.636.554.649.163,1.3.669-.018.541.76,1.138.813-.233-1.022,1.106-.347,1.625-.813-.336-.974-1.457-.242-1.625-1.463C760.975,698.159,760.635,697.989,760.277,698.135Zm-1.463.651c-.679-.026-.827-.582-1.463-.651C757.23,698.9,758.571,699.408,758.814,698.786Zm-6.012,0c-.122.5.56.2.324.812.673.077.432-.76.65-1.138C753.119,698.236,753.263,698.814,752.8,698.786Zm-13.976,0c-.117.739,1.014.537.813-.163C739.179,698.489,739.217,698.852,738.826,698.786Zm10.4.649c.7.248.878-.742.325-.812C749.483,698.932,749.088,698.917,749.226,699.435Zm6.5-.325c-.3-.043-.91-.585-1.137-.162C755.037,699.227,755.416,699.964,755.727,699.11Zm-13.812,0a.762.762,0,0,0,.162.488c.407.028.509-.249.65-.488A.605.605,0,0,0,741.914,699.11Zm9.1.162c-.154.748,1.207.424,1.138-.162C751.638,699.031,751.577,699.4,751.014,699.273ZM732,701.385c.57-.135.76-.648.975-1.137C732.486,700.463,732.032,700.712,732,701.385Zm-1.137.813c.384-.4.064-1.02-.65-.812C730.171,701.916,730.406,702.168,730.864,702.2Zm35.914,1.951c-.11.613-.2.873.487.974-.351-1.016.666-.594.975-1.625-.326.037-.657-.725-.975-.162C767.838,703.426,767.347,704.241,766.778,704.149Zm-36.89-.163c-.607.174-.462-.4-.975-.325C728.815,704.235,729.755,704.6,729.888,703.986Zm-7.15.326c.249.361,1.145.548.974-.326C723.246,703.952,722.887,704.027,722.738,704.311Zm49.889.974c.708-.065.9.13.65.65.392.067.354-.3.813-.162.026-.46-.487-.379-.487-.813C773.172,704.963,772.646,704.871,772.628,705.286Zm-50.7,2.113a.776.776,0,0,0-.813-.812Q721.057,707.455,721.925,707.4Zm53.3,2.6c-.028-.512-.114-.969-.65-.975C774.668,709.475,774.563,710.122,775.228,710Zm1.138,2.113a.913.913,0,0,0,.651-.162c-.056-.431-.427-.548-.813-.65A1.057,1.057,0,0,0,776.365,712.111Zm3.738.65c.733-.112.373.274.325.65.678.081.78-.411.813-.974-.324,0-.207-.444-.651-.326C780.638,712.538,779.96,712.24,780.1,712.761Zm-2.763.813c.322-.243,1.308-.916.488-1.3C777.621,712.817,777.283,713.2,777.34,713.573Zm-1.787.813c.257-.242.237-.926-.326-.813C774.97,713.817,774.99,714.5,775.553,714.386Zm2.437.487c.678,0,.726-.626.326-.974C778.222,714.238,777.912,714.362,777.99,714.874Zm1.138.975a.913.913,0,0,0,.651-.162,5.582,5.582,0,0,0-.813-1.3C778.264,715.075,779.634,715.356,779.128,715.849Zm-2.275.325c.045-.55.322-1-.488-.974C776.307,715.763,775.984,716.255,776.853,716.174Zm-63.54.975c.662-.119,1.481.095.974.651.54.052.177-.8.975-.488-.383-.7-.778-.661-.487-1.788C713.29,715.168,712.656,716.3,713.313,717.149Zm3.574-.649c-.021-.521-.368-.716-.975-.651C715.11,716.857,716.23,716.387,716.888,716.5Zm-4.55,4.225c-.4.89.3.792.325,1.625.307-.072.98.221.813-.324-.051-.383-.771-.1-.651-.651.657-.1.713-.8.975-1.3C713.27,720.249,712.956,720.638,712.337,720.724Zm69.066.975c.6.056.492-.592.65-.975C781.315,720.669,781.137,721.171,781.4,721.7Zm-65.978-.162c-.6.336-.424-.233-1.138-.162.037.307-.182.358-.162.651a4.944,4.944,0,0,0,1.463,0c-.118-.37.293-1.268-.325-1.138C714.936,721.217,715.335,721.205,715.425,721.536ZM782.379,723c.261.334.815.377,1.463.326a1.289,1.289,0,0,0-1.3-1.138C782.607,722.578,782.243,722.54,782.379,723Zm0,1.626c.542.274.554-.1,1.137-.162v-.651C783.172,723.587,782.452,724.071,782.379,724.625Zm1.3,0a.612.612,0,0,0,.974-.488A.586.586,0,0,0,783.679,724.625Zm-67.44,2.275c.519.023.482.6.974.65a.925.925,0,0,0-.65-1.138C716.524,726.644,716.3,726.687,716.238,726.9Zm69.715.813c.209.223.972.283.975-.162C786.609,727.158,786.116,727.175,785.953,727.712Zm-74.916,5.363c.847-.019,1.031-.7,1.3-1.3C711.552,731.856,710.986,732.156,711.037,733.074Zm76.378.813a1.148,1.148,0,0,0,.975.65c-.258-.643.15-.942-.162-1.463C787.629,733.016,787.549,733.479,787.416,733.887Zm-75.4,2.6v.487c.619.077,1.014-.069,1.137-.487A1.017,1.017,0,0,0,712.013,736.487Zm2.437,2.763c.253.2.634.519.975.163C715.6,738.778,714.457,738.761,714.45,739.25Zm-2.6,3.25c.369-.551.538-1.3,1.788-.975-.174-.607.4-.463.326-.975C712.5,739.623,710.575,741.231,711.85,742.5Zm.65,2.113a1.062,1.062,0,0,0,.813.163C713.469,744.178,712.514,744.129,712.5,744.612Zm-1.3,4.713a1.059,1.059,0,0,0,.162.813c.513-.029.969-.115.975-.65-.126-.036-.188-.136-.162-.325A1.387,1.387,0,0,0,711.2,749.325Zm1.95,2.925c.307.037.359-.183.65-.162q.045-.531-.487-.487C713.261,751.82,713.081,751.911,713.15,752.25Zm-.163.813c-.1.64.364.719.813.812a1.465,1.465,0,0,0,.65-.65A1.248,1.248,0,0,0,712.987,753.063Zm73.291,3.25c-.314-.066-.128-.63-.65-.487C785.549,756.194,786.036,756.8,786.278,756.313Zm0,1.788c.114.8.935.834,1.626.65C787.942,757.995,786.671,757.91,786.278,758.1Zm-2.925,1.3a.771.771,0,0,0,.163.488c.511.076.664-.2.813-.488A.8.8,0,0,0,783.353,759.4Zm-67.6,3.575c.209.223.972.282.975-.163C716.406,762.422,715.912,762.439,715.75,762.976Zm2.276.65c.212-.5-.461-.922-.65-.488C717.8,763.09,717.5,763.769,718.026,763.626Zm65.327.65c.34.094.465.4.975.325C784.427,764.026,783.486,763.66,783.353,764.276Zm-62.728,5.2c.379.049.7.347.813-.162C721.23,769.092,720.642,769.063,720.625,769.476Zm-3.087.975a1.61,1.61,0,0,0,2.112-.65A1.242,1.242,0,0,0,717.538,770.451Zm51.515,4.875c.738.447,1.146-.641,1.949-.649.074-.508-.347-.52-.812-.488C770.184,774.94,769.164,774.68,769.053,775.326Zm-30.227-.163a.771.771,0,0,0,.163.488c.406.028.508-.25.649-.488A.608.608,0,0,0,738.826,775.164Zm25.189.163c-.716.219-1.119-.71-1.625-.163C762.792,775.259,763.631,775.753,764.015,775.326Zm-21.776.651c.078-.51-.2-.664-.487-.813C741.755,775.593,741.6,776.182,742.239,775.977Zm14.951,0v.324c.1.01.193.024.163.162h.325c.01-.1.024-.192.163-.162v-.324c-.1-.009-.192-.025-.163-.163h-.325C757.343,775.913,757.328,776.007,757.189,775.977Zm9.425.487c-.026.514.432.543.325,1.138h.651c.462-.634.175-1.192-.488-1.462C767.06,776.368,766.746,776.324,766.615,776.464Zm-25.351.813a1.061,1.061,0,0,0,.813.162c-.187-.355-.032-1.052-.488-1.138C741.5,776.641,741.186,776.765,741.264,777.277Zm10.4.162c.511.023.559-.417.65-.813C751.835,776.655,751.245,777,751.664,777.439Zm12.026-.326a12.723,12.723,0,0,0,1.949.975c.309-.07.408-.35.813-.325C766.2,776.73,764.4,777.3,763.69,777.114Zm-2.6,2.438a1.326,1.326,0,0,0,.976.325c.257-.286.745-.337.812-.813C762.524,778.434,761.4,779.131,761.089,779.552Z" transform="translate(-699.813 -666.599)" fill="red" fill-rule="evenodd"/>
    <path id="Path_2950" data-name="Path 2950" d="M800.488,701.653c.674.191.582,1.15,1.462,1.138-.18.415-.063,1.128-.487,1.3-.279-.265-.622-.954-.325-1.3-.02-.36-.689-.069-.974-.163.16,1.2-1.834.562-2.763,1.3a.823.823,0,0,0,.487.488c-.26.455-.731-.229-1.3,0,.32-.276.694-.5.813-.976a1.312,1.312,0,0,0-1.137.976c-.378-.11-.435-.541-.812-.651.237-.852.559-1.066.324-1.95.643.028-.051-.249.326-.488a1.055,1.055,0,0,0,.812.163,1.149,1.149,0,0,0,.325-.488c.05-.374-.469-.18-.487-.488a1.555,1.555,0,0,1-1.787.325,3.308,3.308,0,0,0,1.3-.813c.575.471,1.222.055,1.624.487.527-.013.114-.969.813-.812-.026.189.036.29.163.325.029.57-.549.534-.651.975.486.278.618.6,0,.813.4.246.662.638,1.3.65C799.15,702.082,800.2,702.208,800.488,701.653Zm-2.276,1.787c.082-.51-.354-.635,0-.975H797.4C797.333,703.127,797.567,703.49,798.212,703.439Z" transform="translate(-728.486 -669.303)" fill="red" fill-rule="evenodd"/>
    <path id="Path_2951" data-name="Path 2951" d="M818.9,705.95c.4.47-.428.587,0,1.3a.962.962,0,0,1-1.138-.162C817.845,706.413,818.922,706.731,818.9,705.95Z" transform="translate(-735.847 -671.326)" fill="red" fill-rule="evenodd"/>
    <path id="Path_2952" data-name="Path 2952" d="M814.643,712.414c.79-.194.722.469.974.812.739-.343,1.064.391,1.788-.162-.282.826-.77,1.274-.651,2.113-.444.118-.327-.324-.649-.326-.122-.5.446-.312.324-.813C816.007,713.324,814.763,713.431,814.643,712.414Z" transform="translate(-734.84 -673.402)" fill="red" fill-rule="evenodd"/>
    <path id="Path_2953" data-name="Path 2953" d="M823.849,715.07c.286.09-.331.628-.325.976-.284-.149-.564-.3-.487-.813C823.452,714.954,823.606,715.419,823.849,715.07Z" transform="translate(-737.546 -674.271)" fill="red" fill-rule="evenodd"/>
    <path id="Path_2954" data-name="Path 2954" d="M823.242,727.975c-1.018.152-.8-.933-1.463-1.138-.4.1-.024.76.162.813-.276.42-.756-.315-1.3-.163a1.336,1.336,0,0,0,0-1.137C821.349,727.119,823,726.491,823.242,727.975Z" transform="translate(-736.777 -677.914)" fill="red" fill-rule="evenodd"/>
    <path id="Path_2955" data-name="Path 2955" d="M761.6,819.71c.588.279,1.4.33,1.463,1.137-.323.326-.773-.051-1.138-.162C762.489,820.126,761.626,820.162,761.6,819.71Z" transform="translate(-717.714 -708.058)" fill="red" fill-rule="evenodd"/>
    <path id="Path_2956" data-name="Path 2956" d="M749.493,819.71c-.109,1.064.526,1.909-.813,1.788a.909.909,0,0,0,.162-.651,1.509,1.509,0,0,0-.649.975c-.386-.589-1.316-.634-1.951-.975C746.542,818.992,748.364,820.633,749.493,819.71Z" transform="translate(-712.754 -708.058)" fill="red" fill-rule="evenodd"/>
  </g>
  <path id="np_heart_3877511_000000" d="M24.854,11.2c.939-1.651,2.568-4.524,3.038-5.339A11.817,11.817,0,0,1,34.059.608,12.646,12.646,0,0,1,46.748,3.668a9.885,9.885,0,0,1,2.612,9.891,56.2,56.2,0,0,1-6.975,16.074c-6.212,9.538-15.626,19.52-16.549,20.775-.3.407-.572.974-.982,1.133a1.759,1.759,0,0,1-2.142-.629C19.01,46.463,7.875,32.263,5.97,29.632v0A30.542,30.542,0,0,1,.734,18.25C-.564,12.433-.453,7.261,3.661,3.055,6.572.111,12.146-.415,15.875,1.093c4.144,1.665,6.907,5.3,8.979,10.1Z" transform="translate(19.458 63.07) rotate(-24)"/>
</svg>

