<svg id="Group_326" data-name="Group 326" xmlns="http://www.w3.org/2000/svg" width="105.92" height="147.781" viewBox="0 0 105.92 147.781">
  <path id="Path_2792" data-name="Path 2792" d="M834.984,654.827c.474-.051.779.066.725.544a.675.675,0,0,1-.906,0A.854.854,0,0,0,834.984,654.827Z" transform="translate(-730.515 -654.816)" fill="#ffeb00" fill-rule="evenodd"/>
  <path id="Path_2793" data-name="Path 2793" d="M798.26,667.549a.655.655,0,0,1,.545,1.088C797.991,668.885,797.924,667.908,798.26,667.549Z" transform="translate(-721.538 -657.927)" fill="#ffeb00" fill-rule="evenodd"/>
  <path id="Path_2794" data-name="Path 2794" d="M769.043,670.9c.378-.076.48.125.725.181.056.419-.524.2-.544.544C768.978,671.574,769.074,671.177,769.043,670.9Z" transform="translate(-714.444 -658.743)" fill="#ffeb00" fill-rule="evenodd"/>
  <path id="Path_2795" data-name="Path 2795" d="M754.314,671.63c.359.125.484.484.545.907C754.024,672.587,753.808,672.011,754.314,671.63Z" transform="translate(-710.779 -658.925)" fill="#ffeb00" fill-rule="evenodd"/>
  <path id="Path_2796" data-name="Path 2796" d="M805.943,673.55h.363c-.033.155.071.171.182.181v.363c-.155-.034-.172.07-.182.181h-.363c.034-.155-.071-.172-.181-.181v-.363C805.917,673.765,805.933,673.66,805.943,673.55Z" transform="translate(-723.418 -659.394)" fill="#ffeb00" fill-rule="evenodd"/>
  <path id="Path_2797" data-name="Path 2797" d="M756.758,680.825c-.288.016-.692-.087-.726.181C755.4,680.641,756.9,679.753,756.758,680.825Z" transform="translate(-711.226 -661.047)" fill="#ffeb00" fill-rule="evenodd"/>
  <path id="Path_2798" data-name="Path 2798" d="M806.482,681.932c1.441-.413.437,1.619,1.633,1.451a1.541,1.541,0,0,1-.182,1.088C807.162,683.913,806.951,682.793,806.482,681.932Z" transform="translate(-723.594 -661.429)" fill="#ffeb00" fill-rule="evenodd"/>
  <path id="Path_2799" data-name="Path 2799" d="M783.09,682.855v.544a.889.889,0,0,1-1.088,0A.654.654,0,0,1,783.09,682.855Z" transform="translate(-717.611 -661.626)" fill="#ffeb00" fill-rule="evenodd"/>
  <path id="Path_2800" data-name="Path 2800" d="M762.8,683.15h1.451c-.093.572-.828.5-1.269.725A1.009,1.009,0,0,1,762.8,683.15Z" transform="translate(-712.919 -661.74)" fill="#ffeb00" fill-rule="evenodd"/>
  <path id="Path_2801" data-name="Path 2801" d="M718.664,684.426c-.212-.03-.323.04-.363.181C717.421,684.241,718.668,683.354,718.664,684.426Z" transform="translate(-701.967 -661.927)" fill="#ffeb00" fill-rule="evenodd"/>
  <path id="Path_2802" data-name="Path 2802" d="M738.747,684.534a.846.846,0,0,0-.181.543c-.474.051-.781-.066-.726-.543A.676.676,0,0,1,738.747,684.534Z" transform="translate(-706.817 -662.036)" fill="#ffeb00" fill-rule="evenodd"/>
  <path id="Path_2803" data-name="Path 2803" d="M781.871,684.83c.419.247,1.012.318.907,1.089-.482,0-1.035.067-1.269-.182C781.354,685.159,781.667,685.048,781.871,684.83Z" transform="translate(-717.481 -662.151)" fill="#ffeb00" fill-rule="evenodd"/>
  <path id="Path_2804" data-name="Path 2804" d="M759.732,685.31c.053.9-.886.806-1.269,1.269C758.192,686.083,758.893,685.27,759.732,685.31Z" transform="translate(-711.844 -662.268)" fill="#ffeb00" fill-rule="evenodd"/>
  <path id="Path_2805" data-name="Path 2805" d="M812.482,685.725c.212-.485.963-.016.725.545C812.5,686.556,812.832,685.8,812.482,685.725Z" transform="translate(-725.06 -662.32)" fill="#ffeb00" fill-rule="evenodd"/>
  <path id="Path_2806" data-name="Path 2806" d="M753.683,686.03h.725v.725A.68.68,0,0,1,753.683,686.03Z" transform="translate(-710.691 -662.444)" fill="#ffeb00" fill-rule="evenodd"/>
  <path id="Path_2807" data-name="Path 2807" d="M775.28,686.75c.756-.02.988.355.726.907C775.5,687.622,775.233,687.341,775.28,686.75Z" transform="translate(-715.967 -662.62)" fill="#ffeb00" fill-rule="evenodd"/>
  <path id="Path_2808" data-name="Path 2808" d="M778.8,687.223c.494-.131.364.36.725.363-.161.564-.186,1.265-.906,1.269C778.727,687.96,778.271,687.625,778.8,687.223Z" transform="translate(-716.765 -662.73)" fill="#ffeb00" fill-rule="evenodd"/>
  <path id="Path_2809" data-name="Path 2809" d="M775.574,688.19c.871.41.106,2.1-.363,2.358-.62.136-.23-.737-.907-.543-.235-.45.4-.88,0-.908C774.593,688.66,775.909,689.25,775.574,688.19Z" transform="translate(-715.717 -662.972)" fill="#ffeb00" fill-rule="evenodd"/>
  <path id="Path_2810" data-name="Path 2810" d="M784.771,689.6a1.541,1.541,0,0,1-1.088-.181C783.729,688.524,784.934,688.56,784.771,689.6Z" transform="translate(-718.022 -663.117)" fill="#ffeb00" fill-rule="evenodd"/>
  <path id="Path_2811" data-name="Path 2811" d="M779.842,689.136c.867-.263.451.758.544,1.269C779.8,690.392,780,689.584,779.842,689.136Z" transform="translate(-717.083 -663.193)" fill="#ffeb00" fill-rule="evenodd"/>
  <path id="Path_2812" data-name="Path 2812" d="M760.765,689.624a1.181,1.181,0,0,1,.906.181.82.82,0,0,0-.181,1.088,4.048,4.048,0,0,1-1.088.363A2.907,2.907,0,0,0,760.765,689.624Z" transform="translate(-712.333 -663.318)" fill="#ffeb00" fill-rule="evenodd"/>
  <path id="Path_2813" data-name="Path 2813" d="M782.33,690.06c0,.846-.22,1.473-1.089,1.451C780.811,690.936,781.546,689.422,782.33,690.06Z" transform="translate(-717.394 -663.391)" fill="#ffeb00" fill-rule="evenodd"/>
  <path id="Path_2814" data-name="Path 2814" d="M790.71,690.595c-.49.451-1.365.468-1.27-.544C789.885,689.66,790.781,689.915,790.71,690.595Z" transform="translate(-719.427 -663.382)" fill="#ffeb00" fill-rule="evenodd"/>
  <path id="Path_2815" data-name="Path 2815" d="M827.75,689.86c.342.665.1,1.45-.725,1.451A.828.828,0,0,1,827.75,689.86Z" transform="translate(-728.541 -663.373)" fill="#ffeb00" fill-rule="evenodd"/>
  <path id="Path_2816" data-name="Path 2816" d="M756.733,690.1c.555-.131.533.313,1.087.182-.266.519-.891.68-1.087,1.269C756.358,691.4,756.541,690.291,756.733,690.1Z" transform="translate(-711.383 -663.433)" fill="#ffeb00" fill-rule="evenodd"/>
  <path id="Path_2817" data-name="Path 2817" d="M807.438,690.108c.477-.054.6.251.544.725C807.505,690.889,807.388,690.582,807.438,690.108Z" transform="translate(-723.825 -663.439)" fill="#ffeb00" fill-rule="evenodd"/>
  <path id="Path_2818" data-name="Path 2818" d="M771.442,690.531c.265-.484,1,.075.907.543C771.972,690.967,771.763,690.693,771.442,690.531Z" transform="translate(-715.031 -663.498)" fill="#ffeb00" fill-rule="evenodd"/>
  <path id="Path_2819" data-name="Path 2819" d="M773.537,690.351c.512-.012.336.931-.181.906A1.175,1.175,0,0,1,773.537,690.351Z" transform="translate(-715.494 -663.5)" fill="#ffeb00" fill-rule="evenodd"/>
  <path id="Path_2820" data-name="Path 2820" d="M762.86,690.83c.317.166.629.337.543.907-.4.079-.983.417-1.088-.181C762.155,690.973,762.913,691.308,762.86,690.83Z" transform="translate(-712.795 -663.617)" fill="#ffeb00" fill-rule="evenodd"/>
  <path id="Path_2821" data-name="Path 2821" d="M745.164,691.06c.273.935-1.3,1.341-1.088.181C744.5,691.245,744.61,690.929,745.164,691.06Z" transform="translate(-708.338 -663.665)" fill="#ffeb00" fill-rule="evenodd"/>
  <path id="Path_2822" data-name="Path 2822" d="M753.916,691.069v.544c-.321-.042-.908.183-.725-.363A1.02,1.02,0,0,1,753.916,691.069Z" transform="translate(-710.562 -663.675)" fill="#ffeb00" fill-rule="evenodd"/>
  <path id="Path_2823" data-name="Path 2823" d="M777.68,691.07c.784.2,1.009.8,1.631.725-.1.565-1.051.278-1.451.544C777.612,692.105,777.682,691.552,777.68,691.07Z" transform="translate(-716.553 -663.676)" fill="#ffeb00" fill-rule="evenodd"/>
  <path id="Path_2824" data-name="Path 2824" d="M824.728,691.069a1.01,1.01,0,0,0-.181.725c-.293.051-.313-.171-.545-.181v-.363C824.328,691.273,824.385,691.029,824.728,691.069Z" transform="translate(-727.876 -663.674)" fill="#ffeb00" fill-rule="evenodd"/>
  <path id="Path_2825" data-name="Path 2825" d="M755.3,692.27c-.5.852.137,1.355.181,2.175-.769-.2-1.241-.693-1.088-1.813C754.738,692.555,754.849,692.242,755.3,692.27Z" transform="translate(-710.857 -663.969)" fill="#ffeb00" fill-rule="evenodd"/>
  <path id="Path_2826" data-name="Path 2826" d="M750.334,692.511c1.5.244,1.335,1.368,1.451,2.719a2.826,2.826,0,0,1-1.451-1.087c-.722,0-.524.927-1.451.725.189-1.02,1.356-1.061,2.357-1.269-.193-.717-.55.046-1.088,0A.819.819,0,0,1,750.334,692.511Z" transform="translate(-709.518 -664.028)" fill="#ffeb00" fill-rule="evenodd"/>
  <path id="Path_2827" data-name="Path 2827" d="M801.911,692.511h1.269c.156.578-.285.561-.362.906.44.78,1.417.465,2.175.181.125.729-.174,1.035-.181,1.632-.848-.5-1.241.251-2.175.182C803.4,694.312,801.608,694.182,801.911,692.511Z" transform="translate(-722.468 -664.028)" fill="#ffeb00" fill-rule="evenodd"/>
  <path id="Path_2828" data-name="Path 2828" d="M747.492,692.75c.45.215,1.138.193.908,1.088a1.045,1.045,0,0,0-1.27.544c-.553-.145-1.158-.886-.907-1.269.583-.159.249.6.725.544C747.307,693.531,747.432,693.173,747.492,692.75Z" transform="translate(-708.853 -664.086)" fill="#ffeb00" fill-rule="evenodd"/>
  <path id="Path_2829" data-name="Path 2829" d="M779.32,692.99c.765.022.574,1,1.27,1.089-.336.268-.272.937-.908.906C779.654,694.266,778.9,693.591,779.32,692.99Z" transform="translate(-716.925 -664.145)" fill="#ffeb00" fill-rule="evenodd"/>
  <path id="Path_2830" data-name="Path 2830" d="M828.428,692.99c.247.056.151.454.182.725h-.545C827.859,693.145,828.351,693.275,828.428,692.99Z" transform="translate(-728.856 -664.145)" fill="#ffeb00" fill-rule="evenodd"/>
  <path id="Path_2831" data-name="Path 2831" d="M742.771,693.844c.127.779-.944.59-1.088.181C741.665,693.357,742.591,693.4,742.771,693.844Z" transform="translate(-707.758 -664.274)" fill="#ffeb00" fill-rule="evenodd"/>
  <path id="Path_2832" data-name="Path 2832" d="M724.136,693.948c-.15.512.255.47.182.907a1.18,1.18,0,0,1-.907.181C723.193,694.527,723.307,693.88,724.136,693.948Z" transform="translate(-703.269 -664.378)" fill="#ffeb00" fill-rule="evenodd"/>
  <path id="Path_2833" data-name="Path 2833" d="M745.719,694.886a.785.785,0,0,0,.725,1.27c-.509.4-2.685-.077-3.083-.545C744.694,695.916,744.285,694.48,745.719,694.886Z" transform="translate(-708.168 -664.591)" fill="#ffeb00" fill-rule="evenodd"/>
  <path id="Path_2834" data-name="Path 2834" d="M794.963,694.91c.33.708,1.238-.283,1.269.725C795.563,695.64,794.983,695.555,794.963,694.91Z" transform="translate(-720.779 -664.614)" fill="#ffeb00" fill-rule="evenodd"/>
  <path id="Path_2835" data-name="Path 2835" d="M807.325,695.624c.378-.077.481.125.725.181-.09.476-.589,1.022-1.087.545C806.964,695.989,807.457,696.119,807.325,695.624Z" transform="translate(-723.712 -664.785)" fill="#ffeb00" fill-rule="evenodd"/>
  <path id="Path_2836" data-name="Path 2836" d="M751.053,696.11a5.879,5.879,0,0,0,.544,1.995c-1.2.612-.526-1.776-1.995-1.451A3.952,3.952,0,0,1,751.053,696.11Z" transform="translate(-709.693 -664.907)" fill="#ffeb00" fill-rule="evenodd"/>
  <path id="Path_2837" data-name="Path 2837" d="M748.59,697.324c-.579.156-.561-.285-.907-.363C747.818,696.29,748.661,696.743,748.59,697.324Z" transform="translate(-709.224 -665.034)" fill="#ffeb00" fill-rule="evenodd"/>
  <path id="Path_2838" data-name="Path 2838" d="M802.285,697.07c.4.026.39.457.363.907a.682.682,0,0,1-.726-.726C802.133,697.281,802.245,697.211,802.285,697.07Z" transform="translate(-722.48 -665.142)" fill="#ffeb00" fill-rule="evenodd"/>
  <path id="Path_2839" data-name="Path 2839" d="M743.01,697.79c-.224.441-.368.962-1.088.907C741.979,698.088,742.529,697.974,743.01,697.79Z" transform="translate(-707.816 -665.318)" fill="#ffeb00" fill-rule="evenodd"/>
  <path id="Path_2840" data-name="Path 2840" d="M723.683,698.03h.725c-.024.326.221.382.181.725C724,698.8,723.716,698.54,723.683,698.03Z" transform="translate(-703.359 -665.377)" fill="#ffeb00" fill-rule="evenodd"/>
  <path id="Path_2841" data-name="Path 2841" d="M820.05,698.414c0,.5-.856.43-1.087.181C819.144,698,819.7,697.977,820.05,698.414Z" transform="translate(-726.644 -665.397)" fill="#ffeb00" fill-rule="evenodd"/>
  <path id="Path_2842" data-name="Path 2842" d="M799.712,698.5a1.35,1.35,0,0,1-1.632,1.087C798,698.607,798.716,698.415,799.712,698.5Z" transform="translate(-721.539 -665.488)" fill="#ffeb00" fill-rule="evenodd"/>
  <path id="Path_2843" data-name="Path 2843" d="M803.367,698.75c.319.044.413.312.363.725-.426,0-.533.313-1.087.181C802.594,699.065,803.346,699.272,803.367,698.75Z" transform="translate(-722.655 -665.553)" fill="#ffeb00" fill-rule="evenodd"/>
  <path id="Path_2844" data-name="Path 2844" d="M805.111,699.47c.307.365-.731,1.387-1.269.908C804.31,700.119,804.617,699.7,805.111,699.47Z" transform="translate(-722.949 -665.729)" fill="#ffeb00" fill-rule="evenodd"/>
  <path id="Path_2845" data-name="Path 2845" d="M832.952,699.464c.256.92-.4.926-.725,1.269-.5.078-.169-.676-.543-.725C832.01,699.73,832.238,699.354,832.952,699.464Z" transform="translate(-729.753 -665.722)" fill="#ffeb00" fill-rule="evenodd"/>
  <path id="Path_2846" data-name="Path 2846" d="M710,699.71c.463.021.933.034.907.545C710.387,700.29,709.917,700.277,710,699.71Z" transform="translate(-700.012 -665.787)" fill="#ffeb00" fill-rule="evenodd"/>
  <path id="Path_2847" data-name="Path 2847" d="M809.554,701.63a1.022,1.022,0,0,0-.181.726,1.8,1.8,0,0,0-1.451.181C807.927,701.7,808.955,701.876,809.554,701.63Z" transform="translate(-723.946 -666.257)" fill="#ffeb00" fill-rule="evenodd"/>
  <path id="Path_2848" data-name="Path 2848" d="M807.031,702.288c-.133.41-.691.4-.725.906-.358-.125-.483-.484-.544-.906A1.133,1.133,0,0,1,807.031,702.288Z" transform="translate(-723.418 -666.37)" fill="#ffeb00" fill-rule="evenodd"/>
  <path id="Path_2849" data-name="Path 2849" d="M728.478,702.351h.544c.078.379-.124.479-.181.725C728.522,703.033,728.428,702.764,728.478,702.351Z" transform="translate(-704.528 -666.433)" fill="#ffeb00" fill-rule="evenodd"/>
  <path id="Path_2850" data-name="Path 2850" d="M810.8,703.064c.345.341.327-.107.906,0,.35.447.784,1,.181,1.451A1.429,1.429,0,0,1,810.8,703.064Z" transform="translate(-724.65 -666.603)" fill="#ffeb00" fill-rule="evenodd"/>
  <path id="Path_2851" data-name="Path 2851" d="M721.181,703.31c.311.233.714.376.725.907C721.216,704.806,720.417,703.738,721.181,703.31Z" transform="translate(-702.672 -666.667)" fill="#ffeb00" fill-rule="evenodd"/>
  <path id="Path_2852" data-name="Path 2852" d="M727.117,703.31c.02,1.45-1,.75-1.994,1.088C725.8,704.054,726.208,703.428,727.117,703.31Z" transform="translate(-703.711 -666.667)" fill="#ffeb00" fill-rule="evenodd"/>
  <path id="Path_2853" data-name="Path 2853" d="M733.474,703.859c-.18.668-1.7.335-1.632-.363C732.408,703.021,732.973,703.707,733.474,703.859Z" transform="translate(-705.352 -666.672)" fill="#ffeb00" fill-rule="evenodd"/>
  <path id="Path_2854" data-name="Path 2854" d="M729.912,704.027a1.54,1.54,0,0,1,1.088.182C731,704.485,729.656,704.605,729.912,704.027Z" transform="translate(-704.873 -666.84)" fill="#ffeb00" fill-rule="evenodd"/>
  <path id="Path_2855" data-name="Path 2855" d="M814.35,705.69c-.438.074-.395-.331-.908-.181C813.582,704.647,815.013,704.656,814.35,705.69Z" transform="translate(-725.295 -667.052)" fill="#ffeb00" fill-rule="evenodd"/>
  <path id="Path_2856" data-name="Path 2856" d="M806.664,704.99h.543v.725h-.725C806.458,705.39,806.7,705.333,806.664,704.99Z" transform="translate(-723.593 -667.078)" fill="#ffeb00" fill-rule="evenodd"/>
  <path id="Path_2857" data-name="Path 2857" d="M730.973,706.221c.026.872-1.055.636-1.269,1.269-.879-.4-1.828-1.047-2.9-.725.278-.507,1.235-.336,1.269-1.088q.853-.126.725.726C729.751,706.362,730.516,704.681,730.973,706.221Z" transform="translate(-704.121 -667.22)" fill="#ffeb00" fill-rule="evenodd"/>
  <path id="Path_2858" data-name="Path 2858" d="M719.066,706.91a3.378,3.378,0,0,0,1.451.181c.1.823-1.027.424-1.451.725A.675.675,0,0,1,719.066,706.91Z" transform="translate(-702.188 -667.547)" fill="#ffeb00" fill-rule="evenodd"/>
  <path id="Path_2859" data-name="Path 2859" d="M815.127,707.386v.726c-.495.131-.365-.36-.725-.364C814.446,707.43,814.714,707.335,815.127,707.386Z" transform="translate(-725.53 -667.66)" fill="#ffeb00" fill-rule="evenodd"/>
  <path id="Path_2860" data-name="Path 2860" d="M812.963,709.065c.558-.135.221.625.906.363-.214.27-.156.81-.725.726C813.275,709.6,812.958,709.492,812.963,709.065Z" transform="translate(-725.178 -668.069)" fill="#ffeb00" fill-rule="evenodd"/>
  <path id="Path_2861" data-name="Path 2861" d="M716.308,709.848c-.412-.132-1.415.327-1.269-.363C715.325,709.219,716.477,709.111,716.308,709.848Z" transform="translate(-701.243 -668.127)" fill="#ffeb00" fill-rule="evenodd"/>
  <path id="Path_2862" data-name="Path 2862" d="M719.085,709.309c.015.287-.087.692.181.726a10.541,10.541,0,0,1-1.994.906c.182.362.8.286.725.908a1.91,1.91,0,0,1-2-.363c.267-.761,1.109-.947,1.27-1.814C718.188,709.864,718.309,709.258,719.085,709.309Z" transform="translate(-701.482 -668.133)" fill="#ffeb00" fill-rule="evenodd"/>
  <path id="Path_2863" data-name="Path 2863" d="M818.661,709.79a1.506,1.506,0,0,1,.906.907c-.471-.487-.546.222-1.088.181A1.54,1.54,0,0,1,818.661,709.79Z" transform="translate(-726.523 -668.251)" fill="#ffeb00" fill-rule="evenodd"/>
  <path id="Path_2864" data-name="Path 2864" d="M814.643,710.028c.821-.1.423,1.028.725,1.451C814.737,711.384,814.894,710.5,814.643,710.028Z" transform="translate(-725.588 -668.307)" fill="#ffeb00" fill-rule="evenodd"/>
  <path id="Path_2865" data-name="Path 2865" d="M721.043,710.511c.572.032,1.081.127,1.087.725C721.558,711.2,721.049,711.109,721.043,710.511Z" transform="translate(-702.714 -668.427)" fill="#ffeb00" fill-rule="evenodd"/>
  <path id="Path_2866" data-name="Path 2866" d="M817.351,711.447c-.245.248-1.266.346-1.269-.181C816.254,710.49,817.5,710.3,817.351,711.447Z" transform="translate(-725.94 -668.457)" fill="#ffeb00" fill-rule="evenodd"/>
  <path id="Path_2867" data-name="Path 2867" d="M713.735,712.081a4.55,4.55,0,0,1-1.813-.182v-.725C712.733,710.638,713.514,711.449,713.735,712.081Z" transform="translate(-700.485 -668.546)" fill="#ffeb00" fill-rule="evenodd"/>
  <path id="Path_2868" data-name="Path 2868" d="M825.144,713.628c.293-.051.312.171.544.181-.158.265-.144.7-.725.545A1.023,1.023,0,0,0,825.144,713.628Z" transform="translate(-728.11 -669.187)" fill="#ffeb00" fill-rule="evenodd"/>
  <path id="Path_2869" data-name="Path 2869" d="M719.794,713.87c.019.512.684.771.181,1.269-.906-.341-.7-1.075-1.813-.906C718.521,713.926,719.294,714.035,719.794,713.87Z" transform="translate(-702.01 -669.248)" fill="#ffeb00" fill-rule="evenodd"/>
  <path id="Path_2870" data-name="Path 2870" d="M715.182,715.064a1.177,1.177,0,0,1,.907.181A1.366,1.366,0,0,1,715,716.333C714.58,715.915,715.336,715.75,715.182,715.064Z" transform="translate(-701.206 -669.535)" fill="#ffeb00" fill-rule="evenodd"/>
  <path id="Path_2871" data-name="Path 2871" d="M717.191,715.31c.594.01.693.516,1.452.363C718.581,716.557,716.907,716.322,717.191,715.31Z" transform="translate(-701.765 -669.6)" fill="#ffeb00" fill-rule="evenodd"/>
  <path id="Path_2872" data-name="Path 2872" d="M702.026,717.246c-.519.036-.989.023-.906-.544A.545.545,0,0,1,702.026,717.246Z" transform="translate(-697.842 -669.904)" fill="#ffeb00" fill-rule="evenodd"/>
  <path id="Path_2873" data-name="Path 2873" d="M696.8,718.431h.725c.132.494-.361.364-.363.725C696.842,719.113,696.747,718.844,696.8,718.431Z" transform="translate(-696.786 -670.362)" fill="#ffeb00" fill-rule="evenodd"/>
  <path id="Path_2874" data-name="Path 2874" d="M820.291,719.15c.1.753-.7,1.2-1.089.907C819.244,719.433,819.742,719.267,820.291,719.15Z" transform="translate(-726.703 -670.538)" fill="#ffeb00" fill-rule="evenodd"/>
  <path id="Path_2875" data-name="Path 2875" d="M822.413,719.63a1.981,1.981,0,0,0,2.176.363c.364.385-.257.809-.362,1.269a.653.653,0,0,1-.545-.906c-.51-.026-.522.444-.544.906-.427,0-.534-.312-1.088-.181C821.73,720.469,822.3,720.273,822.413,719.63Z" transform="translate(-727.375 -670.655)" fill="#ffeb00" fill-rule="evenodd"/>
  <path id="Path_2876" data-name="Path 2876" d="M819.923,721.381H819.2A.387.387,0,1,1,819.923,721.381Z" transform="translate(-726.698 -670.955)" fill="#ffeb00" fill-rule="evenodd"/>
  <path id="Path_2877" data-name="Path 2877" d="M714.631,721.5c.109.715-.406.8-.908.907.067-.308-.141-.342-.363-.362C713.286,721.2,714.073,721.231,714.631,721.5Z" transform="translate(-700.835 -671.071)" fill="#ffeb00" fill-rule="evenodd"/>
  <path id="Path_2878" data-name="Path 2878" d="M711.757,723.3c-.654-.294-.878.031-1.451-.181a.652.652,0,0,0-.544-.906C710.048,721.67,711.738,722.413,711.757,723.3Z" transform="translate(-699.957 -671.242)" fill="#ffeb00" fill-rule="evenodd"/>
  <path id="Path_2879" data-name="Path 2879" d="M825.49,722.03h.907c-.008.839-1.016.678-1.451,1.088C824.638,722.267,825.8,722.882,825.49,722.03Z" transform="translate(-728.094 -671.242)" fill="#ffeb00" fill-rule="evenodd"/>
  <path id="Path_2880" data-name="Path 2880" d="M821.565,722.271c.407.419-.571.99-1.269.906.225.682.8,1.01,1.087,1.632-.759.169-.718.122-1.087-.363a1.036,1.036,0,0,0-.545,1.089c-.931-.217-.692-1.606-1.269-2.177C819.492,722.607,820.4,722.869,821.565,722.271Z" transform="translate(-726.527 -671.301)" fill="#ffeb00" fill-rule="evenodd"/>
  <path id="Path_2881" data-name="Path 2881" d="M825.151,725.334c.192.676-.382.586-.543.908C823.755,726.047,824.626,724.69,825.151,725.334Z" transform="translate(-727.936 -672.007)" fill="#ffeb00" fill-rule="evenodd"/>
  <path id="Path_2882" data-name="Path 2882" d="M825.922,726.588c.571-.088.411.556,1.088.362v1.089C826.7,727.5,826.024,727.332,825.922,726.588Z" transform="translate(-728.345 -672.354)" fill="#ffeb00" fill-rule="evenodd"/>
  <path id="Path_2883" data-name="Path 2883" d="M822.437,728.75c.319.044.413.312.364.725h-.726C821.943,728.981,822.435,729.111,822.437,728.75Z" transform="translate(-727.399 -672.884)" fill="#ffeb00" fill-rule="evenodd"/>
  <path id="Path_2884" data-name="Path 2884" d="M706.771,729.467v.544h-1.088C706,729.782,706.158,729.4,706.771,729.467Z" transform="translate(-698.96 -673.058)" fill="#ffeb00" fill-rule="evenodd"/>
  <path id="Path_2885" data-name="Path 2885" d="M821.559,729.466c.047.592-.215.874-.725.907C820.437,729.955,820.888,729.361,821.559,729.466Z" transform="translate(-727.065 -673.056)" fill="#ffeb00" fill-rule="evenodd"/>
  <path id="Path_2886" data-name="Path 2886" d="M822.808,731.386v.726c-.269-.095-.458-.269-.726-.363C822.127,731.43,822.394,731.335,822.808,731.386Z" transform="translate(-727.406 -673.525)" fill="#ffeb00" fill-rule="evenodd"/>
  <path id="Path_2887" data-name="Path 2887" d="M826.162,731.39h.545c-.077.347-.066.781-.545.726Z" transform="translate(-728.404 -673.529)" fill="#ffeb00" fill-rule="evenodd"/>
  <path id="Path_2888" data-name="Path 2888" d="M833.586,732.1a1.182,1.182,0,0,1,.907.182C834.546,732.757,833.267,732.916,833.586,732.1Z" transform="translate(-730.205 -673.7)" fill="#ffeb00" fill-rule="evenodd"/>
  <path id="Path_2889" data-name="Path 2889" d="M833.25,733.057v.908h-1.088C832.444,733.581,832.368,732.841,833.25,733.057Z" transform="translate(-729.87 -673.927)" fill="#ffeb00" fill-rule="evenodd"/>
  <path id="Path_2890" data-name="Path 2890" d="M824.718,733.309c-.017.258-.03.513.181.544-.142.416-1.122.177-.907-.363A1.022,1.022,0,0,1,824.718,733.309Z" transform="translate(-727.866 -673.998)" fill="#ffeb00" fill-rule="evenodd"/>
  <path id="Path_2891" data-name="Path 2891" d="M826.711,735.536c-.663-.1-.815.8-1.27.363C825.367,735.227,826.642,734.451,826.711,735.536Z" transform="translate(-728.227 -674.411)" fill="#ffeb00" fill-rule="evenodd"/>
  <path id="Path_2892" data-name="Path 2892" d="M711.206,736.189v.725c-.347-.076-.78-.066-.725-.543A1.015,1.015,0,0,1,711.206,736.189Z" transform="translate(-700.131 -674.702)" fill="#ffeb00" fill-rule="evenodd"/>
  <path id="Path_2893" data-name="Path 2893" d="M708.216,739.55c.1.864.929,1.006,1.632,1.269-.035.692-.258,1.194-.907,1.269.165-.769-.3-.913-.725-1.088-1.065.456.209,2.135-1.089,2.358-.494-.493.469-.452.363-1.089-.017-.708-.732-.718-1.088-1.088C707.163,740.794,707.527,740.01,708.216,739.55Z" transform="translate(-699.136 -675.524)" fill="#ffeb00" fill-rule="evenodd"/>
  <path id="Path_2894" data-name="Path 2894" d="M824.189,742.494a1.184,1.184,0,0,1-.907-.181C823.3,741.772,824.363,741.827,824.189,742.494Z" transform="translate(-727.7 -676.109)" fill="#ffeb00" fill-rule="evenodd"/>
  <path id="Path_2895" data-name="Path 2895" d="M828.279,742.431c.645.321,1.515.419,1.814,1.087C829.424,744.543,827.646,743.269,828.279,742.431Z" transform="translate(-728.888 -676.228)" fill="#ffeb00" fill-rule="evenodd"/>
  <path id="Path_2896" data-name="Path 2896" d="M708.8,744.524c-.031-.394.643-.083.906-.181.241.382-.089.536.181,1.087C709.445,745.21,709.406,744.586,708.8,744.524Z" transform="translate(-699.722 -676.689)" fill="#ffeb00" fill-rule="evenodd"/>
  <path id="Path_2897" data-name="Path 2897" d="M830.719,744.83h1.269A.662.662,0,1,1,830.719,744.83Z" transform="translate(-729.515 -676.814)" fill="#ffeb00" fill-rule="evenodd"/>
  <path id="Path_2898" data-name="Path 2898" d="M704.312,745.062c0,.829-.6,1.258-1.269.907C703.282,745.483,703.432,744.907,704.312,745.062Z" transform="translate(-698.315 -676.864)" fill="#ffeb00" fill-rule="evenodd"/>
  <path id="Path_2899" data-name="Path 2899" d="M707.191,746.98c.242.383-.089.536.181,1.089-.653.063-.874.277-1.451,0C706.162,747.522,706.212,746.786,707.191,746.98Z" transform="translate(-699.018 -677.332)" fill="#ffeb00" fill-rule="evenodd"/>
  <path id="Path_2900" data-name="Path 2900" d="M833.358,748.665a1.181,1.181,0,0,1,.907.181c.056.419-.524.2-.544.544C833.4,749.346,833.307,749.078,833.358,748.665Z" transform="translate(-730.159 -677.747)" fill="#ffeb00" fill-rule="evenodd"/>
  <path id="Path_2901" data-name="Path 2901" d="M836.2,753.909c-.43.645-1.347,1.613-2.358,1.088C834.635,754.717,835.176,753.372,836.2,753.909Z" transform="translate(-730.28 -679.002)" fill="#ffeb00" fill-rule="evenodd"/>
  <path id="Path_2902" data-name="Path 2902" d="M833.85,760.906c-.912-.126-1.263.308-2.175.181C831.38,759.658,833.8,760.086,833.85,760.906Z" transform="translate(-729.745 -680.558)" fill="#ffeb00" fill-rule="evenodd"/>
  <path id="Path_2903" data-name="Path 2903" d="M706.526,764.511h.725c-.188.477-.719.61-.907,1.087C705.756,765.284,706.814,765.123,706.526,764.511Z" transform="translate(-699.077 -681.624)" fill="#ffeb00" fill-rule="evenodd"/>
  <path id="Path_2904" data-name="Path 2904" d="M833.3,764.511c1.363-.034,1.7.957,2.176,1.813-1.03,0-1.345-.71-2.357-.725A1.538,1.538,0,0,1,833.3,764.511Z" transform="translate(-730.101 -681.624)" fill="#ffeb00" fill-rule="evenodd"/>
  <path id="Path_2905" data-name="Path 2905" d="M831.68,766.19h.543c-.05.413.044.682.363.725-.056.246-.455.151-.726.181C832.011,766.584,831.605,766.627,831.68,766.19Z" transform="translate(-729.75 -682.034)" fill="#ffeb00" fill-rule="evenodd"/>
  <path id="Path_2906" data-name="Path 2906" d="M710.072,772.891c-.44.349-1.189-.154-1.269-.725A.958.958,0,0,1,710.072,772.891Z" transform="translate(-699.722 -683.476)" fill="#ffeb00" fill-rule="evenodd"/>
  <path id="Path_2907" data-name="Path 2907" d="M711.625,774.591c.568.125.236.483.181.906C711.344,775.479,711.377,774.821,711.625,774.591Z" transform="translate(-700.368 -684.087)" fill="#ffeb00" fill-rule="evenodd"/>
  <path id="Path_2908" data-name="Path 2908" d="M832.522,776.17c.107.651-.211.876-.363,1.269a1.6,1.6,0,0,1-1.451-.363C830.4,775.631,831.832,775.671,832.522,776.17Z" transform="translate(-729.504 -684.396)" fill="#ffeb00" fill-rule="evenodd"/>
  <path id="Path_2909" data-name="Path 2909" d="M710.963,789.23a1.726,1.726,0,0,1,1.269,1.632c-.482,0-1.037.069-1.269-.181Z" transform="translate(-700.25 -687.665)" fill="#ffeb00" fill-rule="evenodd"/>
  <path id="Path_2910" data-name="Path 2910" d="M824.738,794.7a1.133,1.133,0,0,1-.543,1.452,2.808,2.808,0,0,1-1.633-1.089A2.321,2.321,0,0,1,824.738,794.7Z" transform="translate(-727.524 -688.965)" fill="#ffeb00" fill-rule="evenodd"/>
  <path id="Path_2911" data-name="Path 2911" d="M823.837,803.237c-.128.658-1.322.251-1.995.363A1.125,1.125,0,0,1,823.837,803.237Z" transform="translate(-727.348 -690.973)" fill="#ffeb00" fill-rule="evenodd"/>
  <path id="Path_2912" data-name="Path 2912" d="M721.883,804.412c-.373-.111-1.26.292-1.087-.364C721.072,803.77,722.039,803.726,721.883,804.412Z" transform="translate(-702.648 -691.24)" fill="#ffeb00" fill-rule="evenodd"/>
  <path id="Path_2913" data-name="Path 2913" d="M827.106,804.585a1.179,1.179,0,0,1,.906.181C828.066,805.237,826.786,805.4,827.106,804.585Z" transform="translate(-728.622 -691.413)" fill="#ffeb00" fill-rule="evenodd"/>
  <path id="Path_2914" data-name="Path 2914" d="M718.883,804.83h.906c.115.493.877.885.363,1.451C719.231,806.3,718.912,805.707,718.883,804.83Z" transform="translate(-702.186 -691.477)" fill="#ffeb00" fill-rule="evenodd"/>
  <path id="Path_2915" data-name="Path 2915" d="M819.81,805.728c0,.5-.855.431-1.087.181C818.726,805.412,819.578,805.479,819.81,805.728Z" transform="translate(-726.586 -691.65)" fill="#ffeb00" fill-rule="evenodd"/>
  <path id="Path_2916" data-name="Path 2916" d="M821.594,809.923c-.088,1-1.609,1.245-2.176.725C818.9,809.141,821.325,809,821.594,809.923Z" transform="translate(-726.738 -692.581)" fill="#ffeb00" fill-rule="evenodd"/>
  <path id="Path_2917" data-name="Path 2917" d="M726.023,810.83c.549.116,1.047.283,1.088.907-.652.013-.5.827-1.269.725C726.093,811.783,725.636,811.448,726.023,810.83Z" transform="translate(-703.887 -692.944)" fill="#ffeb00" fill-rule="evenodd"/>
  <path id="Path_2918" data-name="Path 2918" d="M810.691,812.332c-.428,0-.534.312-1.089.181v-.544C809.878,811.69,810.846,811.646,810.691,812.332Z" transform="translate(-724.356 -693.175)" fill="#ffeb00" fill-rule="evenodd"/>
  <path id="Path_2919" data-name="Path 2919" d="M732.93,813.414c-.439.743.181,1.022.181,1.813-.6,0-.619-.59-1.269-.544.6-.582-.092-.792.181-1.269A.676.676,0,0,1,732.93,813.414Z" transform="translate(-705.353 -693.532)" fill="#ffeb00" fill-rule="evenodd"/>
  <path id="Path_2920" data-name="Path 2920" d="M730.227,814.729a1.037,1.037,0,0,1-1.089.544,1.178,1.178,0,0,1-.181-.906A.813.813,0,0,1,730.227,814.729Z" transform="translate(-704.643 -693.76)" fill="#ffeb00" fill-rule="evenodd"/>
  <path id="Path_2921" data-name="Path 2921" d="M724.834,814.968c-.6-.008-.9-.306-1.632-.181C723.451,814.457,724.923,814.05,724.834,814.968Z" transform="translate(-703.241 -693.818)" fill="#ffeb00" fill-rule="evenodd"/>
  <path id="Path_2922" data-name="Path 2922" d="M816.084,815.269a1.417,1.417,0,0,1-1.45.363C814.38,814.567,815.839,814.851,816.084,815.269Z" transform="translate(-725.579 -693.937)" fill="#ffeb00" fill-rule="evenodd"/>
  <path id="Path_2923" data-name="Path 2923" d="M740.423,815.63h.725c-.074.456-.62.833-.907.545A.859.859,0,0,0,740.423,815.63Z" transform="translate(-707.406 -694.117)" fill="#ffeb00" fill-rule="evenodd"/>
  <path id="Path_2924" data-name="Path 2924" d="M741.683,816.351c.528.158.2.271.181.725h-.906C740.824,816.458,741.626,816.777,741.683,816.351Z" transform="translate(-707.577 -694.293)" fill="#ffeb00" fill-rule="evenodd"/>
  <path id="Path_2925" data-name="Path 2925" d="M737.49,816.776c0,.5-.855.431-1.088.181C736.507,816.359,737.087,816.7,737.49,816.776Z" transform="translate(-706.467 -694.356)" fill="#ffeb00" fill-rule="evenodd"/>
  <path id="Path_2926" data-name="Path 2926" d="M736.478,818.813c.418.055.2-.524.543-.543.872-.086.464,1.107,1.451.906.553-.112.516-.813,1.452-.544-.132.555.313.533.181,1.088a50.864,50.864,0,0,0-5.622-.725C734.718,818.118,736.1,818.148,736.478,818.813Z" transform="translate(-705.998 -694.761)" fill="#ffeb00" fill-rule="evenodd"/>
  <path id="Path_2927" data-name="Path 2927" d="M786.989,819.18c-.157.265-.271.575-.725.544a.855.855,0,0,1-.181-.544C786.427,818.84,786.537,819.16,786.989,819.18Z" transform="translate(-718.608 -694.946)" fill="#ffeb00" fill-rule="evenodd"/>
  <path id="Path_2928" data-name="Path 2928" d="M775.892,819.883a1.351,1.351,0,0,1-1.632,1.088,1.545,1.545,0,0,1-.181-1.088A2.081,2.081,0,0,1,775.892,819.883Z" transform="translate(-715.672 -695.105)" fill="#ffeb00" fill-rule="evenodd"/>
  <path id="Path_2929" data-name="Path 2929" d="M740.482,820.847c.626-.554,1.466.219,1.814.544.023.326-.222.383-.181.726h-1.089C740.6,821.936,740.806,821.128,740.482,820.847Z" transform="translate(-707.464 -695.344)" fill="#ffeb00" fill-rule="evenodd"/>
  <path id="Path_2930" data-name="Path 2930" d="M772.179,820.91a1.822,1.822,0,0,1,1.451,1.632h-1.994C771.415,821.781,771.334,821.023,772.179,820.91Z" transform="translate(-715.042 -695.407)" fill="#ffeb00" fill-rule="evenodd"/>
  <path id="Path_2931" data-name="Path 2931" d="M797.842,821.114c.447-.483,1.465.721,1.088,1.089C798.319,822.088,798.485,821.2,797.842,821.114Z" transform="translate(-721.482 -695.429)" fill="#ffeb00" fill-rule="evenodd"/>
  <path id="Path_2932" data-name="Path 2932" d="M805.709,820.906c-.062.641-.475.469-.906.363C804.829,820.873,805.259,820.88,805.709,820.906Z" transform="translate(-723.184 -695.404)" fill="#ffeb00" fill-rule="evenodd"/>
  <path id="Path_2933" data-name="Path 2933" d="M767.021,821.15c-.223.381-.5.707-.725,1.089-.649-.357-.968.084-1.814,0C765.065,821.265,765.884,821.61,767.021,821.15Z" transform="translate(-713.33 -695.466)" fill="#ffeb00" fill-rule="evenodd"/>
  <path id="Path_2934" data-name="Path 2934" d="M808.827,821.15a.683.683,0,0,1,.543,1.089A.654.654,0,0,1,808.827,821.15Z" transform="translate(-724.125 -695.465)" fill="#ffeb00" fill-rule="evenodd"/>
  <path id="Path_2935" data-name="Path 2935" d="M812.13,821.62c-.249.574-.039.607,0,1.269a1.535,1.535,0,0,1-1.087.181c.549-.469.185-.674,0-1.269C811.469,821.806,811.577,821.489,812.13,821.62Z" transform="translate(-724.709 -695.573)" fill="#ffeb00" fill-rule="evenodd"/>
  <path id="Path_2936" data-name="Path 2936" d="M769.469,822.107c.02.451.34.561,0,.907-.431-.113-.845-.244-.907-.725C769.074,822.439,769.032,822.033,769.469,822.107Z" transform="translate(-714.327 -695.697)" fill="#ffeb00" fill-rule="evenodd"/>
  <path id="Path_2937" data-name="Path 2937" d="M760.7,822.578c.586-.224.138.586.725.362-.308.177-.465.5-.363,1.089-.422-.06-.781-.186-.907-.545C759.96,822.809,760.833,823.2,760.7,822.578Z" transform="translate(-712.265 -695.805)" fill="#ffeb00" fill-rule="evenodd"/>
  <path id="Path_2938" data-name="Path 2938" d="M737.361,823.306a1.543,1.543,0,0,1,1.089.181c-.125.358-.484.484-.908.545A1.021,1.021,0,0,1,737.361,823.306Z" transform="translate(-706.701 -695.99)" fill="#ffeb00" fill-rule="evenodd"/>
  <path id="Path_2939" data-name="Path 2939" d="M774.5,823.55c.462.019.428.675.182.907C774.224,824.439,774.257,823.781,774.5,823.55Z" transform="translate(-715.736 -696.052)" fill="#ffeb00" fill-rule="evenodd"/>
  <path id="Path_2940" data-name="Path 2940" d="M770.014,824.213c-.063.237-.319.284-.363.543C768.894,824.634,769.567,823.631,770.014,824.213Z" transform="translate(-714.509 -696.17)" fill="#ffeb00" fill-rule="evenodd"/>
  <path id="Path_2941" data-name="Path 2941" d="M762.8,825.23c.531.013,1.022.066.906.725C763.267,825.853,762.776,825.8,762.8,825.23Z" transform="translate(-712.919 -696.463)" fill="#ffeb00" fill-rule="evenodd"/>
  <path id="Path_2942" data-name="Path 2942" d="M784.4,825.466c.573-.088.641.327,1.269.181-.328.277-.555.654-1.269.545Z" transform="translate(-718.198 -696.518)" fill="#ffeb00" fill-rule="evenodd"/>
  <path id="Path_2943" data-name="Path 2943" d="M779.6,827.108a.387.387,0,1,1-.725,0C779.238,826.806,779.108,827.125,779.6,827.108Z" transform="translate(-716.845 -696.89)" fill="#ffeb00" fill-rule="evenodd"/>
  <path id="Path_2944" data-name="Path 2944" d="M763.111,827.543c-.078.406-.893.074-1.269.181C762.039,827.033,762.583,827.271,763.111,827.543Z" transform="translate(-712.685 -696.962)" fill="#ffeb00" fill-rule="evenodd"/>
  <path id="Path_2945" data-name="Path 2945" d="M770.242,828.591h.725c-.1.441-.155.932-.725.906Z" transform="translate(-714.737 -697.284)" fill="#ffeb00" fill-rule="evenodd"/>
  <path id="Path_2946" data-name="Path 2946" d="M790.4,828.591c.075.62-.055,1.033-.726.906C789.537,828.818,789.877,828.613,790.4,828.591Z" transform="translate(-719.479 -697.284)" fill="#ffeb00" fill-rule="evenodd"/>
  <path id="Path_2947" data-name="Path 2947" d="M821.549,849.842c-.144.636-.634.21-.906,0C820.786,849.205,821.277,849.632,821.549,849.842Z" transform="translate(-727.055 -702.396)" fill="#ffeb00" fill-rule="evenodd"/>
  <path id="Path_2948" data-name="Path 2948" d="M769.864,689.747c-.193-.677.45-.516.363-1.087.512-.15.469.255.907.181.02,1.047-.957,1.1-1.633,1.451C769.13,689.707,770.531,690.037,769.864,689.747Z" transform="translate(-714.541 -663.079)" fill="#ffeb00" fill-rule="evenodd"/>
  <path id="Path_2949" data-name="Path 2949" d="M765.826,692.218c.012-.617-.932-.277-.908-.908a3.384,3.384,0,0,0,1.451.181c-.107.378-.381.586-.543.907-.109.546.765,1.029,1.087.544.2.409.741,1.019.364,1.451.876-.151.452-1.6,1.631-1.451.411.437.558,1.135,1.632.907.054.477-.7.142-.543.725-.322-.463-1.165-.406-1.633-.725-.28.686-.9,1.032-1.087,1.813-.7.1-.747-.462-1.27-.543-.393-.031-.082.643-.181.906.317.287.965.243,1.451.363a1.689,1.689,0,0,0,1.269,1.632c.515.032-.22-1.186.543-.907-.163-.61-.406-.021-.725-.362.511-.5,1.13.431,1.814.362.5-.4-.121-1.2-.907-.907.194-.487.419-1.471-.544-1.269,1.057-.214,2.061-.534,2.538.363a1.291,1.291,0,0,1,1.814.181c.1.824-.093,1.358-.545,1.632-.627,0-1.368-1.113-1.813-.181.2.4.928.282,1.089.725.005.55-.913.175-.908.726.008,1.24,1.129,1.479,1.995.906a7.117,7.117,0,0,0,.725,2.357c-.572.089-.64-.326-1.269-.181.1-.369.546-.355.181-.725-.873.425-1.751-.118-1.995.725.051.381.485-.263.725.181a1.02,1.02,0,0,0-.181.726,5.133,5.133,0,0,0,3.628.725c.295.794,1.083,1.092,1.813,1.451.208.57-.284.441-.362.725.17.709.915.154,1.451.181-.094.474,1.052.617.362,1.088.222.262.692.276.907.544.054-.553.495-.97.182-1.632-.477-.054-.144.7-.725.544.03-.454-.28-.568-.544-.725.4-.148.895-.014,1.087-.725a17.353,17.353,0,0,0-1.813.363c-.174-.657.783-.184.907-.543.156-.822-.2-1.13-.725-1.27,1.017.143,1.731-.636,2.72-.362a3.733,3.733,0,0,1-.543,1.087c.512.2,2.118-.053,2.175-.906.916.233.74,1.555,2,1.451.494-.449-.653-.788-.545-1.451,1-.156.8.892,1.632.906-.107.372-.348.756-.725.363.488,1.021.931,2.089,2.175,2.357-.69,1.04.67.824.726,1.632-.617.013-1.266.057-1.451-.363a1.634,1.634,0,0,0-.726.725c.154.532.456-.236.907,0,.213.326-.314,1.38.725,1.269-.509.4-1.079,1.081-.725,1.814.57.091.71-.4,1.089,0a6.185,6.185,0,0,1-1.269,1.269c.488.419,1.132-.552,1.631-.726.422.273.277.444.181.907h.725c.074-.437-.331-.394-.181-.907-1.309-.048-.506-1.811-1.451-1.451.073-.532.595-.614.725-1.088.437.41,1.268.425,1.089,1.451,1.009.076-.088-1.418,1.087-1.451-.195.921.335,1.115.726,1.451-.379.954-1.829,1.8-1.813,2.539-.394.081-1.745-.5-2,.544,1.467-.566,1.477.705,2.539.545-.094-1.684,1.891-1.568,1.27-3.265.627-.143.765.2,1.087.363-.05.373-.676.17-.725.543a8,8,0,0,0,.908.725c.108.964-1.35,1.853-.364,2.539a5.642,5.642,0,0,0-1.087,1.632c.254.449.624.32,1.087.181a1.541,1.541,0,0,1-.181,1.088c.6.471,1.612-.444,1.632.726-.911.479-2.1-.151-2.9-.363-.583.3-.44,1.681.363,1.632.246-.056.15-.453.181-.725,1.078-.232.836.855,1.631.907-.094.45-.442.646-.725.907.194.356,1.076-.12,1.269-.363.512.153.5.83,1.088.907.135.558-.5.348-.362.907.048.428.8.111.725-.181.635.416-.567.5-.543.908.258.467.425,1.025,1.087,1.087.83-.081-.276-.78.182-.906.975.373.476,2.931,2.357,2.9.5-.165-.322-.636.181-.907.629.036,1.18.152,1.088.907-.7.565-2.565-.027-2.9.906-.054.477.7.143.544.726a6.584,6.584,0,0,0,2.176-.545c.364.361-.057.864-.181,1.269-.567-.279-1.668-.024-2-.544a4.2,4.2,0,0,0-1.813.907,1.76,1.76,0,0,1,.181,1.632c1.417-.459,1.613-1.129,3.446-1.269-.029.21.039.322.181.362.134.618-.669.3-.726.726a1.367,1.367,0,0,0,1.088,1.088c-.165.44-.728.481-1.269.544-.085.568.456.511.726.725-.074.531-1.064.146-1.27.544.688.3,1.738-.534,2.358.363.9-.552,1.965-.937,2.9-1.45.141,1.289-1.706.59-1.269,2.175-.611.115-.929.521-1.814.363.651.881-.136.635-.363,1.451.405.567.838-.357,1.269-.363.672.3,1.167.768,1.814,1.089-.085.785-1.612.265-1.633-.181-1.354,1.4,1.59,1.356,2.358,1.814-.393.574-1.374.561-1.089,1.813-1.617.231-2.835-.266-4.352-.543.239,1.151,1.838.941,3.083,1.087.379.71,1.182.994,1.27,2a4.545,4.545,0,0,1-1.813-.182c-.66.006-.8.533-.726,1.269.226.5.926.524,1.269.907-.579.561,1.342,1.321,1.27,2.54-.722.24-2.016-.256-2.72.362.161.323.506.462.363,1.089.447.831,1.8-.357,2.177.543-.094.692-1.127.445-.907,1.451a3.542,3.542,0,0,1,2.177,2.176c-1.056.336-2.4.379-2.72,1.451.1.927.7,1.356.906,2.177.922-.136,1.391.18,1.632.725.085.387-.258.345-.543.363-.059.32,1.016.323.725-.181.506,1.05,1.506.523,1.632,2a3.973,3.973,0,0,1-2.721.543c.4-1.695-1.949-.3-2.176.544.218,1.454,2.288.005,2.9.907-1.209.956.286,2.425-1.269,2.9-.329-.4-.3-1.153-1.087-1.088-.051.875-.62,1.349-.181,2.72-.454.453-1.386.428-1.269,1.451.045.2.36.123.362.363,1.242-.111,1.913-.576,2.9-.181-.705,1.048-2.632,1.621-3.445,1.088-.026-.016.251-.332.181-.362-1.365-.581-2.754-2.14-3.99.181-.584.039-.768-.321-1.451-.181-.162.827.6.733,1.088.906-.551,1.284.7,1.988,1.632,2.358.184.848-.727.6-.543,1.451.129.475,1.034.173,1.087.725-.3,1.185-2.165-.15-3.083.544.057-.425.562-.406.726-.725-1.1-.861-2.115.846-3.264.725,1.974,3.122-3.183,3.335-3.628,5.8.128.657,1.322.25,2,.363.234-.9-.44-.892-.363-1.633,1.285-.5,1.927.889,3.083,1.088-.915.838-3.193.312-3.083,2.177-.437-.075-.394.33-.906.181.689-1.859-1.368-1.547-2.721-1.451.019-1.1-2.031-1.155-2.357-.362.209.7,1.59.224,2.357.362.124.97-1.019.674-.907,1.632.785.425,2.448-.03,2.177,1.451-.865.673-1.1-.035-2-.18.048.617.817.512,1.088.906-.6.605-.864,1.554-2.175,1.451a1.392,1.392,0,0,1,.181-1.632c-.233-.673-1.14-.673-1.088-1.632.555.132.534-.313,1.088-.181-.64-.931-2.008-1.134-2.539-2.175-.358.125-.483.483-.543.906.022.4.769.077,1.087.181-.3.524-1.322.531-.725,1.451-.322.161-.461.506-1.088.363.059,1.481,2.44-.176,2.72,1.269-.462.465-.88-.041-1.088-.363-1.975-.162-2.3,1.329-4.352,1.088.387.606.156.887.363,1.451.982-.107,1.374-.8,1.813-1.451.679.109,1.975-.4,1.632.725-.406-.124-.908-.545-1.269-.181-.2,1.048.738.954,1.269,1.269-.7.5-1.268,2.052-2.358,1.089.019-.465.676-.292.908-.545-.484-.413-1.927-.241-1.995.363-.867-.041-.973-.842-2.177-.545-.444.161-.2,1.012-.906.907-.661.117-.224-.863-.726-.907-.465.762-.586,2.147-.906,2.539-.8.078-.394-1.057-1.089-1.088-.325-.023-.382.222-.725.181.02.452.34.561,0,.907-.812-.237-1.363-.618-1.632.363-.686-.747-1.68-.107-2.538-.725.121-.544,1.055-.275,1.269-.726.108-.579-.341-.561,0-.906,1.262.079,2.354-.793,3.808-.182.154-.758-.49-.718-.725-1.088-.642-.1-.446.643-1.089.544-.451.028-.561-.285-.907-.363V786.7c-1.7-.048-1.41.978-2.538,1.269-.085.568.456.512.725.725-.04.564-.9.307-1.45.363-.209-.571.284-.441.362-.726-.089-.308-.948.123-.725.726.023.4.77.076,1.089.18-.15.513.255.47.181.907-.753-.048-.707.238-1.27,0,.337-.32-.079-.53-.181-.907-.8-.271-1.249.186-1.814-.18-.066-.769.786-.159,1.088-.181.19-.563-.042-1.155.545-1.632-.054-.371-.491-.356-.545-.726-.661.546-1.225.38-1.995.544.019.465.676.292.907.544a3.155,3.155,0,0,0-.907,1.995,1.02,1.02,0,0,0-.725-.181c.221-.826-.5-.712-.363-1.451-.427,0-.534.313-1.088.181-.137-1.044,1.085-.728,1.451-1.269a2.229,2.229,0,0,1-1.813-.544c.05.219.332,1.442-.544,1.632-.771-.145-1.177-.6-1.813,0-.136.558.5.348.362.908-1.082-.747-1.065.954-1.994.362-.054-.477.7-.142.543-.725-.663-.589-.716.417-1.088.363-.34-.346.107-.329,0-.908-.325-.023-.382.222-.725.181-.023.326.221.383.181.726a6.106,6.106,0,0,0-3.445-.182c-.131-.554.185-.661.181-1.088a3.4,3.4,0,0,0-1.089.544c-.715-1.055-1.776-.218-2.72,0-.4.378.159.586-.181.907-.354-.311-1.015-.316-1.452-.545-.452.347.623.7.544,1.269-.319.165-.332.636-.544.907a3.156,3.156,0,0,1-1.814-.725.682.682,0,0,1,.725-.726c-.186-1.3-.92-.1-1.632-.544-.3.548-.9.8-1.269,1.269-.3-.183-.2-.77-.363-1.087.921.586,1.751-.55.907-1.089-.336.027-.111.614-.362.726a3.1,3.1,0,0,1-1.814-1.814,1.381,1.381,0,0,1-1.814-.181c-.7.1.14.7-.363,1.088a2.58,2.58,0,0,1-1.269-.544c.128-.718.28-1.413.907-1.632.155-.685-.812-.641-1.089-.363a1.939,1.939,0,0,1-1.088,2.539c-.094-.447-.094-1.124-.906-1.269.057-.425.286-.681.181-1.269a5.2,5.2,0,0,0-4.172-.543c.645-.6-.394-1.281-.907-.726-.085.568.456.511.725.726a.979.979,0,0,1-1.088.906c.267-1.052-.69-.881-1.269-1.087.26-.811.272-1.641-.725-1.632.041-.5.575-.514.725-.908-.043-.32-.311-.414-.725-.362-.393-.031-.082.642-.181.906-.5.106-.758.452-1.27.545-.312-1.065.128-1.135.363-2,.023-.326-.221-.382-.181-.725-1.053.258-1.73-.213-2.358.363.589.379.405,1.53,1.269,1.632-.215.632-.1,1.591-1.087,1.451.389-.975-.518-1.786-.726-2.72a6.968,6.968,0,0,0-4.171-.181c-.119.664.393.7.363,1.269a2.019,2.019,0,0,1-1.451.363v-1.632c.865.2,1.1-.232,1.451-.544-.147-.64-1.107-.465-1.089-1.269.77-.2.777-1.158,1.814-1.088.085-.568-.456-.511-.725-.725.908-1.068,1.728.71,2.9.544-.657-1.105-2.21-2.385-3.808-1.451a4.274,4.274,0,0,0-1.813-1.269c.1-.44,1.173.085,1.087-.544-.294-1.035-1.4-1.26-2.539-1.451a12.522,12.522,0,0,0,1.089-3.264,2.243,2.243,0,0,0,2.357-.907c-1-.717-2.3.669-3.808-.181a.68.68,0,0,1,.725-.725c-.094-1.116-.463-1.956-1.814-1.814-.117-.9.5-1.068.725-1.632-1.147-1.275-3.328-2.478-1.087-3.808-.159-.506-.729-.6-1.269-.725.626-.618.1-1.144-.545-1.451.806-3.286-3.185-.574-4.715-1.632,0-.36.495-.23.363-.725,1.352.14,1.989-.082,2.9.363.831-.5,1.463-1.2,2.357-1.632.574-.029.606.482,1.269.363.419.056.2-.524.544-.544-.034-.147-.181-.181-.181-.362a5.767,5.767,0,0,0-2.9-.907v-.725c.762.1,1.014-.317,1.632-.363v.545c.531.047.558-.41,1.088-.363-1.087-.355-3.239-3.388-3.99-.725a7.566,7.566,0,0,0-.725-1.088,4.594,4.594,0,0,1,1.451-1.813c-.5,1.939,1.813,1.244,2.176.544-.8-.165-1-.929-1.995-.907.159-.566.855-.6,1.089-1.088.051-.292-.172-.311-.181-.544-1.1-.074-1.3.756-1.451,1.632-.426.058-.682.287-1.269.181-.067-.55.59-.377.906-.543.107-.638-.858-.6-.363-1.089h.908c.083-1.05-.246-1.687-1.089-1.813.357-.23,2.06.4,1.995-.726.577.415-.234.96-.181,1.451.035.147.182.181.181.363,1.659-.518,2.414-1.938,3.446-3.083-1.655-.2-3.261,1.213-5.441,1.088-.649-1.706,2.855-.75,3.446-1.814-.3-.847-1.917-.38-1.813-1.632.629-.145.7.27,1.269.181.649-.138.123-1.449.907-1.451-.063-.6-1.044-.285-1.632-.362.31.814-.8.943-.543,1.631a4.127,4.127,0,0,1-2.9-.907c1.767-1.194,2.109-3,3.809-3.989-.105-.379-.45-.518-.363-1.089a4.159,4.159,0,0,1,2.539-1.088c-.15-.7-1.6-.089-1.813-.725.011-.595.516-.694.363-1.451-.02-.463-.607-.36-1.088-.363a1.372,1.372,0,0,0,.363-1.269c.5-.4,2.066.253,1.813-.908.582-.034.02.89,1.089.726.6-.272-.377-.443-.182-.907a1.959,1.959,0,0,1,1.088.907c-.334.671-.231.653-.181,1.633a7.455,7.455,0,0,0,1.45-.907,4.845,4.845,0,0,0-2.357-2.72c-.663,0-.815.515-1.269.726-.7.1-.886-.324-1.632-.181.074-.591.861-.469,1.269-.726-.135-.419-.722-.845.181-.907-.259-.728-1.052-.756-.544-1.813-.183-.3-.77-.2-1.088-.363.165-.658.536-.11,1.088-.181.223-.345.45-1.161.181-1.451-.629-.145-.7.271-1.269.181.147-.883-.322-1.02-.907-.725.773-1.531,2.179.278,3.083.725.485-.24.651-.8,1.089-1.088.078-.683-.384-.826-.726-1.087a.885.885,0,0,0-.363.906c-.7.078-.645.2-1.088-.181a2.924,2.924,0,0,0,.181-1.995,1.5,1.5,0,0,0,1.088-2.357,2.909,2.909,0,0,1,1.633.363c.568-.125.236-.484.181-.907a2.588,2.588,0,0,1,1.269-.544c-.2,1.21.931.863,1.451.544-.367-.54-1.283-.53-1.451-1.269-.761.025-.983.589-1.45.907a.9.9,0,0,1,.181-1.27c-.424-.337-1.153-.368-.725-1.088a.681.681,0,0,1,.725.726h1.632c-.028-.939-1.034-.9-1.087-1.814-.552.174-.73.722-1.633.545.3-.905-.881-.329-1.087-.726.676-.536-.434-1.379,0-1.632,1.093,1.61,3.419,1.247,5.077,1.995-.142.4-1.122-.035-.907.725.264.538.707-.239,1.269,0-.132.555.186.66.181,1.089h.725c-.085-.762-.173-1.52-.907-1.632-.129-.453.8-.746.181-1.089.113-.552.976-.354,1.088-.907.051-.292-.172-.312-.181-.544-.785,0-.717.855-1.27,1.089-.579-.087-.4-.93-1.088-.908-.66-.176-.084.883-.907.544.074-.642.793-.358.363-1.087.655-.011.878-.453,1.451-.545a.5.5,0,0,0,.363.545c.447-.159.406-.8,1.089-.726.112-1.745-2.139-1.126-2.54-2.357.775-.7,1.656,1.307,1.814.181.324-.023.382.221.725.18.076.379-.125.481-.182.725.079.406.894.074,1.27.181.2-.554-.3-.568.181-1.269-.077-.285-.57-.155-.362-.726-.482,0-1.036.07-1.27-.181.109-1.155,1.117-.527,1.813-.363.665-.442-.5-1.125,0-1.451.916.112.972,1.083,2.176.907.067.731-1.049.28-.907,1.088-.1.887,1.139.434,1.814.544-.2-.474-.782-1.377.362-1.269.088-.571-.556-.411-.362-1.089a1.347,1.347,0,0,1,1.813.544,10.522,10.522,0,0,0,2.539-3.627c.891.881,3.441,1,3.627-.725.031-.393-.643-.082-.906-.181.68-.286.795-1.139,1.451-1.451-.07-.663-1.435-.974-.726-1.814-1.006-.384-.988-1.793-2.175-1.995a3.621,3.621,0,0,1,.906-1.269c.853.217-.42.621.181,1.089,1.025-.419,1.166-.567,1.995.181-1.044,2.088,2.762,3.393.363,4.715.209.637,1.136.556,1.994.544V700.2c-.022-.4-.769-.077-1.087-.181.085-.64.785-.665,1.269-.907-.47-.849.5-1.135.725-1.814,1.724.485,2.125-.308,3.446-.907a1.038,1.038,0,0,1,.545,1.088c.858-.509,1.266.228,1.632.726.8-.23,1.782-1.372,2.538-.545.45-.094.647-.442.907-.725-.5.232-1.731-.575-2.175-.362-.308.358-.128,1.2-1.089.906.546-.895,1.22-1.383,1.089-2.539.6,0,.48.728.906.907.554.01.435-.653,1.088-.543.185.237.178.669.363.906.855-1.221,2.151-.88,3.083-1.995.488-.125.351.375.544.544.637.032.6-.612,1.088-.725.18-.68-.891-.395-.363-.907.905.716,1.9.357,3.264.726-.391-.932.31-.757.181-1.813,2.973,1.174-1.367,2.783-2.357,3.807-.624-.1-.106-.7,0-1.088a7.489,7.489,0,0,1-2.721,1.632c.058.426.561.406.725.725.7-.929,1.291-.017,2.176-.362.051.292-.171.311-.181.543.781-.237.713.376.906.726,1.427-.251.587-1.393,1.269-2.176-.512-.15-.469.255-.906.181-.075-.437.33-.394.181-.906.689.081,1.29-.47,1.813,0,.64-.661,1.453-1.805,1.089-2.9.556,1.359,1.942.277,2.9,0,.045.716.635.887,1.269.543-.4,1.182-1.583,1.04-2.719.725.134.8.717.337,1.269.907-.218.282-.579.707-.181,1.088.44-.105.4-.685.545-1.088.779.573,1.1,1.385,1.994,1.088-.022-.672-.263-.456-.725-.362-.073-.438.332-.394.182-.908.651.075,1.4.046,1.632.544-.3.731-1.093.964-1.089,2a1.326,1.326,0,0,0,1.27-1.089c.469.233.57.375.362.908h.544c.356-.25.1-1.112.363-1.451.494-.133.364.36.725.362.147-.035.181-.182.363-.181-.834-1.166.421-1.641,0-2.721.62-.076,1.033.054.907.725C765.481,693.444,764.97,692.147,765.826,692.218Zm.725,2.9c.147-.338.235-.733.545-.908-.142-.04-.212-.152-.182-.362-1.269-.567-2.139.389-2.719-.545-.657.48-.279,1.6.181,2-.8-.139-.838.49-1.451.543.006.66.534.8,1.27.726.335-.391.217-1.234,1.087-1.089.194-.677-.45-.517-.363-1.088A4.316,4.316,0,0,1,766.55,695.119Zm15.233,11.243c1.038-.071.447,1.488,1.269,1.632.042-.321-.182-.908.363-.725-.148.692.386.7.725.906.008-.778.8-.772.907-1.451-.569-.3-.74.675-.907.181.417-.646.327-1.1.181-1.995A2.36,2.36,0,0,0,781.784,706.362Zm-69.092,28.653c.705-.112,1.548.778,1.813,0-.285-.017-.629.025-.544-.362.592.047.873-.215.907-.726-.457-.268-.589-.862-1.451-.725C714.261,734.195,713,734.214,712.691,735.015ZM754.4,695.844c-.427,0-.533-.312-1.088-.181a2.59,2.59,0,0,0-.544,1.269c1-.1,2.242-.791,2.539.363.826-.808.229-1.205-.181-1.994.171-.373.934-.154.906-.726a.851.851,0,0,1-.544-.181C755,694.754,755.006,695.6,754.4,695.844Zm-23.574.181c.471.167,1.316.114,1.451-.544C731.667,695.537,730.705,695.239,730.826,696.025Zm25.933.363h1.631c.072,1.444,2.1,2.252,2.721,1.088a2.661,2.661,0,0,1-2.177-1.632,4.6,4.6,0,0,1-2.175-.363Zm7.616,2.9c.773-.481.676.376,1.27.545a1.012,1.012,0,0,1,.181-.726c-.689-.1-.865-.707-1.088-1.269.36-.3.23.017.725,0,.013-.617-.534-.676-.907-.907C764.356,697.6,763.805,698.155,764.374,699.289ZM762.2,698.2a3.362,3.362,0,0,0-.544-1.089C761.168,697.444,761.317,698.287,762.2,698.2Zm-15.052,1.269c.189-.755.243-1.758-.543-1.995C745.794,697.976,746.446,699.357,747.146,699.471Zm-9.974-.181c.222-.312.107-1.448-.362-1.632C736.3,697.992,736.375,699.255,737.172,699.289Zm11.97.363c1.241-1.251,3.065.634,4.352-.363-1.036-.3-.435-.542-.363-1.451C751.722,699.184,749.2,696.6,749.142,699.653Zm-9.794-1.451a1.178,1.178,0,0,0-.906-.182C738.336,698.755,739.188,698.6,739.349,698.2Zm.545,1.813c1.236-.292.265-.979.181-1.813-.214.028-.515-.031-.545.181C740.06,698.769,739.352,699.176,739.893,700.015Zm26.657-1.088c.027.709.618.725.181,1.451.746-.02.6.848,1.269.907-.26-1.141,1.234-.387,1.813-.907-.375-1.087-1.626-.271-1.813-1.632C767.33,698.953,766.95,698.763,766.55,698.927Zm-1.632.726c-.758-.029-.923-.649-1.632-.726C763.15,699.777,764.646,700.347,764.918,699.653Zm-6.709,0c-.136.558.625.221.362.906.751.085.482-.848.725-1.269C758.563,699.038,758.723,699.684,758.209,699.653Zm-15.6,0c-.131.824,1.132.6.907-.182C743.007,699.321,743.049,699.726,742.613,699.653Zm11.606.725c.785.277.979-.828.363-.907C754.505,699.816,754.064,699.8,754.219,700.377Zm7.254-.363c-.331-.048-1.016-.653-1.269-.181C760.7,700.145,761.126,700.967,761.473,700.015Zm-15.414,0a.85.85,0,0,0,.181.544c.454.031.568-.278.725-.544A.675.675,0,0,0,746.059,700.015Zm10.155.181c-.172.835,1.347.473,1.269-.181C756.91,699.926,756.842,700.342,756.214,700.2ZM735,702.554c.636-.15.849-.723,1.088-1.269C735.538,701.524,735.031,701.8,735,702.554Zm-1.269.907c.428-.45.072-1.138-.725-.907C732.954,703.145,733.217,703.426,733.727,703.46Zm40.078,2.177c-.123.685-.222.975.543,1.087-.391-1.133.743-.663,1.088-1.814-.363.041-.734-.809-1.088-.181C774.988,704.83,774.44,705.74,773.805,705.637Zm-41.167-.182c-.677.194-.516-.45-1.088-.363C731.441,705.734,732.491,706.143,732.639,705.455Zm-7.979.363c.277.4,1.278.612,1.087-.363C725.227,705.417,724.826,705.5,724.66,705.819Zm55.673,1.087c.79-.073,1.006.145.725.725.437.075.4-.331.907-.18.029-.514-.544-.423-.544-.908C780.94,706.546,780.354,706.443,780.333,706.906Zm-56.58,2.357a.866.866,0,0,0-.907-.907Q722.784,709.327,723.753,709.263Zm59.482,2.9c-.032-.572-.127-1.081-.725-1.088C782.61,711.581,782.492,712.3,783.234,712.165Zm1.269,2.358a1.019,1.019,0,0,0,.726-.181c-.063-.481-.477-.612-.908-.725A1.18,1.18,0,0,0,784.5,714.522Zm4.171.725c.818-.125.416.305.363.725.756.091.871-.459.908-1.087-.361,0-.231-.5-.726-.363C789.273,715,788.515,714.666,788.675,715.248Zm-3.083.907c.36-.271,1.46-1.022.544-1.45C785.906,715.31,785.528,715.736,785.592,716.154Zm-1.994.907c.287-.271.264-1.034-.363-.907C782.947,716.426,782.969,717.189,783.6,717.061Zm2.719.544c.757-.005.81-.7.363-1.087C786.576,716.9,786.23,717.035,786.317,717.605Zm1.269,1.088a1.019,1.019,0,0,0,.726-.181,6.231,6.231,0,0,0-.907-1.451C786.623,717.83,788.151,718.144,787.587,718.693Zm-2.539.363c.051-.614.359-1.111-.544-1.087C784.439,718.6,784.078,719.147,785.048,719.056Zm-70.906,1.088c.739-.132,1.653.106,1.087.726.6.058.2-.892,1.088-.545-.427-.78-.868-.737-.543-1.995C714.116,717.934,713.409,719.2,714.142,720.144Zm3.989-.725c-.023-.581-.411-.8-1.088-.726C716.147,719.819,717.4,719.294,718.131,719.419Zm-5.078,4.714c-.452.994.336.884.363,1.813.343-.08,1.093.247.907-.362-.057-.427-.861-.108-.726-.726.734-.112.8-.9,1.088-1.451C714.094,723.6,713.743,724.038,713.053,724.134Zm77.072,1.088c.667.062.549-.661.725-1.088C790.027,724.073,789.829,724.633,790.126,725.222Zm-73.627-.181c-.673.375-.474-.26-1.269-.181.042.343-.2.4-.181.726a5.52,5.52,0,0,0,1.632,0c-.131-.412.327-1.415-.363-1.27C715.953,724.685,716.4,724.671,716.5,725.041Zm74.716,1.632c.292.373.909.421,1.632.363a1.438,1.438,0,0,0-1.451-1.27C791.469,726.2,791.063,726.16,791.215,726.673Zm0,1.814c.6.305.618-.115,1.269-.181v-.726C792.1,727.329,791.3,727.869,791.215,728.487Zm1.451,0a.683.683,0,0,0,1.087-.545A.654.654,0,0,0,792.665,728.487Zm-75.259,2.538c.579.026.538.671,1.087.725a1.033,1.033,0,0,0-.725-1.269C717.725,730.74,717.47,730.788,717.406,731.025Zm77.8.907c.233.249,1.084.316,1.088-.181C795.936,731.314,795.385,731.333,795.2,731.932Zm-83.6,5.984c.945-.021,1.151-.784,1.451-1.451C712.177,736.556,711.545,736.891,711.6,737.916Zm85.233.907a1.281,1.281,0,0,0,1.088.725c-.288-.717.168-1.051-.181-1.632C797.073,737.851,796.984,738.367,796.835,738.823Zm-84.144,2.9v.544c.691.086,1.132-.077,1.269-.544A1.135,1.135,0,0,0,712.691,741.724Zm2.719,3.083c.282.218.707.58,1.088.182C716.7,744.281,715.418,744.262,715.411,744.807Zm-2.9,3.627c.412-.615.6-1.454,1.995-1.088-.194-.678.451-.517.363-1.088C713.234,745.224,711.087,747.018,712.509,748.434Zm.725,2.358a1.186,1.186,0,0,0,.908.182C714.316,750.307,713.25,750.252,713.234,750.792Zm-1.451,5.259a1.181,1.181,0,0,0,.181.907c.573-.033,1.081-.128,1.088-.725-.141-.04-.21-.152-.181-.363A1.548,1.548,0,0,0,711.784,756.051Zm2.176,3.264c.342.041.4-.2.725-.181q.05-.593-.543-.543C714.084,758.835,713.884,758.937,713.96,759.315Zm-.181.907c-.109.714.406.8.907.906a1.635,1.635,0,0,0,.725-.726A1.393,1.393,0,0,0,713.779,760.222Zm81.787,3.626c-.35-.073-.143-.7-.725-.543C794.753,763.716,795.3,764.394,795.566,763.849Zm0,1.995c.128.895,1.043.93,1.814.725C797.423,765.726,796,765.63,795.566,765.844Zm-3.264,1.451a.861.861,0,0,0,.181.545c.57.085.741-.227.907-.545A.889.889,0,0,0,792.3,767.294Zm-75.44,3.99c.233.249,1.085.315,1.088-.181C717.594,770.667,717.043,770.685,716.861,771.284Zm2.54.725c.237-.561-.515-1.028-.725-.544C719.152,771.412,718.818,772.169,719.4,772.009Zm72.9.725c.379.1.518.45,1.088.363C793.5,772.456,792.451,772.048,792.3,772.735Zm-70,5.8c.423.055.782.388.907-.181C722.977,778.109,722.321,778.077,722.3,778.538Zm-3.445,1.088a1.8,1.8,0,0,0,2.357-.725A1.386,1.386,0,0,0,718.857,779.626Zm57.487,5.44c.824.5,1.279-.716,2.175-.725.083-.567-.387-.58-.906-.545C777.606,784.636,776.468,784.345,776.344,785.066Zm-33.731-.181a.86.86,0,0,0,.182.544c.453.031.567-.279.725-.544A.678.678,0,0,0,742.613,784.885Zm28.109.181c-.8.245-1.249-.793-1.813-.181C769.358,784.991,770.293,785.542,770.722,785.066Zm-24.3.726c.087-.57-.226-.741-.543-.908C745.882,785.364,745.708,786.021,746.421,785.792Zm16.684,0v.362c.111.011.215.027.181.181h.363c.011-.11.027-.215.181-.181v-.362c-.11-.01-.215-.028-.181-.182h-.363C763.276,785.721,763.26,785.826,763.1,785.792Zm10.518.543c-.029.574.482.606.363,1.269h.726c.516-.708.2-1.33-.545-1.631C774.12,786.229,773.77,786.18,773.623,786.336Zm-28.29.907a1.184,1.184,0,0,0,.907.181c-.208-.4-.036-1.173-.544-1.27C745.591,786.534,745.246,786.672,745.333,787.243Zm11.606.181c.57.026.623-.465.725-.907C757.13,786.55,756.471,786.934,756.939,787.425Zm13.42-.363a14.206,14.206,0,0,0,2.175,1.088c.345-.078.456-.391.907-.363C773.155,786.633,771.149,787.264,770.36,787.061Zm-2.9,2.72a1.48,1.48,0,0,0,1.089.363c.286-.319.832-.376.906-.907C769.058,788.534,767.8,789.312,767.457,789.781Z" transform="translate(-699.077 -663.734)" fill="#ffeb00" fill-rule="evenodd"/>
  <path id="Path_2950" data-name="Path 2950" d="M801.129,701.881c.753.213.649,1.284,1.631,1.269-.2.463-.07,1.259-.544,1.45-.311-.3-.694-1.065-.363-1.45-.022-.4-.769-.077-1.087-.182.178,1.334-2.047.627-3.084,1.451a.918.918,0,0,0,.544.545c-.29.508-.816-.255-1.451,0,.357-.308.775-.556.907-1.089a1.464,1.464,0,0,0-1.269,1.089c-.422-.123-.486-.6-.907-.726.264-.951.624-1.189.362-2.176.717.031-.057-.278.363-.544a1.177,1.177,0,0,0,.906.182,1.282,1.282,0,0,0,.363-.545c.056-.418-.524-.2-.544-.544a1.735,1.735,0,0,1-1.994.363,3.692,3.692,0,0,0,1.451-.907c.642.525,1.363.062,1.813.544.589-.015.128-1.081.907-.907-.029.211.04.323.182.363.032.636-.613.6-.726,1.088.543.31.689.674,0,.907.45.275.739.712,1.451.725C799.635,702.36,800.811,702.5,801.129,701.881Zm-2.54,1.994c.091-.57-.4-.709,0-1.088h-.907C797.608,703.526,797.869,703.931,798.589,703.875Z" transform="translate(-720.779 -665.781)" fill="#ffeb00" fill-rule="evenodd"/>
  <path id="Path_2951" data-name="Path 2951" d="M819.031,705.95c.451.524-.478.655,0,1.451a1.073,1.073,0,0,1-1.269-.181C817.855,706.467,819.056,706.821,819.031,705.95Z" transform="translate(-726.351 -667.312)" fill="#ffeb00" fill-rule="evenodd"/>
  <path id="Path_2952" data-name="Path 2952" d="M814.643,712.418c.881-.217.805.523,1.087.906.825-.382,1.188.437,2-.181-.314.922-.859,1.421-.726,2.358-.495.131-.365-.361-.725-.363-.136-.558.5-.348.362-.907C816.165,713.434,814.777,713.553,814.643,712.418Z" transform="translate(-725.588 -668.883)" fill="#ffeb00" fill-rule="evenodd"/>
  <path id="Path_2953" data-name="Path 2953" d="M823.944,715.07c.319.1-.369.7-.363,1.089-.317-.166-.629-.339-.543-.908C823.5,714.94,823.673,715.459,823.944,715.07Z" transform="translate(-727.637 -669.541)" fill="#ffeb00" fill-rule="evenodd"/>
  <path id="Path_2954" data-name="Path 2954" d="M823.544,728.164c-1.136.169-.892-1.041-1.632-1.269-.443.116-.027.848.181.908-.307.469-.843-.351-1.45-.182a1.491,1.491,0,0,0,0-1.269C821.43,727.208,823.273,726.507,823.544,728.164Z" transform="translate(-727.055 -672.298)" fill="#ffeb00" fill-rule="evenodd"/>
  <path id="Path_2955" data-name="Path 2955" d="M761.6,819.71c.657.311,1.566.369,1.632,1.269-.36.364-.863-.057-1.27-.181C762.592,820.174,761.628,820.215,761.6,819.71Z" transform="translate(-712.626 -695.114)" fill="#ffeb00" fill-rule="evenodd"/>
  <path id="Path_2956" data-name="Path 2956" d="M749.87,819.71c-.122,1.188.587,2.13-.908,2a1.015,1.015,0,0,0,.181-.726,1.684,1.684,0,0,0-.725,1.088c-.431-.657-1.468-.707-2.177-1.088C746.577,818.908,748.61,820.74,749.87,819.71Z" transform="translate(-708.872 -695.114)" fill="#ffeb00" fill-rule="evenodd"/>
</svg>
