<svg id="Group_162" data-name="Group 162" xmlns="http://www.w3.org/2000/svg" xmlns:xlink="http://www.w3.org/1999/xlink" width="100%" height="60%" viewBox="0 0 1600 440">
  <defs>
    <clipPath id="clip-path">
      <rect width="100%" height="60%" fill="none"/>
    </clipPath>
  </defs>
  <path id="Exclusion_1" data-name="Exclusion 1" d="M5702-1266H4102v-440H5702v440ZM4163.5-1568.075a21.912,21.912,0,0,0-8.369,1.641,21.473,21.473,0,0,0-6.834,4.475,20.794,20.794,0,0,0-4.607,6.638,20.235,20.235,0,0,0-1.689,8.129,20.236,20.236,0,0,0,1.689,8.129,20.8,20.8,0,0,0,4.607,6.638,21.471,21.471,0,0,0,6.834,4.475,21.912,21.912,0,0,0,8.369,1.641,21.906,21.906,0,0,0,8.368-1.641,21.471,21.471,0,0,0,6.834-4.475,20.793,20.793,0,0,0,4.607-6.638,20.239,20.239,0,0,0,1.689-8.129,20.238,20.238,0,0,0-1.689-8.129,20.788,20.788,0,0,0-4.607-6.638,21.466,21.466,0,0,0-6.834-4.475A21.906,21.906,0,0,0,4163.5-1568.075Z" transform="translate(-4102 1706)" fill="#fff"/>
  <g id="Repeat_Grid_3" data-name="Repeat Grid 3" transform="translate(0 80)" clip-path="url(#clip-path)">
    <g transform="translate(0 -40)">
      <rect id="Rectangle_471" data-name="Rectangle 471" width="1600" height="1" transform="translate(0 40)" fill="#00baff"/>
    </g>
    <g transform="translate(0 41)">
      <rect id="Rectangle_471-2" data-name="Rectangle 471" width="1600" height="1" transform="translate(0 40)" fill="#00baff"/>
    </g>
    <g transform="translate(0 122)">
      <rect id="Rectangle_471-3" data-name="Rectangle 471" width="1600" height="1" transform="translate(0 40)" fill="#00baff"/>
    </g>
    <g transform="translate(0 203)">
      <rect id="Rectangle_471-4" data-name="Rectangle 471" width="1600" height="1" transform="translate(0 40)" fill="#00baff"/>
    </g>
    <g transform="translate(0 284)">
      <rect id="Rectangle_471-5" data-name="Rectangle 471" width="1600" height="1" transform="translate(0 40)" fill="#00baff"/>
    </g>
  </g>
  <rect id="Rectangle_472" data-name="Rectangle 472" width="1" height="440" transform="translate(131)" fill="#f60600"/>
</svg>
