<svg xmlns="http://www.w3.org/2000/svg" width="199.305" height="297" viewBox="0 0 199.305 297">
  <text id="Growth_Rate" data-name="Growth Rate" transform="translate(97.324 17)" fill="#1a1818" font-size="16" font-family="SegoeUI-Bold, Segoe UI" font-weight="700"><tspan x="-47.184" y="0">Growth Rate</tspan></text>
  <g id="Group_276" data-name="Group 276" transform="translate(-549.676 -3402)">
    <g id="Group_268" data-name="Group 268">
      <text id="_0-50_" data-name="0-50%" transform="translate(622.4 3643)" fill="#1a1818" font-size="14" font-family="SegoeUI-Bold, Segoe UI" font-weight="700"><tspan x="0" y="0">0-50%</tspan></text>
      <path id="Path_3472" data-name="Path 3472" d="M7.067.7c.111,0,1,.111,1.11.111a5.428,5.428,0,0,0,1.554-.3A6.865,6.865,0,0,0,11.359-.666c.111-.111.111-.3.148-.37.074-.3.111-.629.185-.814a3.877,3.877,0,0,0,.629-1.48c0-.111.074-.222.074-.333a12.451,12.451,0,0,0-.333-2.553A4.255,4.255,0,0,0,11.4-7.363c-.444-.592-1.11-1.258-1.591-1.85-.037,0-.074-.111-.185-.111s-.481.111-.7.148L7.437-9.4c-.259.037-.629.111-.777.111A4.992,4.992,0,0,0,3.293-7.326c-.111.148-.3.3-.333.37-.259.481-.518,1-.74,1.517a1.093,1.093,0,0,0-.074.481,6.065,6.065,0,0,1-.111,1.7,1.364,1.364,0,0,0,.185.629,3.685,3.685,0,0,1,.407.37c.185.333.185.7.333.925a4.254,4.254,0,0,0,.777.851c.3.222.666.3.962.481.185.148.37.444.481.481A3.342,3.342,0,0,0,5.846.7Z" transform="translate(602.965 3641.898)" fill="red" stroke="#000" stroke-width="1"/>
    </g>
    <g id="Group_267" data-name="Group 267" transform="translate(0 2)">
      <path id="Path_3473" data-name="Path 3473" d="M7.067.7c.111,0,1,.111,1.11.111a5.428,5.428,0,0,0,1.554-.3A6.865,6.865,0,0,0,11.359-.666c.111-.111.111-.3.148-.37.074-.3.111-.629.185-.814a3.877,3.877,0,0,0,.629-1.48c0-.111.074-.222.074-.333a12.451,12.451,0,0,0-.333-2.553A4.255,4.255,0,0,0,11.4-7.363c-.444-.592-1.11-1.258-1.591-1.85-.037,0-.074-.111-.185-.111s-.481.111-.7.148L7.437-9.4c-.259.037-.629.111-.777.111A4.992,4.992,0,0,0,3.293-7.326c-.111.148-.3.3-.333.37-.259.481-.518,1-.74,1.517a1.093,1.093,0,0,0-.074.481,6.065,6.065,0,0,1-.111,1.7,1.364,1.364,0,0,0,.185.629,3.685,3.685,0,0,1,.407.37c.185.333.185.7.333.925a4.254,4.254,0,0,0,.777.851c.3.222.666.3.962.481.185.148.37.444.481.481A3.342,3.342,0,0,0,5.846.7Z" transform="translate(602.965 3665.898)" fill="#ffeb00" stroke="#000" stroke-width="1"/>
      <text id="_50_" data-name="50%+" transform="translate(622.4 3667)" fill="#1a1818" font-size="14" font-family="SegoeUI-Bold, Segoe UI" font-weight="700"><tspan x="0" y="0">50%+</tspan></text>
    </g>
    <g id="Group_266" data-name="Group 266" transform="translate(0 3)">
      <path id="Path_3474" data-name="Path 3474" d="M7.067.7c.111,0,1,.111,1.11.111a5.428,5.428,0,0,0,1.554-.3A6.865,6.865,0,0,0,11.359-.666c.111-.111.111-.3.148-.37.074-.3.111-.629.185-.814a3.877,3.877,0,0,0,.629-1.48c0-.111.074-.222.074-.333a12.451,12.451,0,0,0-.333-2.553A4.255,4.255,0,0,0,11.4-7.363c-.444-.592-1.11-1.258-1.591-1.85-.037,0-.074-.111-.185-.111s-.481.111-.7.148L7.437-9.4c-.259.037-.629.111-.777.111A4.992,4.992,0,0,0,3.293-7.326c-.111.148-.3.3-.333.37-.259.481-.518,1-.74,1.517a1.093,1.093,0,0,0-.074.481,6.065,6.065,0,0,1-.111,1.7,1.364,1.364,0,0,0,.185.629,3.685,3.685,0,0,1,.407.37c.185.333.185.7.333.925a4.254,4.254,0,0,0,.777.851c.3.222.666.3.962.481.185.148.37.444.481.481A3.342,3.342,0,0,0,5.846.7Z" transform="translate(602.965 3689.898)" fill="#e6dcc4" stroke="#000" stroke-width="1"/>
      <text id="Note_Sure" data-name="Note Sure" transform="translate(622.4 3692)" fill="#1a1818" font-size="14" font-family="SegoeUI-Bold, Segoe UI" font-weight="700"><tspan x="0" y="0">Note Sure</tspan></text>
    </g>
  </g>
  <g id="Group_240" data-name="Group 240" transform="translate(-569.603 -3402.256)">
    <path id="Path_3448" data-name="Path 3448" d="M192.893,260.429,184,332.884a73,73,0,0,1-63.559-81.352c2.948-24.01,15.907-43.223,37.065-54.95Z" transform="translate(475.041 3278.826)" fill="#e6dcc4"/>
    <path id="Path_3449" data-name="Path 3449" d="M259.633,250.9v-73a73,73,0,0,1,0,146,67.342,67.342,0,0,1-8.9-.544Z" transform="translate(408.302 3288.354)" fill="red"/>
    <path id="Path_3470" data-name="Path 3470" d="M192.893,260.429,184,332.884a73,73,0,0,1-63.559-81.352c2.948-24.01,15.907-43.223,37.065-54.95Z" transform="translate(473.041 3276.826)" fill="none" stroke="#000" stroke-linecap="round" stroke-linejoin="round" stroke-miterlimit="10" stroke-width="1"/>
    <path id="Path_3471" data-name="Path 3471" d="M259.633,250.9v-73a73,73,0,0,1,0,146,67.342,67.342,0,0,1-8.9-.544Z" transform="translate(407.302 3286.354)" fill="none" stroke="#000" stroke-linecap="round" stroke-linejoin="round" stroke-miterlimit="10" stroke-width="1"/>
    <path id="Path_3447" data-name="Path 3447" d="M232.052,250.9l-35.391-63.847a70.157,70.157,0,0,1,35.391-9.152Z" transform="translate(435.883 3288.354)" fill="#ffeb00"/>
    <path id="Path_3469" data-name="Path 3469" d="M232.052,250.9l-35.391-63.847a70.157,70.157,0,0,1,35.391-9.152Z" transform="translate(433.883 3286.354)" fill="none" stroke="#000" stroke-linecap="round" stroke-linejoin="round" stroke-miterlimit="10" stroke-width="1"/>
  </g>
  <g id="Group_225" data-name="Group 225" transform="translate(-725.636 84.859) rotate(-8)">
    <rect id="Rectangle_255" data-name="Rectangle 255" width="49" height="16" transform="translate(710 162)"/>
    <text id="_40_" data-name="40%" transform="translate(716 173)" fill="#fff" font-size="16" font-family="SegoeUI, Segoe UI" letter-spacing="0.1em"><tspan x="0" y="0">40%</tspan></text>
  </g>
  <g id="Group_226" data-name="Group 226" transform="translate(-577.081 88.72) rotate(-8)">
    <rect id="Rectangle_255-2" data-name="Rectangle 255" width="49" height="16" transform="translate(710 162)"/>
    <text id="_52_" data-name="52%" transform="translate(716 173)" fill="#fff" font-size="16" font-family="SegoeUI, Segoe UI" letter-spacing="0.1em"><tspan x="0" y="0">52%</tspan></text>
  </g>
  <g id="Group_227" data-name="Group 227" transform="translate(-650.176 -6.046) rotate(-8)">
    <rect id="Rectangle_255-3" data-name="Rectangle 255" width="37" height="16" transform="translate(710 162)"/>
    <text id="_9_" data-name="9%" transform="translate(716 173)" fill="#fff" font-size="16" font-family="SegoeUI, Segoe UI" letter-spacing="0.1em"><tspan x="0" y="0">9%</tspan></text>
  </g>
</svg>
