<svg xmlns="http://www.w3.org/2000/svg" width="199.029" height="330" viewBox="0 0 199.029 330">
  <g id="Group_294" data-name="Group 294" transform="translate(-1152.814 -3394)">
    <text id="Company_Size" data-name="Company Size" transform="translate(1250 3411)" fill="#1a1818" font-size="16" font-family="SegoeUI-Bold, Segoe UI" font-weight="700"><tspan x="-52.668" y="0">Company Size</tspan></text>
    <text id="FTEs_at_the_end_of_2020" data-name="FTEs at the end of 2020" transform="translate(1250 3430)" fill="#1a1818" font-size="12" font-family="SegoeUI, Segoe UI"><tspan x="-61.922" y="0">FTEs at the end of 2020</tspan></text>
  </g>
  <g id="Group_251" data-name="Group 251" transform="translate(-549.849 -3395)">
    <text id="_0-50" data-name="0-50" transform="translate(626.435 3643)" fill="#1a1818" font-size="14" font-family="SegoeUI-Bold, Segoe UI" font-weight="700"><tspan x="0" y="0">0-50</tspan></text>
    <path id="Path_3472" data-name="Path 3472" d="M7.067.7c.111,0,1,.111,1.11.111a5.428,5.428,0,0,0,1.554-.3A6.865,6.865,0,0,0,11.359-.666c.111-.111.111-.3.148-.37.074-.3.111-.629.185-.814a3.877,3.877,0,0,0,.629-1.48c0-.111.074-.222.074-.333a12.451,12.451,0,0,0-.333-2.553A4.255,4.255,0,0,0,11.4-7.363c-.444-.592-1.11-1.258-1.591-1.85-.037,0-.074-.111-.185-.111s-.481.111-.7.148L7.437-9.4c-.259.037-.629.111-.777.111A4.992,4.992,0,0,0,3.293-7.326c-.111.148-.3.3-.333.37-.259.481-.518,1-.74,1.517a1.093,1.093,0,0,0-.074.481,6.065,6.065,0,0,1-.111,1.7,1.364,1.364,0,0,0,.185.629,3.685,3.685,0,0,1,.407.37c.185.333.185.7.333.925a4.254,4.254,0,0,0,.777.851c.3.222.666.3.962.481.185.148.37.444.481.481A3.342,3.342,0,0,0,5.846.7Z" transform="translate(607 3641.898)" fill="red" stroke="#000" stroke-width="1"/>
    <g id="Group_301" data-name="Group 301" transform="translate(0 2)">
      <path id="Path_3473" data-name="Path 3473" d="M7.067.7c.111,0,1,.111,1.11.111a5.428,5.428,0,0,0,1.554-.3A6.865,6.865,0,0,0,11.359-.666c.111-.111.111-.3.148-.37.074-.3.111-.629.185-.814a3.877,3.877,0,0,0,.629-1.48c0-.111.074-.222.074-.333a12.451,12.451,0,0,0-.333-2.553A4.255,4.255,0,0,0,11.4-7.363c-.444-.592-1.11-1.258-1.591-1.85-.037,0-.074-.111-.185-.111s-.481.111-.7.148L7.437-9.4c-.259.037-.629.111-.777.111A4.992,4.992,0,0,0,3.293-7.326c-.111.148-.3.3-.333.37-.259.481-.518,1-.74,1.517a1.093,1.093,0,0,0-.074.481,6.065,6.065,0,0,1-.111,1.7,1.364,1.364,0,0,0,.185.629,3.685,3.685,0,0,1,.407.37c.185.333.185.7.333.925a4.254,4.254,0,0,0,.777.851c.3.222.666.3.962.481.185.148.37.444.481.481A3.342,3.342,0,0,0,5.846.7Z" transform="translate(607 3665.898)" fill="#fff" stroke="#000" stroke-width="1"/>
      <text id="_51-200" data-name="51-200" transform="translate(626.435 3667)" fill="#1a1818" font-size="14" font-family="SegoeUI-Bold, Segoe UI" font-weight="700"><tspan x="0" y="0">51-200</tspan></text>
    </g>
    <g id="Group_300" data-name="Group 300" transform="translate(0 4)">
      <path id="Path_3474" data-name="Path 3474" d="M7.067.7c.111,0,1,.111,1.11.111a5.428,5.428,0,0,0,1.554-.3A6.865,6.865,0,0,0,11.359-.666c.111-.111.111-.3.148-.37.074-.3.111-.629.185-.814a3.877,3.877,0,0,0,.629-1.48c0-.111.074-.222.074-.333a12.451,12.451,0,0,0-.333-2.553A4.255,4.255,0,0,0,11.4-7.363c-.444-.592-1.11-1.258-1.591-1.85-.037,0-.074-.111-.185-.111s-.481.111-.7.148L7.437-9.4c-.259.037-.629.111-.777.111A4.992,4.992,0,0,0,3.293-7.326c-.111.148-.3.3-.333.37-.259.481-.518,1-.74,1.517a1.093,1.093,0,0,0-.074.481,6.065,6.065,0,0,1-.111,1.7,1.364,1.364,0,0,0,.185.629,3.685,3.685,0,0,1,.407.37c.185.333.185.7.333.925a4.254,4.254,0,0,0,.777.851c.3.222.666.3.962.481.185.148.37.444.481.481A3.342,3.342,0,0,0,5.846.7Z" transform="translate(607 3689.898)" fill="#e6dcc4" stroke="#000" stroke-width="1"/>
      <text id="_201-1000" data-name="201-1000" transform="translate(625.435 3691)" fill="#1a1818" font-size="14" font-family="SegoeUI-Bold, Segoe UI" font-weight="700"><tspan x="0" y="0">201-1000</tspan></text>
    </g>
    <g id="Group_299" data-name="Group 299" transform="translate(0 6)">
      <path id="Path_3476" data-name="Path 3476" d="M7.067.7c.111,0,1,.111,1.11.111a5.428,5.428,0,0,0,1.554-.3A6.865,6.865,0,0,0,11.359-.666c.111-.111.111-.3.148-.37.074-.3.111-.629.185-.814a3.877,3.877,0,0,0,.629-1.48c0-.111.074-.222.074-.333a12.451,12.451,0,0,0-.333-2.553A4.255,4.255,0,0,0,11.4-7.363c-.444-.592-1.11-1.258-1.591-1.85-.037,0-.074-.111-.185-.111s-.481.111-.7.148L7.437-9.4c-.259.037-.629.111-.777.111A4.992,4.992,0,0,0,3.293-7.326c-.111.148-.3.3-.333.37-.259.481-.518,1-.74,1.517a1.093,1.093,0,0,0-.074.481,6.065,6.065,0,0,1-.111,1.7,1.364,1.364,0,0,0,.185.629,3.685,3.685,0,0,1,.407.37c.185.333.185.7.333.925a4.254,4.254,0,0,0,.777.851c.3.222.666.3.962.481.185.148.37.444.481.481A3.342,3.342,0,0,0,5.846.7Z" transform="translate(607 3713.898)" fill="#ffeb00" stroke="#000" stroke-width="1"/>
      <text id="_1000_" data-name="1000+" transform="translate(625.435 3715)" fill="#1a1818" font-size="14" font-family="SegoeUI-Bold, Segoe UI" font-weight="700"><tspan x="0" y="0">1000+</tspan></text>
    </g>
  </g>
  <g id="Group_241" data-name="Group 241" transform="translate(-846.34 -3393.255)">
    <g id="Group_212" data-name="Group 212" transform="translate(925.076 3464.255)">
      <g id="Group_211" data-name="Group 211">
        <path id="Path_3463" data-name="Path 3463" d="M729.013,195.581,710.119,125.07a73.107,73.107,0,0,1,18.894-2.488Z" transform="translate(-710.119 -122.582)" fill="#ffeb00"/>
      </g>
    </g>
    <g id="Group_214" data-name="Group 214" transform="translate(879.697 3466.743)">
      <g id="Group_213" data-name="Group 213">
        <path id="Path_3464" data-name="Path 3464" d="M682.216,198.171l-63.847-35.39c10.047-18.124,24.937-29.758,44.953-35.121Z" transform="translate(-618.369 -127.659)" fill="#e6dcc4"/>
      </g>
    </g>
    <g id="Group_216" data-name="Group 216" transform="translate(870.526 3501.864)">
      <g id="Group_215" data-name="Group 215">
        <path id="Path_3465" data-name="Path 3465" d="M672.669,234.732,652.547,304.9a73,73,0,0,1-50.05-90.293,67.633,67.633,0,0,1,6.324-15.269Z" transform="translate(-599.651 -199.342)" fill="#fff"/>
      </g>
    </g>
    <g id="Group_218" data-name="Group 218" transform="translate(924.423 3464.255)">
      <g id="Group_217" data-name="Group 217">
        <path id="Path_3466" data-name="Path 3466" d="M727.734,195.582v-73a73,73,0,0,1,0,146,69.277,69.277,0,0,1-20.122-2.828Z" transform="translate(-707.613 -122.582)" fill="red"/>
      </g>
    </g>
    <path id="Path_3463-2" data-name="Path 3463" d="M729.013,195.581,710.119,125.07a73.107,73.107,0,0,1,18.894-2.488Z" transform="translate(212.957 3339.673)" fill="none" stroke="#000" stroke-linecap="round" stroke-linejoin="round" stroke-miterlimit="10" stroke-width="1"/>
    <path id="Path_3464-2" data-name="Path 3464" d="M682.216,198.171l-63.847-35.39c10.047-18.124,24.937-29.758,44.953-35.121Z" transform="translate(259.328 3337.084)" fill="none" stroke="#000" stroke-linecap="round" stroke-linejoin="round" stroke-miterlimit="10" stroke-width="1"/>
    <path id="Path_3465-2" data-name="Path 3465" d="M672.669,234.732,652.547,304.9a73,73,0,0,1-50.05-90.293,67.633,67.633,0,0,1,6.324-15.269Z" transform="translate(268.875 3300.522)" fill="none" stroke="#000" stroke-linecap="round" stroke-linejoin="round" stroke-miterlimit="10" stroke-width="1"/>
    <path id="Path_3466-2" data-name="Path 3466" d="M727.734,195.582v-73a73,73,0,0,1,0,146,69.277,69.277,0,0,1-20.122-2.828Z" transform="translate(214.81 3339.673)" fill="none" stroke="#000" stroke-linecap="round" stroke-linejoin="round" stroke-miterlimit="10" stroke-width="1"/>
  </g>
  <g id="Group_228" data-name="Group 228" transform="translate(-577.357 91.858) rotate(-8)">
    <rect id="Rectangle_255" data-name="Rectangle 255" width="49" height="16" transform="translate(710 162)"/>
    <text id="_55_" data-name="55%" transform="translate(716 173)" fill="#fff" font-size="16" font-family="SegoeUI, Segoe UI" letter-spacing="0.1em"><tspan x="0" y="0">55%</tspan></text>
  </g>
  <g id="Group_229" data-name="Group 229" transform="translate(-725.636 107.249) rotate(-8)">
    <rect id="Rectangle_255-2" data-name="Rectangle 255" width="49" height="16" transform="translate(710 162)"/>
    <text id="_29_" data-name="29%" transform="translate(716 173)" fill="#fff" font-size="16" font-family="SegoeUI, Segoe UI" letter-spacing="0.1em"><tspan x="0" y="0">29%</tspan></text>
  </g>
  <g id="Group_230" data-name="Group 230" transform="translate(-716.708 29.545) rotate(-8)">
    <rect id="Rectangle_255-3" data-name="Rectangle 255" width="49" height="16" transform="translate(710 162)"/>
    <text id="_13_" data-name="13%" transform="translate(716 173)" fill="#fff" font-size="16" font-family="SegoeUI, Segoe UI" letter-spacing="0.1em"><tspan x="0" y="0">13%</tspan></text>
  </g>
  <g id="Group_231" data-name="Group 231" transform="translate(-638.635 1.719) rotate(-8)">
    <rect id="Rectangle_255-4" data-name="Rectangle 255" width="37" height="16" transform="translate(710 162)"/>
    <text id="_4_" data-name="4%" transform="translate(716 173)" fill="#fff" font-size="16" font-family="SegoeUI, Segoe UI" letter-spacing="0.1em"><tspan x="0" y="0">4%</tspan></text>
  </g>
</svg>
