<svg xmlns="http://www.w3.org/2000/svg" width="195.788" height="378.5" viewBox="0 0 195.788 378.5">
  <text id="Respondants" transform="translate(97.314 17)" fill="#1a1818" font-size="16" font-family="SegoeUI-Bold, Segoe UI" font-weight="700"><tspan x="-48.293" y="0">Respondants</tspan></text>
  <g id="Group_283" data-name="Group 283" transform="translate(13.314 307.5)">
    <g id="Group_268" data-name="Group 268" transform="translate(0)">
      <text id="Founder_CEO" data-name="Founder/CEO" transform="translate(17.4 15)" fill="#1a1818" font-size="14" font-family="SegoeUI-Bold, Segoe UI" font-weight="700"><tspan x="0" y="0">Founder/CEO</tspan></text>
      <path id="Path_3472" data-name="Path 3472" d="M7.067.7c.111,0,1,.111,1.11.111a5.428,5.428,0,0,0,1.554-.3A6.865,6.865,0,0,0,11.359-.666c.111-.111.111-.3.148-.37.074-.3.111-.629.185-.814a3.877,3.877,0,0,0,.629-1.48c0-.111.074-.222.074-.333a12.451,12.451,0,0,0-.333-2.553A4.255,4.255,0,0,0,11.4-7.363c-.444-.592-1.11-1.258-1.591-1.85-.037,0-.074-.111-.185-.111s-.481.111-.7.148L7.437-9.4c-.259.037-.629.111-.777.111A4.992,4.992,0,0,0,3.293-7.326c-.111.148-.3.3-.333.37-.259.481-.518,1-.74,1.517a1.093,1.093,0,0,0-.074.481,6.065,6.065,0,0,1-.111,1.7,1.364,1.364,0,0,0,.185.629,3.685,3.685,0,0,1,.407.37c.185.333.185.7.333.925a4.254,4.254,0,0,0,.777.851c.3.222.666.3.962.481.185.148.37.444.481.481A3.342,3.342,0,0,0,5.846.7Z" transform="translate(-2.035 13.898)" fill="red" stroke="#000" stroke-width="1"/>
    </g>
    <g id="Group_267" data-name="Group 267" transform="translate(0 26)">
      <path id="Path_3473" data-name="Path 3473" d="M7.067.7c.111,0,1,.111,1.11.111a5.428,5.428,0,0,0,1.554-.3A6.865,6.865,0,0,0,11.359-.666c.111-.111.111-.3.148-.37.074-.3.111-.629.185-.814a3.877,3.877,0,0,0,.629-1.48c0-.111.074-.222.074-.333a12.451,12.451,0,0,0-.333-2.553A4.255,4.255,0,0,0,11.4-7.363c-.444-.592-1.11-1.258-1.591-1.85-.037,0-.074-.111-.185-.111s-.481.111-.7.148L7.437-9.4c-.259.037-.629.111-.777.111A4.992,4.992,0,0,0,3.293-7.326c-.111.148-.3.3-.333.37-.259.481-.518,1-.74,1.517a1.093,1.093,0,0,0-.074.481,6.065,6.065,0,0,1-.111,1.7,1.364,1.364,0,0,0,.185.629,3.685,3.685,0,0,1,.407.37c.185.333.185.7.333.925a4.254,4.254,0,0,0,.777.851c.3.222.666.3.962.481.185.148.37.444.481.481A3.342,3.342,0,0,0,5.846.7Z" transform="translate(-2.035 13.898)" fill="#ffeb00" stroke="#000" stroke-width="1"/>
      <text id="Product_Leader" data-name="Product Leader" transform="translate(17.4 15)" fill="#1a1818" font-size="14" font-family="SegoeUI-Bold, Segoe UI" font-weight="700"><tspan x="0" y="0">Product Leader</tspan></text>
    </g>
    <g id="Group_266" data-name="Group 266" transform="translate(0 52)">
      <path id="Path_3474" data-name="Path 3474" d="M7.067.7c.111,0,1,.111,1.11.111a5.428,5.428,0,0,0,1.554-.3A6.865,6.865,0,0,0,11.359-.666c.111-.111.111-.3.148-.37.074-.3.111-.629.185-.814a3.877,3.877,0,0,0,.629-1.48c0-.111.074-.222.074-.333a12.451,12.451,0,0,0-.333-2.553A4.255,4.255,0,0,0,11.4-7.363c-.444-.592-1.11-1.258-1.591-1.85-.037,0-.074-.111-.185-.111s-.481.111-.7.148L7.437-9.4c-.259.037-.629.111-.777.111A4.992,4.992,0,0,0,3.293-7.326c-.111.148-.3.3-.333.37-.259.481-.518,1-.74,1.517a1.093,1.093,0,0,0-.074.481,6.065,6.065,0,0,1-.111,1.7,1.364,1.364,0,0,0,.185.629,3.685,3.685,0,0,1,.407.37c.185.333.185.7.333.925a4.254,4.254,0,0,0,.777.851c.3.222.666.3.962.481.185.148.37.444.481.481A3.342,3.342,0,0,0,5.846.7Z" transform="translate(-2.035 13.898)" fill="#e6dcc4" stroke="#000" stroke-width="1"/>
      <text id="Other_Leadership_Role" data-name="Other Leadership Role" transform="translate(17.4 15)" fill="#1a1818" font-size="14" font-family="SegoeUI-Bold, Segoe UI" font-weight="700"><tspan x="0" y="0">Other Leadership Role</tspan></text>
    </g>
  </g>
  <text id="Job_Title" data-name="Job Title" transform="translate(97.314 36)" fill="#1a1818" font-size="12" font-family="SegoeUI, Segoe UI"><tspan x="-22.049" y="0">Job Title</tspan></text>
  <g id="Group_297" data-name="Group 297" transform="translate(22.314 102.2)">
    <g id="Group_295" data-name="Group 295" transform="translate(3 2)">
      <g id="Group_208" data-name="Group 208">
        <g id="Group_203" data-name="Group 203">
          <g id="Group_202" data-name="Group 202">
            <path id="Path_3460" data-name="Path 3460" d="M982.244,1086.007,911.732,1104.9A73,73,0,0,1,963.35,1015.5a72.195,72.195,0,0,1,18.894-2.487Z" transform="translate(-909.226 -1013.008)" fill="#e6dcc4"/>
          </g>
        </g>
        <g id="Group_205" data-name="Group 205" transform="translate(2.505 72.999)">
          <g id="Group_204" data-name="Group 204">
            <path id="Path_3461" data-name="Path 3461" d="M984.852,1162l56.731,45.94a73,73,0,0,1-102.671,10.791,69.944,69.944,0,0,1-24.572-37.838Z" transform="translate(-914.34 -1162)" fill="#ffeb00"/>
          </g>
        </g>
        <g id="Group_207" data-name="Group 207" transform="translate(73.017)">
          <g id="Group_206" data-name="Group 206">
            <path id="Path_3462" data-name="Path 3462" d="M1058.255,1086.007v-73a73,73,0,0,1,73,73c0,17.739-5.1,32.154-16.268,45.94Z" transform="translate(-1058.255 -1013.008)" fill="red"/>
          </g>
        </g>
      </g>
    </g>
    <path id="Path_3477" data-name="Path 3477" d="M982.244,1086.007,911.732,1104.9A73,73,0,0,1,963.35,1015.5a72.195,72.195,0,0,1,18.894-2.487Z" transform="translate(-909.226 -1013.008)" fill="none" stroke="#000" stroke-miterlimit="10" stroke-width="1"/>
    <path id="Path_3478" data-name="Path 3478" d="M984.852,1162l56.731,45.94a73,73,0,0,1-102.671,10.791,69.944,69.944,0,0,1-24.572-37.838Z" transform="translate(-911.834 -1089)" fill="none" stroke="#000" stroke-miterlimit="10" stroke-width="1"/>
    <path id="Path_3479" data-name="Path 3479" d="M1058.255,1086.007v-73a73,73,0,0,1,73,73c0,17.739-5.1,32.154-16.268,45.94Z" transform="translate(-984.238 -1013.008)" fill="none" stroke="#000" stroke-miterlimit="10" stroke-width="1"/>
  </g>
  <g id="Group_285" data-name="Group 285" transform="translate(147.174 159.477) rotate(-8)">
    <rect id="Rectangle_255" data-name="Rectangle 255" width="46" height="21" transform="translate(0 1)"/>
    <text id="_36_" data-name="36%" transform="translate(6 17)" fill="#fff" font-size="16" font-family="SegoeUI, Segoe UI" letter-spacing="0.1em"><tspan x="0" y="0">36%</tspan></text>
  </g>
  <g id="Group_284" data-name="Group 284" transform="translate(18.7 237.856) rotate(-8)">
    <rect id="Rectangle_255-2" data-name="Rectangle 255" width="46" height="21" transform="translate(0 1)"/>
    <text id="_35_" data-name="35%" transform="translate(6 17)" fill="#fff" font-size="16" font-family="SegoeUI, Segoe UI" letter-spacing="0.1em"><tspan x="0" y="0">35%</tspan></text>
  </g>
  <g id="Group_296" data-name="Group 296" transform="translate(-0.139 116.869) rotate(-8)">
    <rect id="Rectangle_255-3" data-name="Rectangle 255" width="46" height="21" transform="translate(0 1)"/>
    <text id="_29_" data-name="29%" transform="translate(6 17)" fill="#fff" font-size="16" font-family="SegoeUI, Segoe UI" letter-spacing="0.1em"><tspan x="0" y="0">29%</tspan></text>
  </g>
</svg>
