<svg xmlns="http://www.w3.org/2000/svg" xmlns:xlink="http://www.w3.org/1999/xlink" width="1038.362" height="623.14" viewBox="0 0 1038.362 623.14">
  <defs>
    <filter id="Rectangle_541" x="18.415" y="46.229" width="941.896" height="576.912" filterUnits="userSpaceOnUse">
      <feOffset dy="3" input="SourceAlpha"/>
      <feGaussianBlur stdDeviation="3" result="blur"/>
      <feFlood flood-opacity="0.161"/>
      <feComposite operator="in" in2="blur"/>
      <feComposite in="SourceGraphic"/>
    </filter>
    <filter id="Ellipse_3" x="97.776" y="150.854" width="86.458" height="86.458" filterUnits="userSpaceOnUse">
      <feOffset dy="6" input="SourceAlpha"/>
      <feGaussianBlur stdDeviation="6" result="blur-2"/>
      <feFlood flood-opacity="0.239"/>
      <feComposite operator="in" in2="blur-2"/>
      <feComposite in="SourceGraphic"/>
    </filter>
    <filter id="Ellipse_3-2" x="33.904" y="52.814" width="86.458" height="86.458" filterUnits="userSpaceOnUse">
      <feOffset dy="6" input="SourceAlpha"/>
      <feGaussianBlur stdDeviation="6" result="blur-3"/>
      <feFlood flood-opacity="0.239"/>
      <feComposite operator="in" in2="blur-3"/>
      <feComposite in="SourceGraphic"/>
    </filter>
    <filter id="Ellipse_3-3" x="151.362" y="0" width="86.458" height="86.458" filterUnits="userSpaceOnUse">
      <feOffset dy="6" input="SourceAlpha"/>
      <feGaussianBlur stdDeviation="6" result="blur-4"/>
      <feFlood flood-opacity="0.239"/>
      <feComposite operator="in" in2="blur-4"/>
      <feComposite in="SourceGraphic"/>
    </filter>
    <filter id="Ellipse_3-4" x="951.905" y="490.526" width="86.458" height="86.457" filterUnits="userSpaceOnUse">
      <feOffset dy="6" input="SourceAlpha"/>
      <feGaussianBlur stdDeviation="6" result="blur-5"/>
      <feFlood flood-opacity="0.239"/>
      <feComposite operator="in" in2="blur-5"/>
      <feComposite in="SourceGraphic"/>
    </filter>
    <filter id="Ellipse_3-5" x="785.29" y="516.167" width="86.458" height="86.457" filterUnits="userSpaceOnUse">
      <feOffset dy="6" input="SourceAlpha"/>
      <feGaussianBlur stdDeviation="6" result="blur-6"/>
      <feFlood flood-opacity="0.239"/>
      <feComposite operator="in" in2="blur-6"/>
      <feComposite in="SourceGraphic"/>
    </filter>
  </defs>
  <g transform="matrix(1, 0, 0, 1, 0, 0)" filter="url(#Rectangle_541)">
    <rect id="Rectangle_541-2" data-name="Rectangle 541" width="885.114" height="483.609" transform="matrix(-1, -0.09, 0.09, -1, 909.16, 611.14)" fill="#fff"/>
  </g>
  <path id="Path_3531" data-name="Path 3531" d="M307.191,917.594c-25.763,3.338-51.461,7.4-77.023,12.458-12.79,2.452-25.532,5.273-38.249,8.218q-19.063,4.507-37.991,9.8c-25.222,7.1-50.257,15.2-74.906,24.82a645.217,645.217,0,0,0-72.606,33.32,483.988,483.988,0,0,0-68.436,44.326,383.851,383.851,0,0,0-31.459,27.542c-5.01,4.957-9.932,10.051-14.669,15.384-4.779,5.279-9.34,10.838-13.764,16.545a243.662,243.662,0,0,0-23.678,37.037,194.568,194.568,0,0,0-9.21,20.545,186.4,186.4,0,0,0-6.846,21.778,159.13,159.13,0,0,0-4.632,45.828,150.639,150.639,0,0,0,8.994,44.626,166.278,166.278,0,0,0,20.433,38.873,192.4,192.4,0,0,0,13.22,16.746c4.688,5.251,9.555,10.276,14.629,14.991,20.336,18.838,43.205,33.469,66.918,45.256a423.15,423.15,0,0,0,73.465,27.781,585.657,585.657,0,0,0,75.992,15.929q19.168,2.752,38.434,4.5,19.265,1.695,38.579,2.54,19.312.793,38.648.82c12.889-.054,25.78-.213,38.668-.745a1299.715,1299.715,0,0,0,154.273-15.423c51.177-8.208,102.056-19.523,151.922-35.639a718.52,718.52,0,0,0,73.763-28.216,516.141,516.141,0,0,0,70.525-38.287c22.643-14.861,44.363-32.019,63.7-52.606a248.813,248.813,0,0,0,26.639-33.648,197.618,197.618,0,0,0,20.12-39.481,160.359,160.359,0,0,0,9.747-44.554,150.051,150.051,0,0,0-3.843-45.751,164.364,164.364,0,0,0-16.528-41.683,197.579,197.579,0,0,0-25.232-35.073c-18.921-21.126-40.982-37.846-64.08-51.568a386.3,386.3,0,0,0-72.29-32.874,513.982,513.982,0,0,0-75.674-19.289,660.813,660.813,0,0,0-77.063-8.953c-51.607-3.023-103.409-.476-154.892,5.8-25.746,3.161-51.414,7.371-76.987,12.377s-51.042,10.9-76.388,17.549c25.234-7.282,50.614-13.826,76.132-19.464s51.178-10.321,76.935-14.047c51.51-7.448,103.479-10.756,155.408-8.644a635.159,635.159,0,0,1,77.691,7.806,517.754,517.754,0,0,1,76.642,18.471,390.774,390.774,0,0,1,73.8,32.455,299.239,299.239,0,0,1,34.625,23.234,251.771,251.771,0,0,1,31.749,29.286,206.84,206.84,0,0,1,26.765,36.655,176.109,176.109,0,0,1,18.029,44.664,164.143,164.143,0,0,1,4.508,50.011,174.956,174.956,0,0,1-10.284,48.581,207.559,207.559,0,0,1-21.231,42.256,261.179,261.179,0,0,1-27.746,35.39c-20.014,21.508-42.281,39.246-65.386,54.588a527.013,527.013,0,0,1-71.7,39.434,707.125,707.125,0,0,1-74.655,28.974c-50.42,16.4-101.724,27.9-153.269,36.272q-38.668,6.263-77.52,10.241c-6.479.631-12.952,1.334-19.439,1.862l-9.725.844-9.734.724c-6.486.52-12.984.844-19.477,1.255-6.5.286-12.992.656-19.495.843-13,.505-26.009.635-39.019.656q-19.517-.1-39.033-.922-19.514-.927-39-2.665-19.484-1.846-38.911-4.654a594.793,594.793,0,0,1-77.153-16.371,433.685,433.685,0,0,1-74.956-28.958,323.177,323.177,0,0,1-35.69-20.866c-2.918-1.9-5.746-4.024-8.62-6.032l-4.237-3.187c-1.416-1.054-2.821-2.13-4.2-3.261-5.6-4.358-11-9.144-16.313-14.067-5.289-4.974-10.384-10.294-15.3-15.871a204.649,204.649,0,0,1-13.936-17.866,177.065,177.065,0,0,1-21.758-42.075,165.3,165.3,0,0,1-9.448-48.939,172.917,172.917,0,0,1,5.4-49.752,198.392,198.392,0,0,1,7.5-23.2,205.213,205.213,0,0,1,9.9-21.6,252.548,252.548,0,0,1,24.979-38.321c18.448-23.5,39.7-43.027,61.961-60.028A486.112,486.112,0,0,1,4.018,999.152,616.129,616.129,0,0,1,77.6,967.033c24.926-9.129,50.172-16.762,75.582-23.291q19.077-4.787,38.255-8.832c12.794-2.62,25.6-5.113,38.451-7.236C255.578,923.346,281.371,920.137,307.191,917.594Z" transform="translate(176.184 -868.427)" fill="#ffeb00" stroke="#faf7f0" stroke-width="1"/>
  <path id="Path_3532" data-name="Path 3532" d="M-3599.691,7654.891l57.715-149.18-119.832,50.508" transform="translate(3740.362 -7467.464)" fill="none" stroke="red" stroke-width="1"/>
  <g id="Group_328" data-name="Group 328" transform="translate(-431.95 97.026)">
    <g transform="matrix(1, 0, 0, 1, 431.95, -97.03)" filter="url(#Ellipse_3)">
      <circle id="Ellipse_3-6" data-name="Ellipse 3" cx="17.84" cy="17.84" r="17.84" transform="translate(115.78 188.08) rotate(-45)" fill="#f31f21"/>
    </g>
    <circle id="Ellipse_4" data-name="Ellipse 4" cx="11.267" cy="11.267" r="11.267" transform="translate(560.04 81.723) rotate(-9.146)" fill="#b81719"/>
  </g>
  <g id="Group_329" data-name="Group 329" transform="translate(-495.822 -1.013)">
    <g transform="matrix(1, 0, 0, 1, 495.82, 1.01)" filter="url(#Ellipse_3-2)">
      <circle id="Ellipse_3-7" data-name="Ellipse 3" cx="17.84" cy="17.84" r="17.84" transform="translate(51.9 90.04) rotate(-45)" fill="#f31f21"/>
    </g>
    <circle id="Ellipse_4-2" data-name="Ellipse 4" cx="11.267" cy="11.267" r="11.267" transform="translate(560.04 81.723) rotate(-9.146)" fill="#b81719"/>
  </g>
  <g id="Group_330" data-name="Group 330" transform="translate(-378.821 -53.372)">
    <g transform="matrix(1, 0, 0, 1, 378.82, 53.37)" filter="url(#Ellipse_3-3)">
      <circle id="Ellipse_3-8" data-name="Ellipse 3" cx="17.84" cy="17.84" r="17.84" transform="translate(169.36 37.23) rotate(-45)" fill="#f31f21"/>
    </g>
    <circle id="Ellipse_4-3" data-name="Ellipse 4" cx="11.267" cy="11.267" r="11.267" transform="translate(560.184 81.955) rotate(-9.146)" fill="#b81719"/>
  </g>
  <path id="Path_3535" data-name="Path 3535" d="M-2760.2,7802.992l165.908-25.8" transform="translate(3590.562 -7250.009)" fill="none" stroke="red" stroke-width="1"/>
  <g id="Group_335" data-name="Group 335" transform="translate(422.179 436.698)">
    <g transform="matrix(1, 0, 0, 1, -422.18, -436.7)" filter="url(#Ellipse_3-4)">
      <circle id="Ellipse_3-9" data-name="Ellipse 3" cx="17.84" cy="17.84" r="17.84" transform="translate(969.9 527.75) rotate(-45)" fill="#f31f21"/>
    </g>
    <circle id="Ellipse_4-4" data-name="Ellipse 4" cx="11.267" cy="11.267" r="11.267" transform="translate(560.04 81.723) rotate(-9.146)" fill="#b81719"/>
  </g>
  <g id="Group_334" data-name="Group 334" transform="translate(255.564 462.338)">
    <g transform="matrix(1, 0, 0, 1, -255.56, -462.34)" filter="url(#Ellipse_3-5)">
      <circle id="Ellipse_3-10" data-name="Ellipse 3" cx="17.84" cy="17.84" r="17.84" transform="translate(803.29 553.39) rotate(-45)" fill="#f31f21"/>
    </g>
    <circle id="Ellipse_4-5" data-name="Ellipse 4" cx="11.267" cy="11.267" r="11.267" transform="translate(560.04 81.723) rotate(-9.146)" fill="#b81719"/>
  </g>
</svg>
