<svg xmlns="http://www.w3.org/2000/svg" xmlns:xlink="http://www.w3.org/1999/xlink" width="316.049" height="649.997" viewBox="0 0 316.049 649.997">
  <defs>
    <filter id="Path_2966" x="27.049" y="2.999" width="289" height="638" filterUnits="userSpaceOnUse">
      <feOffset dy="3" input="SourceAlpha"/>
      <feGaussianBlur stdDeviation="3" result="blur"/>
      <feFlood flood-opacity="0.161"/>
      <feComposite operator="in" in2="blur"/>
      <feComposite in="SourceGraphic"/>
    </filter>
    <clipPath id="clip-path">
      <rect width="270" height="620" fill="none"/>
    </clipPath>
    <filter id="Ellipse_3" x="0" y="563.539" width="86.458" height="86.458" filterUnits="userSpaceOnUse">
      <feOffset dy="6" input="SourceAlpha"/>
      <feGaussianBlur stdDeviation="6" result="blur-2"/>
      <feFlood flood-opacity="0.239"/>
      <feComposite operator="in" in2="blur-2"/>
      <feComposite in="SourceGraphic"/>
    </filter>
    <filter id="Ellipse_3-2" x="0" y="0" width="86.458" height="86.458" filterUnits="userSpaceOnUse">
      <feOffset dy="6" input="SourceAlpha"/>
      <feGaussianBlur stdDeviation="6" result="blur-3"/>
      <feFlood flood-opacity="0.239"/>
      <feComposite operator="in" in2="blur-3"/>
      <feComposite in="SourceGraphic"/>
    </filter>
  </defs>
  <g transform="matrix(1, 0, 0, 1, 0, 0)" filter="url(#Path_2966)">
    <path id="Path_2966-2" data-name="Path 2966" d="M0,0H271V620H0Z" transform="translate(36.05 9)" fill="#fff"/>
  </g>
  <g id="Repeat_Grid_6" data-name="Repeat Grid 6" transform="translate(36.049 8.999)" clip-path="url(#clip-path)">
    <g transform="translate(-210 -963)">
      <rect id="Rectangle_471" data-name="Rectangle 471" width="270" height="1" transform="translate(210 963)" fill="#bfeeff"/>
    </g>
    <g transform="translate(-210 -882)">
      <rect id="Rectangle_471-2" data-name="Rectangle 471" width="270" height="1" transform="translate(210 963)" fill="#bfeeff"/>
    </g>
    <g transform="translate(-210 -801)">
      <rect id="Rectangle_471-3" data-name="Rectangle 471" width="270" height="1" transform="translate(210 963)" fill="#bfeeff"/>
    </g>
    <g transform="translate(-210 -720)">
      <rect id="Rectangle_471-4" data-name="Rectangle 471" width="270" height="1" transform="translate(210 963)" fill="#bfeeff"/>
    </g>
    <g transform="translate(-210 -639)">
      <rect id="Rectangle_471-5" data-name="Rectangle 471" width="270" height="1" transform="translate(210 963)" fill="#bfeeff"/>
    </g>
    <g transform="translate(-210 -558)">
      <rect id="Rectangle_471-6" data-name="Rectangle 471" width="270" height="1" transform="translate(210 963)" fill="#bfeeff"/>
    </g>
    <g transform="translate(-210 -477)">
      <rect id="Rectangle_471-7" data-name="Rectangle 471" width="270" height="1" transform="translate(210 963)" fill="#bfeeff"/>
    </g>
    <g transform="translate(-210 -396)">
      <rect id="Rectangle_471-8" data-name="Rectangle 471" width="270" height="1" transform="translate(210 963)" fill="#bfeeff"/>
    </g>
  </g>
  <g id="Group_345" data-name="Group 345" transform="translate(-173.951 -934.001)">
    <circle id="Ellipse_6" data-name="Ellipse 6" cx="11" cy="11" r="11" transform="translate(222 1031)" fill="#faf7f0"/>
    <circle id="Ellipse_6-2" data-name="Ellipse 6" cx="11" cy="11" r="11" transform="translate(222 1242)" fill="#faf7f0"/>
    <circle id="Ellipse_6-3" data-name="Ellipse 6" cx="11" cy="11" r="11" transform="translate(222 1453)" fill="#faf7f0"/>
  </g>
  <rect id="Rectangle_472" data-name="Rectangle 472" width="1" height="620" transform="translate(80.05 8.999)" fill="#f60600"/>
  <text id="Bios_Introduction_PLG_Adoption:_Product-led_Growth_is_officially_the_trend_of_2021_But_adopters_can_still_be_imposters_and_not_even_know_it_Sidebar:_PLG_is_a_requirement_if_you_re_selling_to_developers_The_Talent_Crunch_is_Leaving_PLG_companies_bamboo" data-name="Bios

Introduction

PLG Adoption: Product-led Growth is officially the trend of 2021

But adopters can still be imposters and not even know it

Sidebar: PLG is a requirement if you’re selling to developers

The Talent Crunch is Leaving PLG companies bamboo" transform="translate(102.049 33.999)" font-size="16" font-family="SegoeUI, Segoe UI"><tspan x="0" y="17">Bios</tspan><tspan x="0" y="38"></tspan><tspan x="0" y="59">Introduction</tspan><tspan x="0" y="80"></tspan><tspan x="0" y="101">PLG Adoption: Product-</tspan><tspan x="0" y="122">led Growth is officially </tspan><tspan x="0" y="143">the trend of 2021</tspan><tspan x="0" y="164"></tspan><tspan x="0" y="185">But adopters can still be </tspan><tspan x="0" y="206">imposters and not even </tspan><tspan x="0" y="227">know it</tspan><tspan x="0" y="248"></tspan><tspan x="0" y="269">Sidebar: PLG is a </tspan><tspan x="0" y="290">requirement if you’re </tspan><tspan x="0" y="311">selling to developers</tspan><tspan x="0" y="332"></tspan><tspan x="0" y="353">The Talent Crunch is </tspan><tspan x="0" y="374">Leaving PLG companies </tspan><tspan x="0" y="395">bamboozled</tspan><tspan x="0" y="416"></tspan><tspan x="0" y="437">Ditching Marketing is a </tspan><tspan x="0" y="458">bad idea</tspan><tspan x="0" y="479"></tspan><tspan x="0" y="500">Conversion is now a </tspan><tspan x="0" y="521">Team Sport</tspan><tspan x="0" y="542"></tspan><tspan x="0" y="563">Conclusion</tspan></text>
  <rect id="Rectangle_265" data-name="Rectangle 265" width="48" height="29" transform="matrix(0.998, -0.07, 0.07, 0.998, 92.641, 34.277)" fill="#ffeb00" style="mix-blend-mode: multiply;isolation: isolate"/>
  <g id="Group_527" data-name="Group 527" transform="translate(-529.726 509.712)">
    <g transform="matrix(1, 0, 0, 1, 529.73, -509.71)" filter="url(#Ellipse_3)">
      <circle id="Ellipse_3-3" data-name="Ellipse 3" cx="17.84" cy="17.84" r="17.84" transform="translate(18 600.77) rotate(-45)" fill="#f31f21"/>
    </g>
    <circle id="Ellipse_4" data-name="Ellipse 4" cx="11.267" cy="11.267" r="11.267" transform="translate(560.04 81.723) rotate(-9.146)" fill="#b81719"/>
  </g>
  <g id="Group_528" data-name="Group 528" transform="translate(-529.726 -53.827)">
    <g transform="matrix(1, 0, 0, 1, 529.73, 53.83)" filter="url(#Ellipse_3-2)">
      <circle id="Ellipse_3-4" data-name="Ellipse 3" cx="17.84" cy="17.84" r="17.84" transform="translate(18 37.23) rotate(-45)" fill="#f31f21"/>
    </g>
    <circle id="Ellipse_4-2" data-name="Ellipse 4" cx="11.267" cy="11.267" r="11.267" transform="translate(560.04 81.723) rotate(-9.146)" fill="#b81719"/>
  </g>
</svg>
