<svg xmlns="http://www.w3.org/2000/svg" xmlns:xlink="http://www.w3.org/1999/xlink" width="316.049" height="649.997" viewBox="0 0 316.049 649.997">
  <defs>
    <filter id="Path_2966" x="27.049" y="2.999" width="289" height="638" filterUnits="userSpaceOnUse">
      <feOffset dy="3" input="SourceAlpha"/>
      <feGaussianBlur stdDeviation="3" result="blur"/>
      <feFlood flood-opacity="0.161"/>
      <feComposite operator="in" in2="blur"/>
      <feComposite in="SourceGraphic"/>
    </filter>
    <clipPath id="clip-path">
      <rect width="270" height="620" fill="none"/>
    </clipPath>
    <filter id="Ellipse_3" x="0" y="563.539" width="86.458" height="86.458" filterUnits="userSpaceOnUse">
      <feOffset dy="6" input="SourceAlpha"/>
      <feGaussianBlur stdDeviation="6" result="blur-2"/>
      <feFlood flood-opacity="0.239"/>
      <feComposite operator="in" in2="blur-2"/>
      <feComposite in="SourceGraphic"/>
    </filter>
    <filter id="Ellipse_3-2" x="0" y="0" width="86.458" height="86.458" filterUnits="userSpaceOnUse">
      <feOffset dy="6" input="SourceAlpha"/>
      <feGaussianBlur stdDeviation="6" result="blur-3"/>
      <feFlood flood-opacity="0.239"/>
      <feComposite operator="in" in2="blur-3"/>
      <feComposite in="SourceGraphic"/>
    </filter>
  </defs>
  <g transform="matrix(1, 0, 0, 1, 0, 0)" filter="url(#Path_2966)">
    <path id="Path_2966-2" data-name="Path 2966" d="M0,0H271V620H0Z" transform="translate(36.05 9)" fill="#fff"/>
  </g>
  <g id="Repeat_Grid_6" data-name="Repeat Grid 6" transform="translate(36.049 8.999)" clip-path="url(#clip-path)">
    <g transform="translate(-210 -963)">
      <rect id="Rectangle_471" data-name="Rectangle 471" width="270" height="1" transform="translate(210 963)" fill="#bfeeff"/>
    </g>
    <g transform="translate(-210 -882)">
      <rect id="Rectangle_471-2" data-name="Rectangle 471" width="270" height="1" transform="translate(210 963)" fill="#bfeeff"/>
    </g>
    <g transform="translate(-210 -801)">
      <rect id="Rectangle_471-3" data-name="Rectangle 471" width="270" height="1" transform="translate(210 963)" fill="#bfeeff"/>
    </g>
    <g transform="translate(-210 -720)">
      <rect id="Rectangle_471-4" data-name="Rectangle 471" width="270" height="1" transform="translate(210 963)" fill="#bfeeff"/>
    </g>
    <g transform="translate(-210 -639)">
      <rect id="Rectangle_471-5" data-name="Rectangle 471" width="270" height="1" transform="translate(210 963)" fill="#bfeeff"/>
    </g>
    <g transform="translate(-210 -558)">
      <rect id="Rectangle_471-6" data-name="Rectangle 471" width="270" height="1" transform="translate(210 963)" fill="#bfeeff"/>
    </g>
    <g transform="translate(-210 -477)">
      <rect id="Rectangle_471-7" data-name="Rectangle 471" width="270" height="1" transform="translate(210 963)" fill="#bfeeff"/>
    </g>
    <g transform="translate(-210 -396)">
      <rect id="Rectangle_471-8" data-name="Rectangle 471" width="270" height="1" transform="translate(210 963)" fill="#bfeeff"/>
    </g>
  </g>
  <g id="Group_345" data-name="Group 345" transform="translate(-173.951 -934.001)">
    <circle id="Ellipse_6" data-name="Ellipse 6" cx="11" cy="11" r="11" transform="translate(222 1031)" fill="#faf7f0"/>
    <circle id="Ellipse_6-2" data-name="Ellipse 6" cx="11" cy="11" r="11" transform="translate(222 1242)" fill="#faf7f0"/>
    <circle id="Ellipse_6-3" data-name="Ellipse 6" cx="11" cy="11" r="11" transform="translate(222 1453)" fill="#faf7f0"/>
  </g>
  <rect id="Rectangle_472" data-name="Rectangle 472" width="1" height="620" transform="translate(80.05 8.999)" fill="#f60600"/>
  <g id="Group_527" data-name="Group 527" transform="translate(-529.726 509.712)">
    <g transform="matrix(1, 0, 0, 1, 529.73, -509.71)" filter="url(#Ellipse_3)">
      <circle id="Ellipse_3-3" data-name="Ellipse 3" cx="17.84" cy="17.84" r="17.84" transform="translate(18 600.77) rotate(-45)" fill="#f31f21"/>
    </g>
    <circle id="Ellipse_4" data-name="Ellipse 4" cx="11.267" cy="11.267" r="11.267" transform="translate(560.04 81.723) rotate(-9.146)" fill="#b81719"/>
  </g>
  <g id="Group_528" data-name="Group 528" transform="translate(-529.726 -53.827)">
    <g transform="matrix(1, 0, 0, 1, 529.73, 53.83)" filter="url(#Ellipse_3-2)">
      <circle id="Ellipse_3-4" data-name="Ellipse 3" cx="17.84" cy="17.84" r="17.84" transform="translate(18 37.23) rotate(-45)" fill="#f31f21"/>
    </g>
    <circle id="Ellipse_4-2" data-name="Ellipse 4" cx="11.267" cy="11.267" r="11.267" transform="translate(560.04 81.723) rotate(-9.146)" fill="#b81719"/>
  </g>
</svg>
