<svg xmlns="http://www.w3.org/2000/svg" width="863.477" height="382.031" viewBox="0 0 863.477 382.031">
  <g id="Group_543" data-name="Group 543" transform="translate(-563.485 -1244.001)">
    <path id="Path_3631" data-name="Path 3631" d="M1422.931,1467.6c-.521.773-1.044,1.546-1.59,2.318-1.466,2.159-2.932,4.339-4.423,6.5q-17.108,25.113-34.216,50.185-6.634,9.748-13.244,19.456c-.7,1.01-1.367,2-2.063,3.011-1.367,2-2.684,3.547-4.075,3.408a2.948,2.948,0,0,1-1.988-1.406c-1.118-1.466-.323-4.121.944-6.717a55.616,55.616,0,0,1,3.876-6.38q14.835-21.814,29.719-43.588c2.535-3.7,5.044-7.41,7.579-11.115.273-.4.547-.812.82-1.208q-46.4,33.434-92.784,66.888c-2.435,1.764-3.106.3-3.181-1.526a15.167,15.167,0,0,1,.273-3.17,20.206,20.206,0,0,1,2.286-6.142,23.859,23.859,0,0,1,4.9-6.241c.72-.694,1.466-1.367,2.211-2.041q-24.3,18.9-48.554,37.783c-3.628,2.814-2.411-3.428-.746-8.5v-.02a27.171,27.171,0,0,1,2.261-5.568q13.157-16.7,27.582-32.671c.025-.02.05-.06.075-.079q-33.695,26-67.414,51.949v.02c-5.492,4.22-10.958,8.44-16.45,12.66-3.578,2.754-3.255-2.1-3.106-3.665a21.452,21.452,0,0,1,6.014-12.165q37.384-35.187,74.769-70.375,6.262-5.884,12.524-11.789-21.954,17.178-43.907,34.335-49.647,38.843-99.344,77.686c-3.951,3.071-3.205-3.17-2.907-4.7a22.65,22.65,0,0,1,7.181-12.383q49.312-42.914,98.673-85.809l15.8-13.73q-13.567,10.7-26.96,21.5-50.579,40.715-98.773,83.233c-3.429,3.012-3.23-2.3-3.106-3.665a21.732,21.732,0,0,1,6.014-12.165q20.388-19.734,40.8-39.487,16.289-15.722,32.527-31.483,18.711-18.069,37.372-36.158,20.2-19.525,40.379-39.071-60.643,45.589-117.608,94.15a10.026,10.026,0,0,1-.025-4.121l-80.484,60.963c-2.808,2.12-3.827.852-4.125-1.109a16.448,16.448,0,0,1,.224-5.131c1.068-5.924,4.721-12.125,9.616-16.6q15.543-14.266,31.11-28.531-38.055,29.214-76.086,58.388c-.273.178-.5.357-.745.5-4.05,2.5-3.653-3.428-3.255-6.043.05-.3.075-.555.1-.753a30.036,30.036,0,0,1,9.616-16.583c5.69-4.795,11.331-9.589,17.021-14.384q-26.538,19.763-53.1,39.487l-26.712,19.872c-5.367,3.983-4.3-4.141-3.9-6.281a30.724,30.724,0,0,1,9.616-16.563q62.208-54.98,124.491-109.941,12.636-11.174,25.3-22.329-83.677,58.071-167.329,116.122-21.507,14.919-43.013,29.858c-5.467,3.784-4.324-3.982-3.9-6.281a29.234,29.234,0,0,1,9.616-16.563q22.065-17.861,44.181-35.7,12.636-10.223,25.3-20.407-12.375,8.886-24.774,17.772-53.747,38.605-107.544,77.27c-5.367,3.863-4.274-4.062-3.876-6.281A30.146,30.146,0,0,1,908,1589.73q33.918-29.125,67.861-58.229c4.647-4,9.318-7.984,13.965-11.987-4.994,3.526-9.964,7.053-14.959,10.54q-52.293,36.7-106.4,71.7c-5.541,3.566-4.349-3.784-3.9-6.28a31.1,31.1,0,0,1,5.988-13.077q-20.947,15.6-42.118,31.007c-5.367,3.923-4.274-4.081-3.876-6.241a30.641,30.641,0,0,1,9.592-16.6q44.131-38.635,88.287-77.269-84.348,59.052-175.356,111.862c-5.665,3.289-4.423-3.527-3.926-6.281,1.019-5.429,4.373-12.8,9.641-16.563q14.238-10.253,28.576-20.566c1.441-5.112,4.622-10.758,9.045-14.285a2528.487,2528.487,0,0,0,254.6-231.036Q889.733,1459.64,734.48,1582.835c-5.268,4.161-4.274-4.28-3.9-6.281a30.283,30.283,0,0,1,9.616-16.563q55.275-48.085,110.65-96.171-69.4,54.594-138.853,109.168c-5.243,4.141-4.249-4.26-3.876-6.281a31.383,31.383,0,0,1,9.592-16.563q83.416-75.873,166.808-151.785L651.66,1575.643c-5.318,4.042-4.274-4.18-3.876-6.281,1.019-5.567,4.448-12.621,9.616-16.583q73.837-56.764,142.58-117.469-76.558,61.578-157.812,119.351c-4.9,3.468-4.349-2.635-4.15-4.914.423-5.211,3.852-12.184,8.026-16.246Q715.3,1466.515,784.5,1399.548q-88.3,70.939-181.593,137.758c-5.417,3.843-4.3-4.062-3.9-6.3a30.468,30.468,0,0,1,9.616-16.583q50.02-43.449,99.99-86.9-48.753,38.07-97.456,76.16c-4.771,3.745-4.324-2.833-4.15-4.894.447-5.171,3.8-12.284,8.076-16.286q62.059-58.4,124.168-116.835-50.057,38.516-100.04,77.071-29.967,25.024-62.494,48.125c-5.417,3.844-4.3-4.022-3.9-6.281,1.044-5.567,4.473-12.6,9.616-16.563q31.608-24.37,63.214-48.719a899.628,899.628,0,0,0,79.54-75.09q-75.626,58.874-151.253,117.727c-5.293,4.121-4.3-4.2-3.926-6.241a31.271,31.271,0,0,1,9.641-16.6q20.686-18.9,41.373-37.842-27.06,19.525-54.169,39.071c-8.076,5.805.745-17.019,2.013-18.842q37.161-54.5,74.3-108.99c2.684-3.943,5.243-6.538,8.1-2.675,2.957,3.923-4.075,14.047-6.436,17.515q-25.494,37.416-50.989,74.793Q655.9,1357.4,717.956,1312.65c5.417-3.9,4.324,4.061,3.876,6.281-1.044,5.885-4.721,12.106-9.592,16.563-.969.931-1.963,1.823-2.957,2.734q32.5-25.291,64.954-50.542c7.38-5.726-.273,16.642-2.038,18.842q-17.667,22.378-37,43.806,56.1-43.241,112.191-86.443c4.8-3.685,4.349,2.793,4.15,4.894-.422,5.171-3.827,12.3-8.051,16.286q-58.369,54.921-116.763,109.9,95.791-74.951,191.631-149.843c5.293-4.121,4.274,4.24,3.876,6.281a30.238,30.238,0,0,1-9.592,16.564q-76.558,66.57-153.141,133.141,86.547-68.116,168.2-140.1c4.572-4.022,4.324,3.071,4.15,4.913-.422,5.211-3.852,12.185-8.051,16.266q-101.046,97.746-202.093,195.571a3246.375,3246.375,0,0,0,250.125-208.231c4.5-4.161,4.3,3.15,4.125,4.894-.422,5.408-3.951,11.947-8.051,16.246q-52.443,55.545-108.861,108.554,74.993-57.09,149.961-114.141c5.293-4.062,4.249,4.181,3.876,6.261a31.363,31.363,0,0,1-9.591,16.583q-71.452,65.025-142.928,130.051,106.451-83.63,212.827-167.338c5.293-4.141,4.3,4.24,3.926,6.281a30.431,30.431,0,0,1-9.616,16.563q-45.063,39.11-90.076,78.26,66.01-52.394,132.069-104.789c4.746-3.764,4.324,2.853,4.15,4.894-.472,5.547-4.1,11.808-8.076,16.286q-26.762,30.135-54.741,59.557-4.1,4.28-8.225,8.579-34.254,35.751-70.3,70.394,26.576-21.992,52.579-44.36,13.754-11.829,27.333-23.756,37.608-32.988,73.9-66.887c4.4-4.141,5.815-2.734,6.212,1.842.522,5.706-4.3,13.1-8.324,17.633-35.856,40.18-75.192,78.022-116.738,114.26q-13.9,12.125-28.153,24.033c-15.481,13-31.284,25.8-47.262,38.436q20.91-14.681,41.348-29.739,12.076-8.886,23.929-17.871,57.437-43.42,111.321-89.791,16.065-14.087,32.179-28.154c5.02-4.418,4.224,4.478,3.9,6.261a31.017,31.017,0,0,1-9.616,16.583q-5.218,4.666-10.511,9.292c-7.131,6.32-14.412,12.6-21.668,18.882q-60.456,52.929-120.962,105.9Q1052.59,1423.957,1121,1366.9q37.348-31.086,73.875-62.727c4.6-4,4.3,3.031,4.125,4.894-.422,5.31-3.876,12.086-8.051,16.266q-6.709,6.746-13.517,13.473v.04q-42.491,42.142-87.367,82.658-20.239,18.367-41.05,36.4c.571-.436,1.168-.852,1.74-1.307q44.131-32.661,86.746-66.591,43.8-34.83,86-70.91c2.833-2.417,3.827-.772,4.1,1.486v.02a20.569,20.569,0,0,1-.2,4.775,30.213,30.213,0,0,1-9.617,16.564l-100.288,86.026q-40.329,34.593-80.683,69.206c10.039-7.212,20.127-14.443,30.166-21.655q39.322-28.263,78.7-56.545,21.022-15.068,41.994-30.175l57.449-41.25c5.417-3.9,4.3,4.022,3.9,6.241-1.044,5.666-4.5,12.482-9.641,16.6q-56.654,45.8-113.408,91.594,28.439-19.763,56.878-39.467c4.945-3.467,9.939-6.954,14.934-10.382q35.856-24.9,71.762-49.809c5.442-3.784,4.324,3.943,3.876,6.261a25.517,25.517,0,0,1-1.988,6.2,31.7,31.7,0,0,1-7.6,10.382q-17.965,15.87-35.906,31.72-40.143,35.425-80.236,70.87,15.1-11.234,30.24-22.487,49.647-36.941,99.369-73.921c2.336-1.764,3.454-1.169,3.951.238.6,1.763.149,4.854-.074,6.043a29.98,29.98,0,0,1-7.057,14.047c1.093,1.406.646,5.013.422,6.538q23.593-17.98,47.212-35.96,19.643-14.919,39.286-29.9c3.975-3.011,3.205,3.13,2.907,4.7-.77,4.161-3.33,9.43-7.181,12.4q-4.1,3.15-8.2,6.36-48.715,37.8-94.374,77.923c-1.367,1.169-2.684,2.358-4.026,3.527,1.342-1.09,2.709-2.18,4.051-3.249q47.224-37.8,96.785-73.683,8.535-6.182,17.145-12.284c3.653-2.6,3.255,1.962,3.106,3.666a13.66,13.66,0,0,1-.547,2.813,22.553,22.553,0,0,1-5.467,9.332q-51.772,50.077-103.494,100.133,15.692-12.6,31.607-25.063,50.989-39.853,104.14-77.9c4.05-2.873,3.205,3.031,2.907,4.7a16.429,16.429,0,0,1-.87,3.091,22.918,22.918,0,0,1-6.312,9.312q-37.385,32.483-74.744,64.965,36.453-28.471,72.856-56.942c3.553-2.793,3.23,2.12,3.106,3.666-.025.158-.025.3-.049.456a15.552,15.552,0,0,1-.4,1.961,22.006,22.006,0,0,1-5.591,9.748q-18.562,17.475-37.148,34.95-18.86,17.772-37.77,35.544-8.946,8.44-17.916,16.861,37.422-28.8,74.794-57.615,22.4-18.723,46.715-35.98c1.068-.773,1.814-.911,2.286-.654a1.4,1.4,0,0,1,.745,1.07,12.036,12.036,0,0,1-.124,4.28c-.77,4.161-3.33,9.411-7.182,12.383q-23.631,18.218-47.261,36.416c-.721.614-1.466,1.228-2.162,1.842q-15.17,12.779-29.4,26.232-14.462,13.7-27.905,28.055,56.543-44.014,113.086-88.008c3.951-3.071,3.205,3.15,2.932,4.676a23.437,23.437,0,0,1-7.206,12.4l-30.936,28.293q20.239-14.592,40.5-29.2C1430.485,1449.179,1423.875,1466.237,1422.931,1467.6Z" transform="translate(0 0)" fill="#ffeb00"/>
    <path id="Path_3632" data-name="Path 3632" d="M843.88,1350.137c-1.342,1.07-2.709,2.16-4.05,3.249,1.342-1.169,2.659-2.358,4.025-3.527A1.044,1.044,0,0,1,843.88,1350.137Z" transform="translate(410.33 103.876)" fill="#ffeb00"/>
  </g>
</svg>
